  0
SECTION
  2
HEADER
  9
$ACADVER
  1
AC1012
  9
$DWGCODEPAGE
  3
ansi_1252
  9
$INSBASE
 10
0.0
 20
0.0
 30
0.0
  9
$EXTMIN
 10
0
 20
-7.89491928622305e-16
 30
0.0
  9
$EXTMAX
 10
90
 20
77.9422863405994
 30
0.0
  9
$LIMMIN
 10
0.0
 20
0.0
  9
$LIMMAX
 10
0.0
 20
0.0
  9
$ORTHOMODE
 70
         0
  9
$REGENMODE
 70
         1
  9
$FILLMODE
 70
         1
  9
$QTEXTMODE
 70
         0
  9
$MIRRTEXT
 70
         1
  9
$DRAGMODE
 70
         2
  9
$LTSCALE
 40
1.0
  9
$OSMODE
 70
         0
  9
$ATTMODE
 70
         1
  9
$TEXTSIZE
 40
3.5
  9
$TRACEWID
 40
0.05
  9
$TEXTSTYLE
  7
STANDARD
  9
$CLAYER
  8
0
  9
$CELTYPE
  6
CONTINUOUS
  9
$CECOLOR
 62
       256
  9
$CELTSCALE
 40
1.0
  9
$DELOBJ
 70
         1
  9
$DISPSILH
 70
         0
  9
$DIMSCALE
 40
1.0
  9
$DIMASZ
 40
0.0
  9
$DIMEXO
 40
0.0
  9
$DIMDLI
 40
0.38
  9
$DIMRND
 40
0.0
  9
$DIMDLE
 40
0.0
  9
$DIMEXE
 40
0.18
  9
$DIMTP
 40
0.0
  9
$DIMTM
 40
0.0
  9
$DIMTXT
 40
2.5
  9
$DIMCEN
 40
0.09
  9
$DIMTSZ
 40
0.0
  9
$DIMTOL
 70
         0
  9
$DIMLIM
 70
         0
  9
$DIMTIH
 70
         1
  9
$DIMTOH
 70
         1
  9
$DIMSE1
 70
         0
  9
$DIMSE2
 70
         0
  9
$DIMTAD
 70
         1
  9
$DIMZIN
 70
         0
  9
$DIMBLK
  1

  9
$DIMASO
 70
         1
  9
$DIMSHO
 70
         1
  9
$DIMPOST
  1

  9
$DIMAPOST
  1

  9
$DIMALT
 70
         0
  9
$DIMALTD
 70
         2
  9
$DIMALTF
 40
0.0394
  9
$DIMLFAC
 40
1.0
  9
$DIMTOFL
 70
         0
  9
$DIMTVP
 40
0.0
  9
$DIMTIX
 70
         0
  9
$DIMSOXD
 70
         0
  9
$DIMSAH
 70
         0
  9
$DIMBLK1
  1

  9
$DIMBLK2
  1

  9
$DIMSTYLE
  2
STANDARD
  9
$DIMCLRD
 70
         0
  9
$DIMCLRE
 70
         0
  9
$DIMCLRT
 70
         0
  9
$DIMTFAC
 40
1.0
  9
$DIMGAP
 40
0.0
  9
$DIMJUST
 70
         0
  9
$DIMSD1
 70
         0
  9
$DIMSD2
 70
         0
  9
$DIMTOLJ
 70
         1
  9
$DIMTZIN
 70
         0
  9
$DIMALTZ
 70
         0
  9
$DIMALTTZ
 70
         0
  9
$DIMFIT
 70
         3
  9
$DIMUPT
 70
         0
  9
$DIMUNIT
 70
         2
  9
$DIMDEC
 70
         4
  9
$DIMTDEC
 70
         4
  9
$DIMALTU
 70
         2
  9
$DIMALTTD
 70
         2
  9
$DIMTXSTY
  7
STANDARD
  9
$DIMAUNIT
 70
         0
  9
$LUNITS
 70
         2
  9
$LUPREC
 70
         4
  9
$SKETCHINC
 40
0.1
  9
$FILLETRAD
 40
0.0
  9
$AUNITS
 70
         0
  9
$AUPREC
 70
         0
  9
$MENU
  1
acad
  9
$ELEVATION
 40
0.0
  9
$PELEVATION
 40
0.0
  9
$THICKNESS
 40
0.0
  9
$LIMCHECK
 70
         0
  9
$BLIPMODE
 70
         1
  9
$CHAMFERA
 40
0.0
  9
$CHAMFERB
 40
0.0
  9
$CHAMFERC
 40
0.0
  9
$CHAMFERD
 40
0.0
  9
$SKPOLY
 70
         0
  9
$TDCREATE
 40
0.000000000
  9
$TDUPDATE
 40
0.000000000
  9
$TDINDWG
 40
0.0000000000
  9
$TDUSRTIMER
 40
0.0000000000
  9
$USRTIMER
 70
         1
  9
$ANGBASE
 50
0.0
  9
$ANGDIR
 70
         0
  9
$PDMODE
 70
         0
  9
$PDSIZE
 40
-1.0
  9
$PLINEWID
 40
0.0
  9
$COORDS
 70
         0
  9
$SPLFRAME
 70
         0
  9
$SPLINETYPE
 70
         6
  9
$SPLINESEGS
 70
         8
  9
$ATTDIA
 70
         0
  9
$ATTREQ
 70
         1
  9
$HANDLING
 70
         1
  9
$HANDSEED
  5
2532
  9
$SURFTAB1
 70
         6
  9
$SURFTAB2
 70
         6
  9
$SURFTYPE
 70
         6
  9
$SURFU
 70
         6
  9
$SURFV
 70
         6
  9
$UCSNAME
  2

  9
$UCSORG
 10
0.0
 20
0.0
 30
0.0
  9
$UCSXDIR
 10
1.0
 20
0.0
 30
0.0
  9
$UCSYDIR
 10
0.0
 20
1.0
 30
0.0
  9
$PUCSNAME
  2

  9
$PUCSORG
 10
0.0
 20
0.0
 30
0.0
  9
$PUCSXDIR
 10
1.0
 20
0.0
 30
0.0
  9
$PUCSYDIR
 10
0.0
 20
1.0
 30
0.0
  9
$USERI1
 70
         0
  9
$USERI2
 70
         0
  9
$USERI3
 70
         0
  9
$USERI4
 70
         0
  9
$USERI5
 70
         0
  9
$USERR1
 40
0.0
  9
$USERR2
 40
0.0
  9
$USERR3
 40
0.0
  9
$USERR4
 40
0.0
  9
$USERR5
 40
0.0
  9
$WORLDVIEW
 70
         1
  9
$SHADEDGE
 70
         3
  9
$SHADEDIF
 70
        70
  9
$TILEMODE
 70
         1
  9
$MAXACTVP
 70
        16
  9
$PINSBASE
 10
0.0
 20
0.0
 30
0.0
  9
$PLIMCHECK
 70
         0
  9
$PEXTMIN
 10
1.0000000000E+20
 20
1.0000000000E+20
 30
1.0000000000E+20
  9
$PEXTMAX
 10
-1.0000000000E+20
 20
-1.0000000000E+20
 30
-1.0000000000E+20
  9
$PLIMMIN
 10
0.0
 20
0.0
  9
$PLIMMAX
 10
12.0
 20
9.0
  9
$UNITMODE
 70
         0
  9
$VISRETAIN
 70
         0
  9
$PLINEGEN
 70
         1
  9
$PSLTSCALE
 70
         1
  9
$TREEDEPTH
 70
      3020
  9
$PICKSTYLE
 70
         1
  9
$CMLSTYLE
  2
STANDARD
  9
$CMLJUST
 70
         0
  9
$CMLSCALE
 40
1.0
  9
$SAVEIMAGES
 70
         0
  0
ENDSEC
  0
SECTION
  2
CLASSES
  0
CLASS
  1
LWPOLYLINE
  2
AcDbPolyline
  3
"AutoCAD"
 90
    32768
280
         0
281
         1
  0
CLASS
  1
DICTIONARYVAR
  2
AcDbDictionaryVar
  3
"AutoCAD"
 90
    32768
280
         0
281
         0
  0
CLASS
  1
LAYOUT
  2
AcDbLayout
  3
"AutoCAD 2000"
 90
    32768
280
         0
281
         0
  0
CLASS
  1
PLOTSETTINGS
  2
AcDbPlotSettings
  3
"AutoCAD 2000"
 90
    32768
280
         0
281
         0
  0
CLASS
  1
ACDBDICTIONARYWDFLT
  2
AcDbDictionaryWithDefault
  3
"AutoCAD 2000"
 90
    32768
280
         0
281
         0
  0
CLASS
  1
ACDBPLACEHOLDER
  2
AcDbPlaceHolder
  3
"AutoCAD 2000"
 90
    32768
280
         0
281
         0
  0
ENDSEC
  0
SECTION
  2
TABLES
  0
TABLE
  2
VPORT
  5
7
100
AcDbSymbolTable
 70
         1
  0
VPORT
  5
15
100
AcDbSymbolTableRecord
100
AcDbViewportTableRecord
  2
*ACTIVE
 70
         0
 10
0.0
 20
0.0
 11
1.0
 21
1.0
 12
45
 22
38.9711431702997
 13
0.0
 23
0.0
 14
1.0
 24
1.0
 15
0.0
 25
0.0
 16
0.0
 26
0.0
 36
1.0
 17
0.0
 27
0.0
 37
0.0
 40
77.9422863405994
 41
1.0
 42
50.0
 43
0.0
 44
0.0
 50
0.0
 51
0.0
 71
         0
 72
      2000
 73
         1
 74
         1
 75
         0
 76
         0
 77
         0
 78
         0
  0
ENDTAB
  0
TABLE
  2
LTYPE
  5
4
100
AcDbSymbolTable
 70
         8
  0
LTYPE
  5
11
100
AcDbSymbolTableRecord
100
AcDbLinetypeTableRecord
  2
BYBLOCK
 70
        64
  3

 72
        65
 73
         0
 40
0.0
  0
LTYPE
  5
12
100
AcDbSymbolTableRecord
100
AcDbLinetypeTableRecord
  2
BYLAYER
 70
        64
  3

 72
        65
 73
         0
 40
0.0
  0
LTYPE
  5
13
100
AcDbSymbolTableRecord
100
AcDbLinetypeTableRecord
  2
CONTINUOUS
 70
        64
  3
Solid line
 72
        65
 73
         0
 40
0.0
  0
ENDTAB
  0
TABLE
  2
LAYER
  5
2
100
AcDbSymbolTable
 70
         2
  0
LAYER
  5
14
100
AcDbSymbolTableRecord
100
AcDbLayerTableRecord
  2
0
 70
         0
 62
         7
  6
CONTINUOUS
  0
LAYER
  5
23
100
AcDbSymbolTableRecord
100
AcDbLayerTableRecord
  2
DEFPOINTS
 70
         0
 62
         7
  6
CONTINUOUS
  0
ENDTAB
  0
TABLE
  2
STYLE
  5
3
100
AcDbSymbolTable
 70
         1
  0
STYLE
  5
17
100
AcDbSymbolTableRecord
100
AcDbTextStyleTableRecord
  2
STANDARD
 70
         0
 40
0.0
 41
1.0
 50
0.0
 71
         0
 42
0.0
  3
txt
  4

  0
ENDTAB
  0
TABLE
  2
VIEW
  5
5
100
AcDbSymbolTable
 70
         0
  0
ENDTAB
  0
TABLE
  2
UCS
  5
6
100
AcDbSymbolTable
 70
         0
  0
ENDTAB
  0
TABLE
  2
APPID
  5
8
100
AcDbSymbolTable
 70
         1
  0
APPID
  5
16
100
AcDbSymbolTableRecord
100
AcDbRegAppTableRecord
  2
ACAD
 70
         0
  0
ENDTAB
  0
TABLE
  2
DIMSTYLE
  5
9
100
AcDbSymbolTable
 70
         1
  0
DIMSTYLE
105
18
100
AcDbSymbolTableRecord
100
AcDbDimStyleTableRecord
  2
STANDARD
 70
         0
  3

  4

  5

  6

  7

 40
1.0
 41
0.18
 42
0.0625
 43
0.38
 44
0.18
 45
0.0
 46
0.0
 47
0.0
 48
0.0
 71
         0
 72
         0
 73
         1
 74
         1
 75
         0
 76
         0
 77
         0
 78
         0
140
0.18
141
0.09
142
0.0
143
25.4
144
1.0
145
0.0
146
1.0
147
0.09
170
         0
171
         2
172
         0
173
         0
174
         0
175
         0
176
         0
177
         0
178
         0
270
         2
271
         4
272
         4
273
         2
274
         2
275
         0
280
         0
281
         0
282
         0
283
         1
284
         0
285
         0
286
         0
287
         3
288
         0
340
17
  0
ENDTAB
  0
TABLE
  2
BLOCK_RECORD
  5
1
100
AcDbSymbolTable
 70
         0
  0
BLOCK_RECORD
  5
A
100
AcDbSymbolTableRecord
100
AcDbBlockTableRecord
  2
*MODEL_SPACE
  0
BLOCK_RECORD
  5
B
100
AcDbSymbolTableRecord
100
AcDbBlockTableRecord
  2
*PAPER_SPACE
  0
ENDTAB
  0
ENDSEC
  0
SECTION
  2
BLOCKS
  0
BLOCK
  5
D
100
AcDbEntity
  8
0
100
AcDbBlockBegin
  2
*MODEL_SPACE
 70
         0
 10
0.0
 20
0.0
 30
0.0
  3
*MODEL_SPACE
  1

  0
ENDBLK
  5
E
100
AcDbEntity
  8
0
100
AcDbBlockEnd
  0
BLOCK
  5
F
100
AcDbEntity
 67
         1
  8
0
100
AcDbBlockBegin
  2
*PAPER_SPACE
 70
         0
 10
0.0
 20
0.0
 30
0.0
  3
*PAPER_SPACE
  1

  0
ENDBLK
  5
10
100
AcDbEntity
 67
         1
  8
0
100
AcDbBlockEnd
  0
ENDSEC
  0
SECTION
  2
ENTITIES
  0
SPLINE
  5
30
100
AcDbEntity
  8
0
100
AcDbSpline
 70
12
 71
3
 72
8
 73
4
 40
0
 40
0
 40
0
 40
0
 40
1
 40
1
 40
1
 40
1
 10
0
 20
0
 30
0
 41
1
 10
2.26995249869773
 20
4.45503262094183
 30
0
 41
1
 10
4.53990499739547
 20
8.91006524188367
 30
0
 41
1
 10
6.8098574960932
 20
13.3650978628255
 30
0
 41
1
  0
SPLINE
  5
31
100
AcDbEntity
  8
0
100
AcDbSpline
 70
12
 71
3
 72
8
 73
4
 40
0
 40
0
 40
0
 40
0
 40
1
 40
1
 40
1
 40
1
 10
14.9794430213186
 20
0.785039343644158
 30
0
 41
1
 10
9.98629534754574
 20
0.523359562429438
 30
0
 41
1
 10
4.99314767377287
 20
0.261679781214719
 30
0
 41
1
 10
0
 20
0
 30
0
 41
1
  0
SPLINE
  5
32
100
AcDbEntity
  8
0
100
AcDbSpline
 70
12
 71
3
 72
8
 73
4
 40
0
 40
0
 40
0
 40
0
 40
1
 40
1
 40
1
 40
1
 10
6.8098574960932
 20
13.3650978628255
 30
0
 41
1
 10
13.1657244924469
 20
25.8391892014627
 30
0
 41
1
 10
19.5215914888005
 20
38.3132805400998
 30
0
 41
1
 10
25.8774584851542
 20
50.787371878737
 30
0
 41
1
  0
SPLINE
  5
33
100
AcDbEntity
  8
0
100
AcDbSpline
 70
12
 71
3
 72
8
 73
4
 40
0
 40
0
 40
0
 40
0
 40
1
 40
1
 40
1
 40
1
 10
56.9218834810107
 20
2.9831495058478
 30
0
 41
1
 10
42.9410699944467
 20
2.25044611844658
 30
0
 41
1
 10
28.9602565078826
 20
1.51774273104537
 30
0
 41
1
 10
14.9794430213186
 20
0.785039343644158
 30
0
 41
1
  0
SPLINE
  5
34
100
AcDbEntity
  8
0
100
AcDbSpline
 70
12
 71
3
 72
8
 73
4
 40
0
 40
0
 40
0
 40
0
 40
1
 40
1
 40
1
 40
1
 10
15.9836297852512
 20
12.7191738396576
 30
0
 41
1
 10
15.8923453163929
 20
13.5404173722199
 30
0
 41
1
 10
15.8010608475346
 20
14.3616609047822
 30
0
 41
1
 10
15.7097763786763
 20
15.1829044373445
 30
0
 41
1
  0
SPLINE
  5
35
100
AcDbEntity
  8
0
100
AcDbSpline
 70
12
 71
3
 72
8
 73
4
 40
0
 40
0
 40
0
 40
0
 40
1
 40
1
 40
1
 40
1
 10
15.7097763786763
 20
15.1829044373445
 30
0
 41
1
 10
15.8476358990662
 20
16.4222620361226
 30
0
 41
1
 10
15.9854954194562
 20
17.6616196349007
 30
0
 41
1
 10
16.1233549398462
 20
18.9009772336788
 30
0
 41
1
  0
SPLINE
  5
36
100
AcDbEntity
  8
0
100
AcDbSpline
 70
12
 71
3
 72
8
 73
4
 40
0
 40
0
 40
0
 40
0
 40
1
 40
1
 40
1
 40
1
 10
16.7734113589085
 20
10.8927807003005
 30
0
 41
1
 10
16.510150834356
 20
11.5015784134195
 30
0
 41
1
 10
16.2468903098036
 20
12.1103761265386
 30
0
 41
1
 10
15.9836297852512
 20
12.7191738396576
 30
0
 41
1
  0
SPLINE
  5
37
100
AcDbEntity
  8
0
100
AcDbSpline
 70
12
 71
3
 72
8
 73
4
 40
0
 40
0
 40
0
 40
0
 40
1
 40
1
 40
1
 40
1
 10
16.1233549398462
 20
18.9009772336788
 30
0
 41
1
 10
16.7540159867348
 20
21.1914617142202
 30
0
 41
1
 10
17.3846770336234
 20
23.4819461947616
 30
0
 41
1
 10
18.015338080512
 20
25.7724306753029
 30
0
 41
1
  0
SPLINE
  5
38
100
AcDbEntity
  8
0
100
AcDbSpline
 70
12
 71
3
 72
8
 73
4
 40
0
 40
0
 40
0
 40
0
 40
1
 40
1
 40
1
 40
1
 10
18.1206714092052
 20
9.42841831671732
 30
0
 41
1
 10
17.671584725773
 20
9.91653911124506
 30
0
 41
1
 10
17.2224980423407
 20
10.4046599057728
 30
0
 41
1
 10
16.7734113589085
 20
10.8927807003005
 30
0
 41
1
  0
SPLINE
  5
39
100
AcDbEntity
  8
0
100
AcDbSpline
 70
12
 71
3
 72
8
 73
4
 40
0
 40
0
 40
0
 40
0
 40
1
 40
1
 40
1
 40
1
 10
20.260015090292
 20
8.17615126833458
 30
0
 41
1
 10
19.5469005299298
 20
8.59357361779549
 30
0
 41
1
 10
18.8337859695675
 20
9.0109959672564
 30
0
 41
1
 10
18.1206714092052
 20
9.42841831671732
 30
0
 41
1
  0
SPLINE
  5
40
100
AcDbEntity
  8
0
100
AcDbSpline
 70
12
 71
3
 72
8
 73
4
 40
0
 40
0
 40
0
 40
0
 40
1
 40
1
 40
1
 40
1
 10
18.015338080512
 20
25.7724306753029
 30
0
 41
1
 10
21.185879219951
 20
33.4374446736132
 30
0
 41
1
 10
24.3564203593899
 20
41.1024586719235
 30
0
 41
1
 10
27.5269614988289
 20
48.7674726702337
 30
0
 41
1
  0
SPLINE
  5
41
100
AcDbEntity
  8
0
100
AcDbSpline
 70
12
 71
3
 72
8
 73
4
 40
0
 40
0
 40
0
 40
0
 40
1
 40
1
 40
1
 40
1
 10
23.8248611601861
 20
7.04169763637722
 30
0
 41
1
 10
22.6365791368881
 20
7.41984884702967
 30
0
 41
1
 10
21.4482971135901
 20
7.79800005768213
 30
0
 41
1
 10
20.260015090292
 20
8.17615126833458
 30
0
 41
1
  0
SPLINE
  5
42
100
AcDbEntity
  8
0
100
AcDbSpline
 70
12
 71
3
 72
8
 73
4
 40
0
 40
0
 40
0
 40
0
 40
1
 40
1
 40
1
 40
1
 10
21.2145132120635
 20
19.9271385728065
 30
0
 41
1
 10
21.3541898419355
 20
18.9398324867057
 30
0
 41
1
 10
21.4938664718076
 20
17.9525264006048
 30
0
 41
1
 10
21.6335431016797
 20
16.965220314504
 30
0
 41
1
  0
SPLINE
  5
43
100
AcDbEntity
  8
0
100
AcDbSpline
 70
12
 71
3
 72
8
 73
4
 40
0
 40
0
 40
0
 40
0
 40
1
 40
1
 40
1
 40
1
 10
21.5325694034585
 20
24.1774713654748
 30
0
 41
1
 10
21.4265506729935
 20
22.7606937679187
 30
0
 41
1
 10
21.3205319425285
 20
21.3439161703626
 30
0
 41
1
 10
21.2145132120635
 20
19.9271385728065
 30
0
 41
1
  0
SPLINE
  5
44
100
AcDbEntity
  8
0
100
AcDbSpline
 70
12
 71
3
 72
8
 73
4
 40
0
 40
0
 40
0
 40
0
 40
1
 40
1
 40
1
 40
1
 10
21.6335431016797
 20
16.965220314504
 30
0
 41
1
 10
21.9703971792953
 20
16.2118981914712
 30
0
 41
1
 10
22.3072512569109
 20
15.4585760684385
 30
0
 41
1
 10
22.6441053345264
 20
14.7052539454057
 30
0
 41
1
  0
SPLINE
  5
45
100
AcDbEntity
  8
0
100
AcDbSpline
 70
12
 71
3
 72
8
 73
4
 40
0
 40
0
 40
0
 40
0
 40
1
 40
1
 40
1
 40
1
 10
23.2018964420813
 20
31.2589907786963
 30
0
 41
1
 10
22.6454540958737
 20
28.8984843076224
 30
0
 41
1
 10
22.0890117496661
 20
26.5379778365486
 30
0
 41
1
 10
21.5325694034585
 20
24.1774713654748
 30
0
 41
1
  0
SPLINE
  5
46
100
AcDbEntity
  8
0
100
AcDbSpline
 70
12
 71
3
 72
8
 73
4
 40
0
 40
0
 40
0
 40
0
 40
1
 40
1
 40
1
 40
1
 10
22.6441053345264
 20
14.7052539454057
 30
0
 41
1
 10
23.1952884414289
 20
14.0911187214345
 30
0
 41
1
 10
23.7464715483314
 20
13.4769834974634
 30
0
 41
1
 10
24.2976546552339
 20
12.8628482734922
 30
0
 41
1
  0
SPLINE
  5
47
100
AcDbEntity
  8
0
100
AcDbSpline
 70
12
 71
3
 72
8
 73
4
 40
0
 40
0
 40
0
 40
0
 40
1
 40
1
 40
1
 40
1
 10
30.8717851105749
 20
5.97523833457101
 30
0
 41
1
 10
28.5228104604453
 20
6.33072476850641
 30
0
 41
1
 10
26.1738358103157
 20
6.68621120244182
 30
0
 41
1
 10
23.8248611601861
 20
7.04169763637722
 30
0
 41
1
  0
SPLINE
  5
48
100
AcDbEntity
  8
0
100
AcDbSpline
 70
12
 71
3
 72
8
 73
4
 40
0
 40
0
 40
0
 40
0
 40
1
 40
1
 40
1
 40
1
 10
29.2438196699057
 20
47.7577115355629
 30
0
 41
1
 10
27.2298452606309
 20
42.2581379499407
 30
0
 41
1
 10
25.2158708513561
 20
36.7585643643185
 30
0
 41
1
 10
23.2018964420813
 20
31.2589907786963
 30
0
 41
1
  0
SPLINE
  5
49
100
AcDbEntity
  8
0
100
AcDbSpline
 70
12
 71
3
 72
8
 73
4
 40
0
 40
0
 40
0
 40
0
 40
1
 40
1
 40
1
 40
1
 10
24.2976546552339
 20
12.8628482734922
 30
0
 41
1
 10
25.1427920419439
 20
12.3336737595848
 30
0
 41
1
 10
25.9879294286539
 20
11.8044992456773
 30
0
 41
1
 10
26.8330668153639
 20
11.2753247317699
 30
0
 41
1
  0
SPLINE
  5
50
100
AcDbEntity
  8
0
100
AcDbSpline
 70
12
 71
3
 72
8
 73
4
 40
0
 40
0
 40
0
 40
0
 40
1
 40
1
 40
1
 40
1
 10
26.8330668153639
 20
11.2753247317699
 30
0
 41
1
 10
28.1704792566336
 20
10.7959222973963
 30
0
 41
1
 10
29.5078916979033
 20
10.3165198630227
 30
0
 41
1
 10
30.8453041391729
 20
9.83711742864903
 30
0
 41
1
  0
SPLINE
  5
51
100
AcDbEntity
  8
0
100
AcDbSpline
 70
12
 71
3
 72
8
 73
4
 40
0
 40
0
 40
0
 40
0
 40
1
 40
1
 40
1
 40
1
 10
26.8080997358063
 20
24.2274697997079
 30
0
 41
1
 10
26.8399210454387
 20
25.6541134261696
 30
0
 41
1
 10
26.8717423550711
 20
27.0807570526313
 30
0
 41
1
 10
26.9035636647035
 20
28.5074006790931
 30
0
 41
1
  0
SPLINE
  5
52
100
AcDbEntity
  8
0
100
AcDbSpline
 70
12
 71
3
 72
8
 73
4
 40
0
 40
0
 40
0
 40
0
 40
1
 40
1
 40
1
 40
1
 10
27.3922557750797
 20
21.0588317481613
 30
0
 41
1
 10
27.1975370953219
 20
22.1150444320101
 30
0
 41
1
 10
27.0028184155641
 20
23.171257115859
 30
0
 41
1
 10
26.8080997358063
 20
24.2274697997079
 30
0
 41
1
  0
SPLINE
  5
53
100
AcDbEntity
  8
0
100
AcDbSpline
 70
12
 71
3
 72
8
 73
4
 40
0
 40
0
 40
0
 40
0
 40
1
 40
1
 40
1
 40
1
 10
26.9035636647035
 20
28.5074006790931
 30
0
 41
1
 10
27.2840691676258
 20
30.6363429879613
 30
0
 41
1
 10
27.6645746705481
 20
32.7652852968294
 30
0
 41
1
 10
28.0450801734705
 20
34.8942276056976
 30
0
 41
1
  0
SPLINE
  5
54
100
AcDbEntity
  8
0
100
AcDbSpline
 70
12
 71
3
 72
8
 73
4
 40
0
 40
0
 40
0
 40
0
 40
1
 40
1
 40
1
 40
1
 10
28.5647356747932
 20
18.5501562448905
 30
0
 41
1
 10
28.1739090415554
 20
19.3863814126474
 30
0
 41
1
 10
27.7830824083176
 20
20.2226065804044
 30
0
 41
1
 10
27.3922557750797
 20
21.0588317481613
 30
0
 41
1
  0
SPLINE
  5
55
100
AcDbEntity
  8
0
100
AcDbSpline
 70
12
 71
3
 72
8
 73
4
 40
0
 40
0
 40
0
 40
0
 40
1
 40
1
 40
1
 40
1
 10
25.8774584851542
 20
50.787371878737
 30
0
 41
1
 10
25.9531235684441
 20
50.9358729661017
 30
0
 41
1
 10
26.028788651734
 20
51.0843740534664
 30
0
 41
1
 10
26.1044537350239
 20
51.2328751408311
 30
0
 41
1
  0
SPLINE
  5
56
100
AcDbEntity
  8
0
100
AcDbSpline
 70
12
 71
3
 72
8
 73
4
 40
0
 40
0
 40
0
 40
0
 40
1
 40
1
 40
1
 40
1
 10
30.3796342470222
 20
16.4586723055632
 30
0
 41
1
 10
29.7746680562792
 20
17.1558336186723
 30
0
 41
1
 10
29.1697018655362
 20
17.8529949317814
 30
0
 41
1
 10
28.5647356747932
 20
18.5501562448905
 30
0
 41
1
  0
SPLINE
  5
57
100
AcDbEntity
  8
0
100
AcDbSpline
 70
12
 71
3
 72
8
 73
4
 40
0
 40
0
 40
0
 40
0
 40
1
 40
1
 40
1
 40
1
 10
28.0450801734705
 20
34.8942276056976
 30
0
 41
1
 10
29.1988530535446
 20
38.6949163881676
 30
0
 41
1
 10
30.3526259336187
 20
42.4956051706375
 30
0
 41
1
 10
31.5063988136928
 20
46.2962939531075
 30
0
 41
1
  0
SPLINE
  5
58
100
AcDbEntity
  8
0
100
AcDbSpline
 70
12
 71
3
 72
8
 73
4
 40
0
 40
0
 40
0
 40
0
 40
1
 40
1
 40
1
 40
1
 10
27.5269614988289
 20
48.7674726702337
 30
0
 41
1
 10
27.5884553207172
 20
48.8279833551799
 30
0
 41
1
 10
27.6499491426055
 20
48.8884940401261
 30
0
 41
1
 10
27.7114429644939
 20
48.9490047250722
 30
0
 41
1
  0
SPLINE
  5
59
100
AcDbEntity
  8
0
100
AcDbSpline
 70
12
 71
3
 72
8
 73
4
 40
0
 40
0
 40
0
 40
0
 40
1
 40
1
 40
1
 40
1
 10
27.7114429644939
 20
48.9490047250722
 30
0
 41
1
 10
27.794953518898
 20
48.9706616044919
 30
0
 41
1
 10
27.8784640733022
 20
48.9923184839115
 30
0
 41
1
 10
27.9619746277063
 20
49.0139753633311
 30
0
 41
1
  0
SPLINE
  5
60
100
AcDbEntity
  8
0
100
AcDbSpline
 70
12
 71
3
 72
8
 73
4
 40
0
 40
0
 40
0
 40
0
 40
1
 40
1
 40
1
 40
1
 10
27.9619746277063
 20
49.0139753633311
 30
0
 41
1
 10
27.9675458447463
 20
49.0131651242978
 30
0
 41
1
 10
27.9730908968867
 20
49.0122254621547
 30
0
 41
1
 10
27.978609489035
 20
49.0111418215651
 30
0
 41
1
  0
SPLINE
  5
61
100
AcDbEntity
  8
0
100
AcDbSpline
 70
12
 71
3
 72
8
 73
4
 40
0
 40
0
 40
0
 40
0
 40
1
 40
1
 40
1
 40
1
 10
27.978609489035
 20
49.0111418215651
 30
0
 41
1
 10
27.9841779485386
 20
49.0100483889327
 30
0
 41
1
 10
27.9897194676915
 20
49.0088083640482
 30
0
 41
1
 10
27.9952349451522
 20
49.0074660729262
 30
0
 41
1
  0
SPLINE
  5
62
100
AcDbEntity
  8
0
100
AcDbSpline
 70
12
 71
3
 72
8
 73
4
 40
0
 40
0
 40
0
 40
0
 40
1
 40
1
 40
1
 40
1
 10
27.9952349451522
 20
49.0074660729262
 30
0
 41
1
 10
28.0008013387989
 20
49.0061113904301
 30
0
 41
1
 10
28.0063412077259
 20
49.0046525448376
 30
0
 41
1
 10
28.0118592822887
 20
49.0031156956063
 30
0
 41
1
  0
SPLINE
  5
63
100
AcDbEntity
  8
0
100
AcDbSpline
 70
12
 71
3
 72
8
 73
4
 40
0
 40
0
 40
0
 40
0
 40
1
 40
1
 40
1
 40
1
 10
28.0118592822887
 20
49.0031156956063
 30
0
 41
1
 10
28.0174230173689
 20
49.0015661293792
 30
0
 41
1
 10
28.0229645959081
 20
48.9999372632558
 30
0
 41
1
 10
28.0284907866752
 20
48.9982582677971
 30
0
 41
1
  0
SPLINE
  5
64
100
AcDbEntity
  8
0
100
AcDbSpline
 70
12
 71
3
 72
8
 73
4
 40
0
 40
0
 40
0
 40
0
 40
1
 40
1
 40
1
 40
1
 10
28.0284907866752
 20
48.9982582677971
 30
0
 41
1
 10
28.0508276444042
 20
48.9914717697788
 30
0
 41
1
 10
28.0729131004637
 20
48.9838662709021
 30
0
 41
1
 10
28.0952542053136
 20
48.9771096142976
 30
0
 41
1
  0
SPLINE
  5
65
100
AcDbEntity
  8
0
100
AcDbSpline
 70
12
 71
3
 72
8
 73
4
 40
0
 40
0
 40
0
 40
0
 40
1
 40
1
 40
1
 40
1
 10
28.0952542053136
 20
48.9771096142976
 30
0
 41
1
 10
28.117387408718
 20
48.9704158336647
 30
0
 41
1
 10
28.1397715250278
 20
48.9645551705297
 30
0
 41
1
 10
28.161986866281
 20
48.9581224169728
 30
0
 41
1
  0
SPLINE
  5
66
100
AcDbEntity
  8
0
100
AcDbSpline
 70
12
 71
3
 72
8
 73
4
 40
0
 40
0
 40
0
 40
0
 40
1
 40
1
 40
1
 40
1
 10
28.161986866281
 20
48.9581224169728
 30
0
 41
1
 10
28.1674929170279
 20
48.9565280652533
 30
0
 41
1
 10
28.172988600068
 20
48.9548985705107
 30
0
 41
1
 10
28.1784665792823
 20
48.9532107670131
 30
0
 41
1
  0
SPLINE
  5
67
100
AcDbEntity
  8
0
100
AcDbSpline
 70
12
 71
3
 72
8
 73
4
 40
0
 40
0
 40
0
 40
0
 40
1
 40
1
 40
1
 40
1
 10
28.1784665792823
 20
48.9532107670131
 30
0
 41
1
 10
28.1839244753193
 20
48.9515291512823
 30
0
 41
1
 10
28.1893647971029
 20
48.9497896535519
 30
0
 41
1
 10
28.1947785048636
 20
48.9479703380569
 30
0
 41
1
  0
SPLINE
  5
68
100
AcDbEntity
  8
0
100
AcDbSpline
 70
12
 71
3
 72
8
 73
4
 40
0
 40
0
 40
0
 40
0
 40
1
 40
1
 40
1
 40
1
 10
28.1947785048636
 20
48.9479703380569
 30
0
 41
1
 10
28.2001755539422
 20
48.946156620832
 30
0
 41
1
 10
28.2055461525356
 20
48.9442635763059
 30
0
 41
1
 10
28.2108794399617
 20
48.9422697106712
 30
0
 41
1
  0
SPLINE
  5
69
100
AcDbEntity
  8
0
100
AcDbSpline
 70
12
 71
3
 72
8
 73
4
 40
0
 40
0
 40
0
 40
0
 40
1
 40
1
 40
1
 40
1
 10
28.2108794399617
 20
48.9422697106712
 30
0
 41
1
 10
28.21620334017
 20
48.9402793544763
 30
0
 41
1
 10
28.2214900604396
 20
48.9381885317745
 30
0
 41
1
 10
28.2267261711116
 20
48.9359774698158
 30
0
 41
1
  0
SPLINE
  5
70
100
AcDbEntity
  8
0
100
AcDbSpline
 70
12
 71
3
 72
8
 73
4
 40
0
 40
0
 40
0
 40
0
 40
1
 40
1
 40
1
 40
1
 10
28.2267261711116
 20
48.9359774698158
 30
0
 41
1
 10
28.2333100674264
 20
48.933197275967
 30
0
 41
1
 10
28.2398139469346
 20
48.9302269766476
 30
0
 41
1
 10
28.2462416947096
 20
48.9271018774234
 30
0
 41
1
  0
SPLINE
  5
71
100
AcDbEntity
  8
0
100
AcDbSpline
 70
12
 71
3
 72
8
 73
4
 40
0
 40
0
 40
0
 40
0
 40
1
 40
1
 40
1
 40
1
 10
28.2462416947096
 20
48.9271018774234
 30
0
 41
1
 10
28.2526883718741
 20
48.9239675749414
 30
0
 41
1
 10
28.2590584682371
 20
48.9206775594565
 30
0
 41
1
 10
28.2653619941586
 20
48.9172653576474
 30
0
 41
1
  0
SPLINE
  5
72
100
AcDbEntity
  8
0
100
AcDbSpline
 70
12
 71
3
 72
8
 73
4
 40
0
 40
0
 40
0
 40
0
 40
1
 40
1
 40
1
 40
1
 10
28.2653619941586
 20
48.9172653576474
 30
0
 41
1
 10
28.2716912983151
 20
48.9138392016575
 30
0
 41
1
 10
28.277953486438
 20
48.9102898579394
 30
0
 41
1
 10
28.2841615991372
 20
48.9066489997349
 30
0
 41
1
  0
SPLINE
  5
73
100
AcDbEntity
  8
0
100
AcDbSpline
 70
12
 71
3
 72
8
 73
4
 40
0
 40
0
 40
0
 40
0
 40
1
 40
1
 40
1
 40
1
 10
28.2841615991372
 20
48.9066489997349
 30
0
 41
1
 10
28.2903954698731
 20
48.9029930352713
 30
0
 41
1
 10
28.2965748155264
 20
48.8992447953417
 30
0
 41
1
 10
28.3027150289217
 20
48.895433897326
 30
0
 41
1
  0
SPLINE
  5
74
100
AcDbEntity
  8
0
100
AcDbSpline
 70
12
 71
3
 72
8
 73
4
 40
0
 40
0
 40
0
 40
0
 40
1
 40
1
 40
1
 40
1
 10
28.3027150289217
 20
48.895433897326
 30
0
 41
1
 10
28.3088761241893
 20
48.8916100390626
 30
0
 41
1
 10
28.3149978205813
 20
48.8877230958084
 30
0
 41
1
 10
28.3210968027884
 20
48.8838011440604
 30
0
 41
1
  0
SPLINE
  5
75
100
AcDbEntity
  8
0
100
AcDbSpline
 70
12
 71
3
 72
8
 73
4
 40
0
 40
0
 40
0
 40
0
 40
1
 40
1
 40
1
 40
1
 10
28.3210968027884
 20
48.8838011440604
 30
0
 41
1
 10
28.327208646616
 20
48.8798709216447
 30
0
 41
1
 10
28.3332976803577
 20
48.8759055429266
 30
0
 41
1
 10
28.3393814400135
 20
48.871931833578
 30
0
 41
1
  0
SPLINE
  5
76
100
AcDbEntity
  8
0
100
AcDbSpline
 70
12
 71
3
 72
8
 73
4
 40
0
 40
0
 40
0
 40
0
 40
1
 40
1
 40
1
 40
1
 10
28.3393814400135
 20
48.871931833578
 30
0
 41
1
 10
28.3515482867186
 20
48.863984854205
 30
0
 41
1
 10
28.3636940394121
 20
48.8560045559941
 30
0
 41
1
 10
28.3759573818286
 20
48.848207915405
 30
0
 41
1
  0
SPLINE
  5
77
100
AcDbEntity
  8
0
100
AcDbSpline
 70
12
 71
3
 72
8
 73
4
 40
0
 40
0
 40
0
 40
0
 40
1
 40
1
 40
1
 40
1
 10
28.3759573818286
 20
48.848207915405
 30
0
 41
1
 10
28.3820713881527
 20
48.8443208258784
 30
0
 41
1
 10
28.388214622768
 20
48.8404793865864
 30
0
 41
1
 10
28.3943819219557
 20
48.8366771547691
 30
0
 41
1
  0
SPLINE
  5
78
100
AcDbEntity
  8
0
100
AcDbSpline
 70
12
 71
3
 72
8
 73
4
 40
0
 40
0
 40
0
 40
0
 40
1
 40
1
 40
1
 40
1
 10
28.3943819219557
 20
48.8366771547691
 30
0
 41
1
 10
28.4005364381031
 20
48.8328828038865
 30
0
 41
1
 10
28.4067149191685
 20
48.8291274981153
 30
0
 41
1
 10
28.4129125868469
 20
48.8254041685979
 30
0
 41
1
  0
SPLINE
  5
79
100
AcDbEntity
  8
0
100
AcDbSpline
 70
12
 71
3
 72
8
 73
4
 40
0
 40
0
 40
0
 40
0
 40
1
 40
1
 40
1
 40
1
 10
28.4129125868469
 20
48.8254041685979
 30
0
 41
1
 10
28.4252813126128
 20
48.8179734956213
 30
0
 41
1
 10
28.4377264556749
 20
48.8106701790912
 30
0
 41
1
 10
28.4502111039354
 20
48.8034357235089
 30
0
 41
1
  0
SPLINE
  5
80
100
AcDbEntity
  8
0
100
AcDbSpline
 70
12
 71
3
 72
8
 73
4
 40
0
 40
0
 40
0
 40
0
 40
1
 40
1
 40
1
 40
1
 10
28.4502111039354
 20
48.8034357235089
 30
0
 41
1
 10
28.4751391056874
 20
48.7889907413462
 30
0
 41
1
 10
28.5002246059888
 20
48.7748202926581
 30
0
 41
1
 10
28.5251885925456
 20
48.7604383609943
 30
0
 41
1
  0
SPLINE
  5
81
100
AcDbEntity
  8
0
100
AcDbSpline
 70
12
 71
3
 72
8
 73
4
 40
0
 40
0
 40
0
 40
0
 40
1
 40
1
 40
1
 40
1
 10
28.5251885925456
 20
48.7604383609943
 30
0
 41
1
 10
28.5376789265915
 20
48.7532425899863
 30
0
 41
1
 10
28.5501388415885
 20
48.7459938775519
 30
0
 41
1
 10
28.5625787495007
 20
48.7387111386346
 30
0
 41
1
  0
SPLINE
  5
82
100
AcDbEntity
  8
0
100
AcDbSpline
 70
12
 71
3
 72
8
 73
4
 40
0
 40
0
 40
0
 40
0
 40
1
 40
1
 40
1
 40
1
 10
28.5625787495007
 20
48.7387111386346
 30
0
 41
1
 10
28.5750284109324
 20
48.7314226896802
 30
0
 41
1
 10
28.5874580338939
 20
48.7241001608652
 30
0
 41
1
 10
28.5998784471847
 20
48.7167620559347
 30
0
 41
1
  0
SPLINE
  5
83
100
AcDbEntity
  8
0
100
AcDbSpline
 70
12
 71
3
 72
8
 73
4
 40
0
 40
0
 40
0
 40
0
 40
1
 40
1
 40
1
 40
1
 10
28.5998784471847
 20
48.7167620559347
 30
0
 41
1
 10
28.6247333771022
 20
48.7020775136814
 30
0
 41
1
 10
28.6495514264951
 20
48.6873305961998
 30
0
 41
1
 10
28.6744198032626
 20
48.6726688065835
 30
0
 41
1
  0
SPLINE
  5
84
100
AcDbEntity
  8
0
100
AcDbSpline
 70
12
 71
3
 72
8
 73
4
 40
0
 40
0
 40
0
 40
0
 40
1
 40
1
 40
1
 40
1
 10
28.6744198032626
 20
48.6726688065835
 30
0
 41
1
 10
28.7241324599287
 20
48.6433594342781
 30
0
 41
1
 10
28.7740462310764
 20
48.6143902435661
 30
0
 41
1
 10
28.8236510139796
 20
48.5848992521727
 30
0
 41
1
  0
SPLINE
  5
85
100
AcDbEntity
  8
0
100
AcDbSpline
 70
12
 71
3
 72
8
 73
4
 40
0
 40
0
 40
0
 40
0
 40
1
 40
1
 40
1
 40
1
 10
28.8236510139796
 20
48.5848992521727
 30
0
 41
1
 10
28.8434462066271
 20
48.5731306318537
 30
0
 41
1
 10
28.863192193699
 20
48.5612789161312
 30
0
 41
1
 10
28.8830044974912
 20
48.5495388520211
 30
0
 41
1
  0
SPLINE
  5
86
100
AcDbEntity
  8
0
100
AcDbSpline
 70
12
 71
3
 72
8
 73
4
 40
0
 40
0
 40
0
 40
0
 40
1
 40
1
 40
1
 40
1
 10
28.8830044974912
 20
48.5495388520211
 30
0
 41
1
 10
28.892919318662
 20
48.5436636828633
 30
0
 41
1
 10
28.9028507480437
 20
48.5378164754854
 30
0
 41
1
 10
28.9128128337585
 20
48.5320216865403
 30
0
 41
1
  0
SPLINE
  5
87
100
AcDbEntity
  8
0
100
AcDbSpline
 70
12
 71
3
 72
8
 73
4
 40
0
 40
0
 40
0
 40
0
 40
1
 40
1
 40
1
 40
1
 10
28.9128128337585
 20
48.5320216865403
 30
0
 41
1
 10
28.9227894172035
 20
48.5262184644929
 30
0
 41
1
 10
28.9327967462742
 20
48.5204678135573
 30
0
 41
1
 10
28.9428476421455
 20
48.5147943800677
 30
0
 41
1
  0
SPLINE
  5
88
100
AcDbEntity
  8
0
100
AcDbSpline
 70
12
 71
3
 72
8
 73
4
 40
0
 40
0
 40
0
 40
0
 40
1
 40
1
 40
1
 40
1
 10
28.9428476421455
 20
48.5147943800677
 30
0
 41
1
 10
28.9629787861382
 20
48.5034309446114
 30
0
 41
1
 10
28.9832847066285
 20
48.4923772816087
 30
0
 41
1
 10
29.0033518443826
 20
48.4809013795814
 30
0
 41
1
  0
SPLINE
  5
89
100
AcDbEntity
  8
0
100
AcDbSpline
 70
12
 71
3
 72
8
 73
4
 40
0
 40
0
 40
0
 40
0
 40
1
 40
1
 40
1
 40
1
 10
29.0033518443826
 20
48.4809013795814
 30
0
 41
1
 10
29.0083576441064
 20
48.4780386859625
 30
0
 41
1
 10
29.0133485851922
 20
48.4751497178445
 30
0
 41
1
 10
29.0183172237066
 20
48.4722229072597
 30
0
 41
1
  0
SPLINE
  5
90
100
AcDbEntity
  8
0
100
AcDbSpline
 70
12
 71
3
 72
8
 73
4
 40
0
 40
0
 40
0
 40
0
 40
1
 40
1
 40
1
 40
1
 10
29.0183172237066
 20
48.4722229072597
 30
0
 41
1
 10
29.0232760644505
 20
48.4693018681189
 30
0
 41
1
 10
29.0282126904942
 20
48.4663431356091
 30
0
 41
1
 10
29.0331203994863
 20
48.4633366649265
 30
0
 41
1
  0
SPLINE
  5
91
100
AcDbEntity
  8
0
100
AcDbSpline
 70
12
 71
3
 72
8
 73
4
 40
0
 40
0
 40
0
 40
0
 40
1
 40
1
 40
1
 40
1
 10
29.0331203994863
 20
48.4633366649265
 30
0
 41
1
 10
29.0380171913578
 20
48.4603368820902
 30
0
 41
1
 10
29.0428851946857
 20
48.4572895732305
 30
0
 41
1
 10
29.0477124041964
 20
48.454179812016
 30
0
 41
1
  0
SPLINE
  5
92
100
AcDbEntity
  8
0
100
AcDbSpline
 70
12
 71
3
 72
8
 73
4
 40
0
 40
0
 40
0
 40
0
 40
1
 40
1
 40
1
 40
1
 10
29.0477124041964
 20
48.454179812016
 30
0
 41
1
 10
29.0525289781343
 20
48.451076902398
 30
0
 41
1
 10
29.0573049378155
 20
48.4479118153188
 30
0
 41
1
 10
29.0620442703114
 20
48.4446895079627
 30
0
 41
1
  0
SPLINE
  5
93
100
AcDbEntity
  8
0
100
AcDbSpline
 70
12
 71
3
 72
8
 73
4
 40
0
 40
0
 40
0
 40
0
 40
1
 40
1
 40
1
 40
1
 10
55.7475270527122
 20
5.31161251477621
 30
0
 41
1
 10
47.4556130719997
 20
5.53282112137448
 30
0
 41
1
 10
39.1636990912873
 20
5.75402972797274
 30
0
 41
1
 10
30.8717851105749
 20
5.97523833457101
 30
0
 41
1
  0
SPLINE
  5
94
100
AcDbEntity
  8
0
100
AcDbSpline
 70
12
 71
3
 72
8
 73
4
 40
0
 40
0
 40
0
 40
0
 40
1
 40
1
 40
1
 40
1
 10
33.0367314794795
 20
14.6362180051221
 30
0
 41
1
 10
32.1510324019937
 20
15.2437027719358
 30
0
 41
1
 10
31.2653333245079
 20
15.8511875387495
 30
0
 41
1
 10
30.3796342470222
 20
16.4586723055632
 30
0
 41
1
  0
SPLINE
  5
95
100
AcDbEntity
  8
0
100
AcDbSpline
 70
12
 71
3
 72
8
 73
4
 40
0
 40
0
 40
0
 40
0
 40
1
 40
1
 40
1
 40
1
 10
30.8453041391729
 20
9.83711742864903
 30
0
 41
1
 10
33.2280595955201
 20
9.3853483284637
 30
0
 41
1
 10
35.6108150518673
 20
8.93357922827837
 30
0
 41
1
 10
37.9935705082144
 20
8.48181012809304
 30
0
 41
1
  0
SPLINE
  5
96
100
AcDbEntity
  8
0
100
AcDbSpline
 70
12
 71
3
 72
8
 73
4
 40
0
 40
0
 40
0
 40
0
 40
1
 40
1
 40
1
 40
1
 10
29.0620442703114
 20
48.4446895079627
 30
0
 41
1
 10
29.1225549552576
 20
48.3831956860744
 30
0
 41
1
 10
29.1830656402038
 20
48.3217018641861
 30
0
 41
1
 10
29.2435763251499
 20
48.2602080422978
 30
0
 41
1
  0
SPLINE
  5
97
100
AcDbEntity
  8
0
100
AcDbSpline
 70
12
 71
3
 72
8
 73
4
 40
0
 40
0
 40
0
 40
0
 40
1
 40
1
 40
1
 40
1
 10
30.242091628541
 20
30.6429538381841
 30
0
 41
1
 10
30.2708371616326
 20
29.294842321505
 30
0
 41
1
 10
30.2995826947241
 20
27.9467308048258
 30
0
 41
1
 10
30.3283282278156
 20
26.5986192881466
 30
0
 41
1
  0
SPLINE
  5
98
100
AcDbEntity
  8
0
100
AcDbSpline
 70
12
 71
3
 72
8
 73
4
 40
0
 40
0
 40
0
 40
0
 40
1
 40
1
 40
1
 40
1
 10
30.3283282278156
 20
26.5986192881466
 30
0
 41
1
 10
30.5564091053883
 20
25.5579240035143
 30
0
 41
1
 10
30.7844899829611
 20
24.5172287188821
 30
0
 41
1
 10
31.0125708605338
 20
23.4765334342499
 30
0
 41
1
  0
SPLINE
  5
99
100
AcDbEntity
  8
0
100
AcDbSpline
 70
12
 71
3
 72
8
 73
4
 40
0
 40
0
 40
0
 40
0
 40
1
 40
1
 40
1
 40
1
 10
29.3085469634088
 20
48.0096763790853
 30
0
 41
1
 10
29.2869711989078
 20
47.9256880979112
 30
0
 41
1
 10
29.2653954344067
 20
47.841699816737
 30
0
 41
1
 10
29.2438196699057
 20
47.7577115355629
 30
0
 41
1
  0
SPLINE
  5
100
100
AcDbEntity
  8
0
100
AcDbSpline
 70
12
 71
3
 72
8
 73
4
 40
0
 40
0
 40
0
 40
0
 40
1
 40
1
 40
1
 40
1
 10
29.2435763251499
 20
48.2602080422978
 30
0
 41
1
 10
29.2652332045696
 20
48.1766974878936
 30
0
 41
1
 10
29.2868900839892
 20
48.0931869334895
 30
0
 41
1
 10
29.3085469634088
 20
48.0096763790853
 30
0
 41
1
  0
SPLINE
  5
101
100
AcDbEntity
  8
0
100
AcDbSpline
 70
12
 71
3
 72
8
 73
4
 40
0
 40
0
 40
0
 40
0
 40
1
 40
1
 40
1
 40
1
 10
30.9804542127792
 20
36.277255319244
 30
0
 41
1
 10
30.7343333513665
 20
34.3991548255574
 30
0
 41
1
 10
30.4882124899538
 20
32.5210543318708
 30
0
 41
1
 10
30.242091628541
 20
30.6429538381841
 30
0
 41
1
  0
SPLINE
  5
102
100
AcDbEntity
  8
0
100
AcDbSpline
 70
12
 71
3
 72
8
 73
4
 40
0
 40
0
 40
0
 40
0
 40
1
 40
1
 40
1
 40
1
 10
31.0125708605338
 20
23.4765334342499
 30
0
 41
1
 10
31.4216834893213
 20
22.6299694709097
 30
0
 41
1
 10
31.8307961181089
 20
21.7834055075695
 30
0
 41
1
 10
32.2399087468964
 20
20.9368415442293
 30
0
 41
1
  0
SPLINE
  5
103
100
AcDbEntity
  8
0
100
AcDbSpline
 70
12
 71
3
 72
8
 73
4
 40
0
 40
0
 40
0
 40
0
 40
1
 40
1
 40
1
 40
1
 10
33.2088684793815
 20
45.0906980908384
 30
0
 41
1
 10
32.4660637238474
 20
42.1528838336403
 30
0
 41
1
 10
31.7232589683133
 20
39.2150695764421
 30
0
 41
1
 10
30.9804542127792
 20
36.277255319244
 30
0
 41
1
  0
SPLINE
  5
104
100
AcDbEntity
  8
0
100
AcDbSpline
 70
12
 71
3
 72
8
 73
4
 40
0
 40
0
 40
0
 40
0
 40
1
 40
1
 40
1
 40
1
 10
32.2399087468964
 20
20.9368415442293
 30
0
 41
1
 10
32.8468823129368
 20
20.2187699759383
 30
0
 41
1
 10
33.4538558789772
 20
19.5006984076473
 30
0
 41
1
 10
34.0608294450176
 20
18.7826268393563
 30
0
 41
1
  0
SPLINE
  5
105
100
AcDbEntity
  8
0
100
AcDbSpline
 70
12
 71
3
 72
8
 73
4
 40
0
 40
0
 40
0
 40
0
 40
1
 40
1
 40
1
 40
1
 10
36.9854715713406
 20
12.9826239252573
 30
0
 41
1
 10
35.6692248740536
 20
13.5338219518789
 30
0
 41
1
 10
34.3529781767666
 20
14.0850199785005
 30
0
 41
1
 10
33.0367314794795
 20
14.6362180051221
 30
0
 41
1
  0
SPLINE
  5
106
100
AcDbEntity
  8
0
100
AcDbSpline
 70
12
 71
3
 72
8
 73
4
 40
0
 40
0
 40
0
 40
0
 40
1
 40
1
 40
1
 40
1
 10
31.5063988136928
 20
46.2962939531075
 30
0
 41
1
 10
31.5727811168401
 20
46.3513977002755
 30
0
 41
1
 10
31.6391634199873
 20
46.4065014474435
 30
0
 41
1
 10
31.7055457231345
 20
46.4616051946115
 30
0
 41
1
  0
SPLINE
  5
107
100
AcDbEntity
  8
0
100
AcDbSpline
 70
12
 71
3
 72
8
 73
4
 40
0
 40
0
 40
0
 40
0
 40
1
 40
1
 40
1
 40
1
 10
31.7055457231345
 20
46.4616051946115
 30
0
 41
1
 10
31.7905863576057
 20
46.4761352879291
 30
0
 41
1
 10
31.8756269920769
 20
46.4906653812467
 30
0
 41
1
 10
31.9606676265482
 20
46.5051954745644
 30
0
 41
1
  0
SPLINE
  5
108
100
AcDbEntity
  8
0
100
AcDbSpline
 70
12
 71
3
 72
8
 73
4
 40
0
 40
0
 40
0
 40
0
 40
1
 40
1
 40
1
 40
1
 10
31.9606676265482
 20
46.5051954745644
 30
0
 41
1
 10
31.9661532055073
 20
46.5039175388883
 30
0
 41
1
 10
31.9716017602487
 20
46.5025127406107
 30
0
 41
1
 10
31.9770117685105
 20
46.5009665893552
 30
0
 41
1
  0
SPLINE
  5
109
100
AcDbEntity
  8
0
100
AcDbSpline
 70
12
 71
3
 72
8
 73
4
 40
0
 40
0
 40
0
 40
0
 40
1
 40
1
 40
1
 40
1
 10
31.9770117685105
 20
46.5009665893552
 30
0
 41
1
 10
31.9824706705371
 20
46.4994064645248
 30
0
 41
1
 10
31.9878903261964
 20
46.4977024201733
 30
0
 41
1
 10
31.9932753713107
 20
46.4958985845913
 30
0
 41
1
  0
SPLINE
  5
110
100
AcDbEntity
  8
0
100
AcDbSpline
 70
12
 71
3
 72
8
 73
4
 40
0
 40
0
 40
0
 40
0
 40
1
 40
1
 40
1
 40
1
 10
31.9932753713107
 20
46.4958985845913
 30
0
 41
1
 10
31.9987101454787
 20
46.4940780912033
 30
0
 41
1
 10
32.0041096669169
 20
46.4921559549988
 30
0
 41
1
 10
32.0094808617475
 20
46.4901578637212
 30
0
 41
1
  0
SPLINE
  5
111
100
AcDbEntity
  8
0
100
AcDbSpline
 70
12
 71
3
 72
8
 73
4
 40
0
 40
0
 40
0
 40
0
 40
1
 40
1
 40
1
 40
1
 10
32.0094808617475
 20
46.4901578637212
 30
0
 41
1
 10
32.0148965233576
 20
46.4881432307454
 30
0
 41
1
 10
32.0202833874009
 20
46.4860513798646
 30
0
 41
1
 10
32.02565066662
 20
46.4839108301934
 30
0
 41
1
  0
SPLINE
  5
112
100
AcDbEntity
  8
0
100
AcDbSpline
 70
12
 71
3
 72
8
 73
4
 40
0
 40
0
 40
0
 40
0
 40
1
 40
1
 40
1
 40
1
 10
32.02565066662
 20
46.4839108301934
 30
0
 41
1
 10
32.047345422902
 20
46.4752586432042
 30
0
 41
1
 10
32.0687202006447
 20
46.4658108111972
 30
0
 41
1
 10
32.0904215703114
 20
46.4571876369362
 30
0
 41
1
  0
SPLINE
  5
113
100
AcDbEntity
  8
0
100
AcDbSpline
 70
12
 71
3
 72
8
 73
4
 40
0
 40
0
 40
0
 40
0
 40
1
 40
1
 40
1
 40
1
 10
32.0904215703114
 20
46.4571876369362
 30
0
 41
1
 10
32.1119206026857
 20
46.4486448626573
 30
0
 41
1
 10
32.1337401652779
 20
46.4409114400728
 30
0
 41
1
 10
32.1553418180518
 20
46.4326185586944
 30
0
 41
1
  0
SPLINE
  5
114
100
AcDbEntity
  8
0
100
AcDbSpline
 70
12
 71
3
 72
8
 73
4
 40
0
 40
0
 40
0
 40
0
 40
1
 40
1
 40
1
 40
1
 10
32.1553418180518
 20
46.4326185586944
 30
0
 41
1
 10
32.1606956962723
 20
46.4305632031408
 30
0
 41
1
 10
32.1660361888321
 20
46.4284734814183
 30
0
 41
1
 10
32.1713539860145
 20
46.4263268674664
 30
0
 41
1
  0
SPLINE
  5
115
100
AcDbEntity
  8
0
100
AcDbSpline
 70
12
 71
3
 72
8
 73
4
 40
0
 40
0
 40
0
 40
0
 40
1
 40
1
 40
1
 40
1
 10
32.1713539860145
 20
46.4263268674664
 30
0
 41
1
 10
32.1766522610761
 20
46.4241881339311
 30
0
 41
1
 10
32.1819280070881
 20
46.4219929251129
 30
0
 41
1
 10
32.1871703159289
 20
46.4197200909244
 30
0
 41
1
  0
SPLINE
  5
116
100
AcDbEntity
  8
0
100
AcDbSpline
 70
12
 71
3
 72
8
 73
4
 40
0
 40
0
 40
0
 40
0
 40
1
 40
1
 40
1
 40
1
 10
32.1871703159289
 20
46.4197200909244
 30
0
 41
1
 10
32.192396497134
 20
46.4174542489684
 30
0
 41
1
 10
32.1975894465862
 20
46.4151112585266
 30
0
 41
1
 10
32.202736467759
 20
46.4126705706681
 30
0
 41
1
  0
SPLINE
  5
117
100
AcDbEntity
  8
0
100
AcDbSpline
 70
12
 71
3
 72
8
 73
4
 40
0
 40
0
 40
0
 40
0
 40
1
 40
1
 40
1
 40
1
 10
32.202736467759
 20
46.4126705706681
 30
0
 41
1
 10
32.207874486569
 20
46.4102341516783
 30
0
 41
1
 10
32.2129667376204
 20
46.4077003767269
 30
0
 41
1
 10
32.217998090764
 20
46.4050506539345
 30
0
 41
1
  0
SPLINE
  5
118
100
AcDbEntity
  8
0
100
AcDbSpline
 70
12
 71
3
 72
8
 73
4
 40
0
 40
0
 40
0
 40
0
 40
1
 40
1
 40
1
 40
1
 10
32.217998090764
 20
46.4050506539345
 30
0
 41
1
 10
32.2242691237881
 20
46.4017480634263
 30
0
 41
1
 10
32.2304455524974
 20
46.3982653490602
 30
0
 41
1
 10
32.236534208421
 20
46.3946368460434
 30
0
 41
1
  0
SPLINE
  5
119
100
AcDbEntity
  8
0
100
AcDbSpline
 70
12
 71
3
 72
8
 73
4
 40
0
 40
0
 40
0
 40
0
 40
1
 40
1
 40
1
 40
1
 10
32.236534208421
 20
46.3946368460434
 30
0
 41
1
 10
32.2426407841786
 20
46.3909976637941
 30
0
 41
1
 10
32.2486590697332
 20
46.3872118334751
 30
0
 41
1
 10
32.2546017168782
 20
46.3833114356227
 30
0
 41
1
  0
SPLINE
  5
120
100
AcDbEntity
  8
0
100
AcDbSpline
 70
12
 71
3
 72
8
 73
4
 40
0
 40
0
 40
0
 40
0
 40
1
 40
1
 40
1
 40
1
 10
32.2546017168782
 20
46.3833114356227
 30
0
 41
1
 10
32.2605685572583
 20
46.379395158779
 30
0
 41
1
 10
32.266459142109
 20
46.3753633796665
 30
0
 41
1
 10
32.2722889319402
 20
46.3712461126595
 30
0
 41
1
  0
SPLINE
  5
121
100
AcDbEntity
  8
0
100
AcDbSpline
 70
12
 71
3
 72
8
 73
4
 40
0
 40
0
 40
0
 40
0
 40
1
 40
1
 40
1
 40
1
 10
32.2722889319402
 20
46.3712461126595
 30
0
 41
1
 10
32.2781427757974
 20
46.3671118575878
 30
0
 41
1
 10
32.2839353219132
 20
46.3628914077109
 30
0
 41
1
 10
32.2896841587069
 20
46.3586125727784
 30
0
 41
1
  0
SPLINE
  5
122
100
AcDbEntity
  8
0
100
AcDbSpline
 70
12
 71
3
 72
8
 73
4
 40
0
 40
0
 40
0
 40
0
 40
1
 40
1
 40
1
 40
1
 10
32.2896841587069
 20
46.3586125727784
 30
0
 41
1
 10
32.2954524368972
 20
46.3543192676966
 30
0
 41
1
 10
32.3011767096335
 20
46.3499671819985
 30
0
 41
1
 10
32.3068757022783
 20
46.3455825116039
 30
0
 41
1
  0
SPLINE
  5
123
100
AcDbEntity
  8
0
100
AcDbSpline
 70
12
 71
3
 72
8
 73
4
 40
0
 40
0
 40
0
 40
0
 40
1
 40
1
 40
1
 40
1
 10
32.3068757022783
 20
46.3455825116039
 30
0
 41
1
 10
32.3125866587925
 20
46.3411886364907
 30
0
 41
1
 10
32.318272228963
 20
46.3367620397275
 30
0
 41
1
 10
32.3239518677545
 20
46.3323276247605
 30
0
 41
1
  0
SPLINE
  5
124
100
AcDbEntity
  8
0
100
AcDbSpline
 70
12
 71
3
 72
8
 73
4
 40
0
 40
0
 40
0
 40
0
 40
1
 40
1
 40
1
 40
1
 10
32.3239518677545
 20
46.3323276247605
 30
0
 41
1
 10
32.3353106342518
 20
46.32345919386
 30
0
 41
1
 10
32.3466456773676
 20
46.3145594929584
 30
0
 41
1
 10
32.3581112850286
 20
46.3058301564073
 30
0
 41
1
  0
SPLINE
  5
125
100
AcDbEntity
  8
0
100
AcDbSpline
 70
12
 71
3
 72
8
 73
4
 40
0
 40
0
 40
0
 40
0
 40
1
 40
1
 40
1
 40
1
 10
32.3581112850286
 20
46.3058301564073
 30
0
 41
1
 10
32.3638277409788
 20
46.3014779345849
 30
0
 41
1
 10
32.3695766521694
 20
46.2971680612877
 30
0
 41
1
 10
32.3753524544629
 20
46.2928946838155
 30
0
 41
1
  0
SPLINE
  5
126
100
AcDbEntity
  8
0
100
AcDbSpline
 70
12
 71
3
 72
8
 73
4
 40
0
 40
0
 40
0
 40
0
 40
1
 40
1
 40
1
 40
1
 10
32.3753524544629
 20
46.2928946838155
 30
0
 41
1
 10
32.3811163735028
 20
46.2886300984774
 30
0
 41
1
 10
32.386907073107
 20
46.2844018589443
 30
0
 41
1
 10
32.3927193135145
 20
46.2802034720085
 30
0
 41
1
  0
SPLINE
  5
127
100
AcDbEntity
  8
0
100
AcDbSpline
 70
12
 71
3
 72
8
 73
4
 40
0
 40
0
 40
0
 40
0
 40
1
 40
1
 40
1
 40
1
 10
32.3927193135145
 20
46.2802034720085
 30
0
 41
1
 10
32.4043189229053
 20
46.2718246636468
 30
0
 41
1
 10
32.4160043271992
 20
46.2635647552466
 30
0
 41
1
 10
32.4277347086627
 20
46.2553698301632
 30
0
 41
1
  0
SPLINE
  5
128
100
AcDbEntity
  8
0
100
AcDbSpline
 70
12
 71
3
 72
8
 73
4
 40
0
 40
0
 40
0
 40
0
 40
1
 40
1
 40
1
 40
1
 10
32.4277347086627
 20
46.2553698301632
 30
0
 41
1
 10
32.4511559900312
 20
46.2390075620843
 30
0
 41
1
 10
32.4747565750593
 20
46.2229043531376
 30
0
 41
1
 10
32.4982244792931
 20
46.20660965888
 30
0
 41
1
  0
SPLINE
  5
129
100
AcDbEntity
  8
0
100
AcDbSpline
 70
12
 71
3
 72
8
 73
4
 40
0
 40
0
 40
0
 40
0
 40
1
 40
1
 40
1
 40
1
 10
32.4982244792931
 20
46.20660965888
 30
0
 41
1
 10
32.5108621921989
 20
46.1978347948844
 30
0
 41
1
 10
32.5234614285285
 20
46.1890044013816
 30
0
 41
1
 10
32.5360355384877
 20
46.1801385141665
 30
0
 41
1
  0
SPLINE
  5
130
100
AcDbEntity
  8
0
100
AcDbSpline
 70
12
 71
3
 72
8
 73
4
 40
0
 40
0
 40
0
 40
0
 40
1
 40
1
 40
1
 40
1
 10
32.5360355384877
 20
46.1801385141665
 30
0
 41
1
 10
32.548619821379
 20
46.1712654541123
 30
0
 41
1
 10
32.5611789372271
 20
46.1623568428912
 30
0
 41
1
 10
32.5737266601515
 20
46.1534322305018
 30
0
 41
1
  0
SPLINE
  5
131
100
AcDbEntity
  8
0
100
AcDbSpline
 70
12
 71
3
 72
8
 73
4
 40
0
 40
0
 40
0
 40
0
 40
1
 40
1
 40
1
 40
1
 10
32.5737266601515
 20
46.1534322305018
 30
0
 41
1
 10
32.5988377029514
 20
46.1355719123363
 30
0
 41
1
 10
32.6239031173929
 20
46.1176475099144
 30
0
 41
1
 10
32.6490337924365
 20
46.0998147552283
 30
0
 41
1
  0
SPLINE
  5
132
100
AcDbEntity
  8
0
100
AcDbSpline
 70
12
 71
3
 72
8
 73
4
 40
0
 40
0
 40
0
 40
0
 40
1
 40
1
 40
1
 40
1
 10
32.6490337924365
 20
46.0998147552283
 30
0
 41
1
 10
32.699269117816
 20
46.0641677130173
 30
0
 41
1
 10
32.7497652153446
 20
46.0288868822152
 30
0
 41
1
 10
32.7998431055799
 20
45.9930198515765
 30
0
 41
1
  0
SPLINE
  5
133
100
AcDbEntity
  8
0
100
AcDbSpline
 70
12
 71
3
 72
8
 73
4
 40
0
 40
0
 40
0
 40
0
 40
1
 40
1
 40
1
 40
1
 10
32.7998431055799
 20
45.9930198515765
 30
0
 41
1
 10
32.8220344540431
 20
45.977125855813
 30
0
 41
1
 10
32.8441436791028
 20
45.961116747935
 30
0
 41
1
 10
32.8663579399904
 20
45.9452543774427
 30
0
 41
1
  0
SPLINE
  5
134
100
AcDbEntity
  8
0
100
AcDbSpline
 70
12
 71
3
 72
8
 73
4
 40
0
 40
0
 40
0
 40
0
 40
1
 40
1
 40
1
 40
1
 10
32.8663579399904
 20
45.9452543774427
 30
0
 41
1
 10
32.8774783239248
 20
45.937313728376
 30
0
 41
1
 10
32.8886250295202
 20
45.9294098512546
 30
0
 41
1
 10
32.8998208089703
 20
45.921575684197
 30
0
 41
1
  0
SPLINE
  5
135
100
AcDbEntity
  8
0
100
AcDbSpline
 70
12
 71
3
 72
8
 73
4
 40
0
 40
0
 40
0
 40
0
 40
1
 40
1
 40
1
 40
1
 10
32.8998208089703
 20
45.921575684197
 30
0
 41
1
 10
32.911039594347
 20
45.9137254189058
 30
0
 41
1
 10
32.9223076554669
 20
45.9059451504637
 30
0
 41
1
 10
32.9336456424077
 20
45.8982682163423
 30
0
 41
1
  0
SPLINE
  5
136
100
AcDbEntity
  8
0
100
AcDbSpline
 70
12
 71
3
 72
8
 73
4
 40
0
 40
0
 40
0
 40
0
 40
1
 40
1
 40
1
 40
1
 10
32.9336456424077
 20
45.8982682163423
 30
0
 41
1
 10
32.9563688523294
 20
45.8828823646467
 30
0
 41
1
 10
32.9793729320413
 20
45.8679115740627
 30
0
 41
1
 10
33.0019947638745
 20
45.8523773038629
 30
0
 41
1
  0
SPLINE
  5
137
100
AcDbEntity
  8
0
100
AcDbSpline
 70
12
 71
3
 72
8
 73
4
 40
0
 40
0
 40
0
 40
0
 40
1
 40
1
 40
1
 40
1
 10
33.0019947638745
 20
45.8523773038629
 30
0
 41
1
 10
33.0076327976927
 20
45.8485057013608
 30
0
 41
1
 10
33.013247088002
 20
45.8445990980546
 30
0
 41
1
 10
33.0188256258994
 20
45.8406421183423
 30
0
 41
1
  0
SPLINE
  5
138
100
AcDbEntity
  8
0
100
AcDbSpline
 70
12
 71
3
 72
8
 73
4
 40
0
 40
0
 40
0
 40
0
 40
1
 40
1
 40
1
 40
1
 10
33.0188256258994
 20
45.8406421183423
 30
0
 41
1
 10
33.0243886068829
 20
45.8366961734915
 30
0
 41
1
 10
33.0299160345823
 20
45.8327001328131
 30
0
 41
1
 10
33.0353970908017
 20
45.8286406904969
 30
0
 41
1
  0
SPLINE
  5
139
100
AcDbEntity
  8
0
100
AcDbSpline
 70
12
 71
3
 72
8
 73
4
 40
0
 40
0
 40
0
 40
0
 40
1
 40
1
 40
1
 40
1
 10
33.0353970908017
 20
45.8286406904969
 30
0
 41
1
 10
33.0408608659493
 20
45.824594047085
 30
0
 41
1
 10
33.0462785615626
 20
45.8204844011996
 30
0
 41
1
 10
33.0516307436854
 20
45.8162923906465
 30
0
 41
1
  0
SPLINE
  5
140
100
AcDbEntity
  8
0
100
AcDbSpline
 70
12
 71
3
 72
8
 73
4
 40
0
 40
0
 40
0
 40
0
 40
1
 40
1
 40
1
 40
1
 10
33.0516307436854
 20
45.8162923906465
 30
0
 41
1
 10
33.0569661782601
 20
45.812113497341
 30
0
 41
1
 10
33.0622365087002
 20
45.8078527540169
 30
0
 41
1
 10
33.0674481792355
 20
45.803516581108
 30
0
 41
1
  0
SPLINE
  5
141
100
AcDbEntity
  8
0
100
AcDbSpline
 70
12
 71
3
 72
8
 73
4
 40
0
 40
0
 40
0
 40
0
 40
1
 40
1
 40
1
 40
1
 10
34.0608294450176
 20
18.7826268393563
 30
0
 41
1
 10
34.9187830445897
 20
18.1509756831385
 30
0
 41
1
 10
35.7767366441618
 20
17.5193245269207
 30
0
 41
1
 10
36.6346902437339
 20
16.8876733707028
 30
0
 41
1
  0
SPLINE
  5
142
100
AcDbEntity
  8
0
100
AcDbSpline
 70
12
 71
3
 72
8
 73
4
 40
0
 40
0
 40
0
 40
0
 40
1
 40
1
 40
1
 40
1
 10
33.0674481792355
 20
45.803516581108
 30
0
 41
1
 10
33.1287488827837
 20
45.7216645103799
 30
0
 41
1
 10
33.1900495863319
 20
45.6398124396519
 30
0
 41
1
 10
33.2513502898801
 20
45.5579603689238
 30
0
 41
1
  0
SPLINE
  5
143
100
AcDbEntity
  8
0
100
AcDbSpline
 70
12
 71
3
 72
8
 73
4
 40
0
 40
0
 40
0
 40
0
 40
1
 40
1
 40
1
 40
1
 10
33.2513502898801
 20
45.5579603689238
 30
0
 41
1
 10
33.2371896863806
 20
45.4022062762287
 30
0
 41
1
 10
33.2230290828811
 20
45.2464521835336
 30
0
 41
1
 10
33.2088684793815
 20
45.0906980908384
 30
0
 41
1
  0
SPLINE
  5
144
100
AcDbEntity
  8
0
100
AcDbSpline
 70
12
 71
3
 72
8
 73
4
 40
0
 40
0
 40
0
 40
0
 40
1
 40
1
 40
1
 40
1
 10
34.4190717649922
 20
28.953643094306
 30
0
 41
1
 10
34.3170468209344
 20
30.1332645429636
 30
0
 41
1
 10
34.2150218768767
 20
31.3128859916211
 30
0
 41
1
 10
34.1129969328189
 20
32.4925074402787
 30
0
 41
1
  0
SPLINE
  5
145
100
AcDbEntity
  8
0
100
AcDbSpline
 70
12
 71
3
 72
8
 73
4
 40
0
 40
0
 40
0
 40
0
 40
1
 40
1
 40
1
 40
1
 10
34.1129969328189
 20
32.4925074402787
 30
0
 41
1
 10
34.2022341065773
 20
34.012375927155
 30
0
 41
1
 10
34.2914712803357
 20
35.5322444140314
 30
0
 41
1
 10
34.3807084540941
 20
37.0521129009078
 30
0
 41
1
  0
SPLINE
  5
146
100
AcDbEntity
  8
0
100
AcDbSpline
 70
12
 71
3
 72
8
 73
4
 40
0
 40
0
 40
0
 40
0
 40
1
 40
1
 40
1
 40
1
 10
35.1951798137829
 20
26.0767580255806
 30
0
 41
1
 10
34.9364771308527
 20
27.0357197151557
 30
0
 41
1
 10
34.6777744479224
 20
27.9946814047309
 30
0
 41
1
 10
34.4190717649922
 20
28.953643094306
 30
0
 41
1
  0
SPLINE
  5
147
100
AcDbEntity
  8
0
100
AcDbSpline
 70
12
 71
3
 72
8
 73
4
 40
0
 40
0
 40
0
 40
0
 40
1
 40
1
 40
1
 40
1
 10
34.3807084540941
 20
37.0521129009078
 30
0
 41
1
 10
34.7493426390809
 20
39.1417088402203
 30
0
 41
1
 10
35.1179768240676
 20
41.2313047795328
 30
0
 41
1
 10
35.4866110090544
 20
43.3209007188454
 30
0
 41
1
  0
SPLINE
  5
148
100
AcDbEntity
  8
0
100
AcDbSpline
 70
12
 71
3
 72
8
 73
4
 40
0
 40
0
 40
0
 40
0
 40
1
 40
1
 40
1
 40
1
 10
36.4210723351536
 20
23.6521209268446
 30
0
 41
1
 10
36.0124414946967
 20
24.4603332930899
 30
0
 41
1
 10
35.6038106542398
 20
25.2685456593352
 30
0
 41
1
 10
35.1951798137829
 20
26.0767580255806
 30
0
 41
1
  0
SPLINE
  5
149
100
AcDbEntity
  8
0
100
AcDbSpline
 70
12
 71
3
 72
8
 73
4
 40
0
 40
0
 40
0
 40
0
 40
1
 40
1
 40
1
 40
1
 10
36.6346902437339
 20
16.8876733707028
 30
0
 41
1
 10
37.8545595345588
 20
16.3130866667336
 30
0
 41
1
 10
39.0744288253837
 20
15.7384999627645
 30
0
 41
1
 10
40.2942981162086
 20
15.1639132587953
 30
0
 41
1
  0
SPLINE
  5
150
100
AcDbEntity
  8
0
100
AcDbSpline
 70
12
 71
3
 72
8
 73
4
 40
0
 40
0
 40
0
 40
0
 40
1
 40
1
 40
1
 40
1
 10
38.1374731342216
 20
21.5460236281714
 30
0
 41
1
 10
37.5653395345323
 20
22.2480560610624
 30
0
 41
1
 10
36.993205934843
 20
22.9500884939535
 30
0
 41
1
 10
36.4210723351536
 20
23.6521209268446
 30
0
 41
1
  0
SPLINE
  5
151
100
AcDbEntity
  8
0
100
AcDbSpline
 70
12
 71
3
 72
8
 73
4
 40
0
 40
0
 40
0
 40
0
 40
1
 40
1
 40
1
 40
1
 10
43.2844248916811
 20
11.4276946026321
 30
0
 41
1
 10
41.184773784901
 20
11.9460043768405
 30
0
 41
1
 10
39.0851226781208
 20
12.4643141510489
 30
0
 41
1
 10
36.9854715713406
 20
12.9826239252573
 30
0
 41
1
  0
SPLINE
  5
152
100
AcDbEntity
  8
0
100
AcDbSpline
 70
12
 71
3
 72
8
 73
4
 40
0
 40
0
 40
0
 40
0
 40
1
 40
1
 40
1
 40
1
 10
35.4866110090544
 20
43.3209007188454
 30
0
 41
1
 10
35.557715242389
 20
43.3697599157789
 30
0
 41
1
 10
35.6288194757236
 20
43.4186191127124
 30
0
 41
1
 10
35.6999237090581
 20
43.467478309646
 30
0
 41
1
  0
SPLINE
  5
153
100
AcDbEntity
  8
0
100
AcDbSpline
 70
12
 71
3
 72
8
 73
4
 40
0
 40
0
 40
0
 40
0
 40
1
 40
1
 40
1
 40
1
 10
35.6999237090581
 20
43.467478309646
 30
0
 41
1
 10
35.7859313799092
 20
43.4742394987316
 30
0
 41
1
 10
35.8719390507604
 20
43.4810006878173
 30
0
 41
1
 10
35.9579467216115
 20
43.487761876903
 30
0
 41
1
  0
SPLINE
  5
154
100
AcDbEntity
  8
0
100
AcDbSpline
 70
12
 71
3
 72
8
 73
4
 40
0
 40
0
 40
0
 40
0
 40
1
 40
1
 40
1
 40
1
 10
35.9579467216115
 20
43.487761876903
 30
0
 41
1
 10
35.9641670247673
 20
43.4859017743104
 30
0
 41
1
 10
35.9703296084361
 20
43.4838840901816
 30
0
 41
1
 10
35.9764330520748
 20
43.4816940772436
 30
0
 41
1
  0
SPLINE
  5
155
100
AcDbEntity
  8
0
100
AcDbSpline
 70
12
 71
3
 72
8
 73
4
 40
0
 40
0
 40
0
 40
0
 40
1
 40
1
 40
1
 40
1
 10
35.9764330520748
 20
43.4816940772436
 30
0
 41
1
 10
35.9825909421407
 20
43.479484528059
 30
0
 41
1
 10
35.9886886323402
 20
43.4770995617964
 30
0
 41
1
 10
35.9947304478893
 20
43.4745840803946
 30
0
 41
1
  0
SPLINE
  5
156
100
AcDbEntity
  8
0
100
AcDbSpline
 70
12
 71
3
 72
8
 73
4
 40
0
 40
0
 40
0
 40
0
 40
1
 40
1
 40
1
 40
1
 10
35.9947304478893
 20
43.4745840803946
 30
0
 41
1
 10
36.0008281340202
 20
43.4720453375396
 30
0
 41
1
 10
36.0068689073415
 20
43.469373654555
 30
0
 41
1
 10
36.0128599683215
 20
43.4665948979181
 30
0
 41
1
  0
SPLINE
  5
157
100
AcDbEntity
  8
0
100
AcDbSpline
 70
12
 71
3
 72
8
 73
4
 40
0
 40
0
 40
0
 40
0
 40
1
 40
1
 40
1
 40
1
 10
36.0128599683215
 20
43.4665948979181
 30
0
 41
1
 10
36.0189016004335
 20
43.4637926855245
 30
0
 41
1
 10
36.0248926774085
 20
43.460881584211
 30
0
 41
1
 10
36.0308426726376
 20
43.4578895413763
 30
0
 41
1
  0
SPLINE
  5
158
100
AcDbEntity
  8
0
100
AcDbSpline
 70
12
 71
3
 72
8
 73
4
 40
0
 40
0
 40
0
 40
0
 40
1
 40
1
 40
1
 40
1
 10
36.0308426726376
 20
43.4578895413763
 30
0
 41
1
 10
36.0368330006192
 20
43.4548772166223
 30
0
 41
1
 10
36.0427816880121
 20
43.4517828492844
 30
0
 41
1
 10
36.0486996201043
 20
43.448631022331
 30
0
 41
1
  0
SPLINE
  5
159
100
AcDbEntity
  8
0
100
AcDbSpline
 70
12
 71
3
 72
8
 73
4
 40
0
 40
0
 40
0
 40
0
 40
1
 40
1
 40
1
 40
1
 10
36.0486996201043
 20
43.448631022331
 30
0
 41
1
 10
36.0546441752534
 20
43.445465016224
 30
0
 41
1
 10
36.0605576977612
 20
43.4422410323504
 30
0
 41
1
 10
36.0664518699877
 20
43.4389823523445
 30
0
 41
1
  0
SPLINE
  5
160
100
AcDbEntity
  8
0
100
AcDbSpline
 70
12
 71
3
 72
8
 73
4
 40
0
 40
0
 40
0
 40
0
 40
1
 40
1
 40
1
 40
1
 10
36.0664518699877
 20
43.4389823523445
 30
0
 41
1
 10
36.0782546760589
 20
43.4324569970137
 30
0
 41
1
 10
36.0899798909818
 20
43.4257925164303
 30
0
 41
1
 10
36.1017265301975
 20
43.4191665966988
 30
0
 41
1
  0
SPLINE
  5
161
100
AcDbEntity
  8
0
100
AcDbSpline
 70
12
 71
3
 72
8
 73
4
 40
0
 40
0
 40
0
 40
0
 40
1
 40
1
 40
1
 40
1
 10
36.1017265301975
 20
43.4191665966988
 30
0
 41
1
 10
36.1133073615574
 20
43.412634204105
 30
0
 41
1
 10
36.1249090166562
 20
43.4061392914466
 30
0
 41
1
 10
36.1364803374471
 20
43.3995897688626
 30
0
 41
1
  0
SPLINE
  5
162
100
AcDbEntity
  8
0
100
AcDbSpline
 70
12
 71
3
 72
8
 73
4
 40
0
 40
0
 40
0
 40
0
 40
1
 40
1
 40
1
 40
1
 10
36.1364803374471
 20
43.3995897688626
 30
0
 41
1
 10
36.1479671071262
 20
43.3930881033405
 30
0
 41
1
 10
36.1594239841805
 20
43.3865326230416
 30
0
 41
1
 10
36.1707950348902
 20
43.3798308744441
 30
0
 41
1
  0
SPLINE
  5
163
100
AcDbEntity
  8
0
100
AcDbSpline
 70
12
 71
3
 72
8
 73
4
 40
0
 40
0
 40
0
 40
0
 40
1
 40
1
 40
1
 40
1
 10
36.1707950348902
 20
43.3798308744441
 30
0
 41
1
 10
36.1764543413053
 20
43.3764954527845
 30
0
 41
1
 10
36.182092388573
 20
43.3731238005325
 30
0
 41
1
 10
36.1877015549841
 20
43.3697046326291
 30
0
 41
1
  0
SPLINE
  5
164
100
AcDbEntity
  8
0
100
AcDbSpline
 70
12
 71
3
 72
8
 73
4
 40
0
 40
0
 40
0
 40
0
 40
1
 40
1
 40
1
 40
1
 10
36.1877015549841
 20
43.3697046326291
 30
0
 41
1
 10
36.1932974575562
 20
43.3662935499365
 30
0
 41
1
 10
36.1988646156977
 20
43.3628351760447
 30
0
 41
1
 10
36.2043949059114
 20
43.3593186487842
 30
0
 41
1
  0
SPLINE
  5
165
100
AcDbEntity
  8
0
100
AcDbSpline
 70
12
 71
3
 72
8
 73
4
 40
0
 40
0
 40
0
 40
0
 40
1
 40
1
 40
1
 40
1
 10
36.2043949059114
 20
43.3593186487842
 30
0
 41
1
 10
36.2099164763925
 20
43.3558076661112
 30
0
 41
1
 10
36.2154012951152
 20
43.3522387133084
 30
0
 41
1
 10
36.220840625111
 20
43.34860151369
 30
0
 41
1
  0
SPLINE
  5
166
100
AcDbEntity
  8
0
100
AcDbSpline
 70
12
 71
3
 72
8
 73
4
 40
0
 40
0
 40
0
 40
0
 40
1
 40
1
 40
1
 40
1
 10
36.220840625111
 20
43.34860151369
 30
0
 41
1
 10
36.2262770727181
 20
43.3449662414823
 30
0
 41
1
 10
36.2316680797959
 20
43.3412627947699
 30
0
 41
1
 10
36.2370042500217
 20
43.3374818181268
 30
0
 41
1
  0
SPLINE
  5
167
100
AcDbEntity
  8
0
100
AcDbSpline
 70
12
 71
3
 72
8
 73
4
 40
0
 40
0
 40
0
 40
0
 40
1
 40
1
 40
1
 40
1
 10
36.2370042500217
 20
43.3374818181268
 30
0
 41
1
 10
36.2442562922212
 20
43.3323433384662
 30
0
 41
1
 10
36.2514070520611
 20
43.3270616628701
 30
0
 41
1
 10
36.2584683022698
 20
43.3216636386839
 30
0
 41
1
  0
SPLINE
  5
168
100
AcDbEntity
  8
0
100
AcDbSpline
 70
12
 71
3
 72
8
 73
4
 40
0
 40
0
 40
0
 40
0
 40
1
 40
1
 40
1
 40
1
 10
36.2584683022698
 20
43.3216636386839
 30
0
 41
1
 10
36.265544256843
 20
43.3162543736392
 30
0
 41
1
 10
36.2725303286066
 20
43.3107282749308
 30
0
 41
1
 10
36.2794413409742
 20
43.3051102126164
 30
0
 41
1
  0
SPLINE
  5
169
100
AcDbEntity
  8
0
100
AcDbSpline
 70
12
 71
3
 72
8
 73
4
 40
0
 40
0
 40
0
 40
0
 40
1
 40
1
 40
1
 40
1
 10
36.2794413409742
 20
43.3051102126164
 30
0
 41
1
 10
36.2863695464463
 20
43.2994781737776
 30
0
 41
1
 10
36.2932223185947
 20
43.2937537131927
 30
0
 41
1
 10
36.3000159943635
 20
43.2879601600603
 30
0
 41
1
  0
SPLINE
  5
170
100
AcDbEntity
  8
0
100
AcDbSpline
 70
12
 71
3
 72
8
 73
4
 40
0
 40
0
 40
0
 40
0
 40
1
 40
1
 40
1
 40
1
 10
36.3000159943635
 20
43.2879601600603
 30
0
 41
1
 10
36.3068258964683
 20
43.282152769332
 30
0
 41
1
 10
36.3135764195592
 20
43.2762759556143
 30
0
 41
1
 10
36.3202848906663
 20
43.2703521011517
 30
0
 41
1
  0
SPLINE
  5
171
100
AcDbEntity
  8
0
100
AcDbSpline
 70
12
 71
3
 72
8
 73
4
 40
0
 40
0
 40
0
 40
0
 40
1
 40
1
 40
1
 40
1
 10
36.3202848906663
 20
43.2703521011517
 30
0
 41
1
 10
36.3471930760851
 20
43.2465910724865
 30
0
 41
1
 10
36.3734246985635
 20
43.2220732180587
 30
0
 41
1
 10
36.4001554696445
 20
43.1981122046632
 30
0
 41
1
  0
SPLINE
  5
172
100
AcDbEntity
  8
0
100
AcDbSpline
 70
12
 71
3
 72
8
 73
4
 40
0
 40
0
 40
0
 40
0
 40
1
 40
1
 40
1
 40
1
 10
36.4001554696445
 20
43.1981122046632
 30
0
 41
1
 10
36.4068293725248
 20
43.1921298304238
 30
0
 41
1
 10
36.4135343901791
 20
43.186182167256
 30
0
 41
1
 10
36.4202653308822
 20
43.1802640292935
 30
0
 41
1
  0
SPLINE
  5
173
100
AcDbEntity
  8
0
100
AcDbSpline
 70
12
 71
3
 72
8
 73
4
 40
0
 40
0
 40
0
 40
0
 40
1
 40
1
 40
1
 40
1
 10
36.4202653308822
 20
43.1802640292935
 30
0
 41
1
 10
36.4269884376929
 20
43.1743527792322
 30
0
 41
1
 10
36.4337374072457
 20
43.1684709856897
 30
0
 41
1
 10
36.4405071664197
 20
43.1626132475912
 30
0
 41
1
  0
SPLINE
  5
174
100
AcDbEntity
  8
0
100
AcDbSpline
 70
12
 71
3
 72
8
 73
4
 40
0
 40
0
 40
0
 40
0
 40
1
 40
1
 40
1
 40
1
 10
36.4405071664197
 20
43.1626132475912
 30
0
 41
1
 10
36.454030123021
 20
43.1509121019445
 30
0
 41
1
 10
36.4676360347902
 20
43.139306942818
 30
0
 41
1
 10
36.4812851209671
 20
43.1277530629013
 30
0
 41
1
  0
SPLINE
  5
175
100
AcDbEntity
  8
0
100
AcDbSpline
 70
12
 71
3
 72
8
 73
4
 40
0
 40
0
 40
0
 40
0
 40
1
 40
1
 40
1
 40
1
 10
36.4812851209671
 20
43.1277530629013
 30
0
 41
1
 10
36.5085568255802
 20
43.1046677078715
 30
0
 41
1
 10
36.5360008930985
 20
43.0817870721194
 30
0
 41
1
 10
36.5633066892673
 20
43.0587425911996
 30
0
 41
1
  0
SPLINE
  5
176
100
AcDbEntity
  8
0
100
AcDbSpline
 70
12
 71
3
 72
8
 73
4
 40
0
 40
0
 40
0
 40
0
 40
1
 40
1
 40
1
 40
1
 10
36.5633066892673
 20
43.0587425911996
 30
0
 41
1
 10
36.5903387252199
 20
43.0359291477504
 30
0
 41
1
 10
36.6172352484638
 20
43.0129551279957
 30
0
 41
1
 10
36.6440967524762
 20
42.9899406085689
 30
0
 41
1
  0
SPLINE
  5
177
100
AcDbEntity
  8
0
100
AcDbSpline
 70
12
 71
3
 72
8
 73
4
 40
0
 40
0
 40
0
 40
0
 40
1
 40
1
 40
1
 40
1
 10
36.6440967524762
 20
42.9899406085689
 30
0
 41
1
 10
36.6709747005673
 20
42.9669120001108
 30
0
 41
1
 10
36.6978175865376
 20
42.9438428423794
 30
0
 41
1
 10
36.7247270292242
 20
42.9208515571211
 30
0
 41
1
  0
SPLINE
  5
178
100
AcDbEntity
  8
0
100
AcDbSpline
 70
12
 71
3
 72
8
 73
4
 40
0
 40
0
 40
0
 40
0
 40
1
 40
1
 40
1
 40
1
 10
36.7247270292242
 20
42.9208515571211
 30
0
 41
1
 10
36.7516364488392
 20
42.8978602915751
 30
0
 41
1
 10
36.7786124250564
 20
42.8749468983687
 30
0
 41
1
 10
36.8055569238664
 20
42.8519962932889
 30
0
 41
1
  0
SPLINE
  5
179
100
AcDbEntity
  8
0
100
AcDbSpline
 70
12
 71
3
 72
8
 73
4
 40
0
 40
0
 40
0
 40
0
 40
1
 40
1
 40
1
 40
1
 10
36.8055569238664
 20
42.8519962932889
 30
0
 41
1
 10
36.8324849733111
 20
42.8290596993395
 30
0
 41
1
 10
36.85938158377
 20
42.8060859389378
 30
0
 41
1
 10
36.8861473691811
 20
42.7829605230427
 30
0
 41
1
  0
SPLINE
  5
180
100
AcDbEntity
  8
0
100
AcDbSpline
 70
12
 71
3
 72
8
 73
4
 40
0
 40
0
 40
0
 40
0
 40
1
 40
1
 40
1
 40
1
 10
36.8861473691811
 20
42.7829605230427
 30
0
 41
1
 10
36.9056825465956
 20
42.7660822922955
 30
0
 41
1
 10
36.9251480347846
 20
42.7491232761477
 30
0
 41
1
 10
36.9447194062821
 20
42.732286940114
 30
0
 41
1
  0
SPLINE
  5
181
100
AcDbEntity
  8
0
100
AcDbSpline
 70
12
 71
3
 72
8
 73
4
 40
0
 40
0
 40
0
 40
0
 40
1
 40
1
 40
1
 40
1
 10
36.9447194062821
 20
42.732286940114
 30
0
 41
1
 10
36.9545140094056
 20
42.7238611008965
 30
0
 41
1
 10
36.9643351316223
 20
42.7154659876301
 30
0
 41
1
 10
36.974204160559
 20
42.7071272995961
 30
0
 41
1
  0
SPLINE
  5
182
100
AcDbEntity
  8
0
100
AcDbSpline
 70
12
 71
3
 72
8
 73
4
 40
0
 40
0
 40
0
 40
0
 40
1
 40
1
 40
1
 40
1
 10
36.974204160559
 20
42.7071272995961
 30
0
 41
1
 10
36.984088427398
 20
42.6987757365249
 30
0
 41
1
 10
36.9940207490085
 20
42.6904807730632
 30
0
 41
1
 10
37.004021045335
 20
42.6822686083816
 30
0
 41
1
  0
SPLINE
  5
183
100
AcDbEntity
  8
0
100
AcDbSpline
 70
12
 71
3
 72
8
 73
4
 40
0
 40
0
 40
0
 40
0
 40
1
 40
1
 40
1
 40
1
 10
37.004021045335
 20
42.6822686083816
 30
0
 41
1
 10
37.0240529069563
 20
42.6658186011876
 30
0
 41
1
 10
37.0443575182808
 20
42.6497008255061
 30
0
 41
1
 10
37.0642864161626
 20
42.6331264392263
 30
0
 41
1
  0
SPLINE
  5
184
100
AcDbEntity
  8
0
100
AcDbSpline
 70
12
 71
3
 72
8
 73
4
 40
0
 40
0
 40
0
 40
0
 40
1
 40
1
 40
1
 40
1
 10
37.0642864161626
 20
42.6331264392263
 30
0
 41
1
 10
37.0692570134598
 20
42.6289925126974
 30
0
 41
1
 10
37.0742042381408
 20
42.6248301810515
 30
0
 41
1
 10
37.0791166750853
 20
42.6206272096526
 30
0
 41
1
  0
SPLINE
  5
185
100
AcDbEntity
  8
0
100
AcDbSpline
 70
12
 71
3
 72
8
 73
4
 40
0
 40
0
 40
0
 40
0
 40
1
 40
1
 40
1
 40
1
 10
37.0791166750853
 20
42.6206272096526
 30
0
 41
1
 10
37.0840189094512
 20
42.6164329673522
 30
0
 41
1
 10
37.088886500431
 20
42.612198253932
 30
0
 41
1
 10
37.0937092343945
 20
42.6079125078994
 30
0
 41
1
  0
SPLINE
  5
186
100
AcDbEntity
  8
0
100
AcDbSpline
 70
12
 71
3
 72
8
 73
4
 40
0
 40
0
 40
0
 40
0
 40
1
 40
1
 40
1
 40
1
 10
37.0937092343945
 20
42.6079125078994
 30
0
 41
1
 10
37.0985208750854
 20
42.6036366199574
 30
0
 41
1
 10
37.1032878648832
 20
42.599309933904
 30
0
 41
1
 10
37.1079924609192
 20
42.5949173354332
 30
0
 41
1
  0
SPLINE
  5
187
100
AcDbEntity
  8
0
100
AcDbSpline
 70
12
 71
3
 72
8
 73
4
 40
0
 40
0
 40
0
 40
0
 40
1
 40
1
 40
1
 40
1
 10
37.1079924609192
 20
42.5949173354332
 30
0
 41
1
 10
37.1126867030025
 20
42.5905344042657
 30
0
 41
1
 10
37.1173188256562
 20
42.5860858504838
 30
0
 41
1
 10
37.1218947214889
 20
42.5815766937206
 30
0
 41
1
  0
SPLINE
  5
188
100
AcDbEntity
  8
0
100
AcDbSpline
 70
12
 71
3
 72
8
 73
4
 40
0
 40
0
 40
0
 40
0
 40
1
 40
1
 40
1
 40
1
 10
37.9935705082144
 20
8.48181012809304
 30
0
 41
1
 10
43.8368381667998
 20
8.08478920293016
 30
0
 41
1
 10
49.6801058253852
 20
7.68776827776728
 30
0
 41
1
 10
55.5233734839706
 20
7.2907473526044
 30
0
 41
1
  0
SPLINE
  5
189
100
AcDbEntity
  8
0
100
AcDbSpline
 70
12
 71
3
 72
8
 73
4
 40
0
 40
0
 40
0
 40
0
 40
1
 40
1
 40
1
 40
1
 10
36.7294586510167
 20
37.0514692122964
 30
0
 41
1
 10
36.7365588759144
 20
35.8039795022356
 30
0
 41
1
 10
36.7436591008121
 20
34.5564897921747
 30
0
 41
1
 10
36.7507593257098
 20
33.3090000821139
 30
0
 41
1
  0
SPLINE
  5
190
100
AcDbEntity
  8
0
100
AcDbSpline
 70
12
 71
3
 72
8
 73
4
 40
0
 40
0
 40
0
 40
0
 40
1
 40
1
 40
1
 40
1
 10
36.7507593257098
 20
33.3090000821139
 30
0
 41
1
 10
36.8968569468333
 20
32.2892363938763
 30
0
 41
1
 10
37.0429545679569
 20
31.2694727056387
 30
0
 41
1
 10
37.1890521890804
 20
30.2497090174012
 30
0
 41
1
  0
SPLINE
  5
191
100
AcDbEntity
  8
0
100
AcDbSpline
 70
12
 71
3
 72
8
 73
4
 40
0
 40
0
 40
0
 40
0
 40
1
 40
1
 40
1
 40
1
 10
37.2437214583058
 20
41.8199140594063
 30
0
 41
1
 10
37.0723005225428
 20
40.230432443703
 30
0
 41
1
 10
36.9008795867798
 20
38.6409508279997
 30
0
 41
1
 10
36.7294586510167
 20
37.0514692122964
 30
0
 41
1
  0
SPLINE
  5
192
100
AcDbEntity
  8
0
100
AcDbSpline
 70
12
 71
3
 72
8
 73
4
 40
0
 40
0
 40
0
 40
0
 40
1
 40
1
 40
1
 40
1
 10
37.1890521890804
 20
30.2497090174012
 30
0
 41
1
 10
37.4579381975421
 20
29.3894361055625
 30
0
 41
1
 10
37.7268242060038
 20
28.5291631937238
 30
0
 41
1
 10
37.9957102144655
 20
27.6688902818852
 30
0
 41
1
  0
SPLINE
  5
193
100
AcDbEntity
  8
0
100
AcDbSpline
 70
12
 71
3
 72
8
 73
4
 40
0
 40
0
 40
0
 40
0
 40
1
 40
1
 40
1
 40
1
 10
40.4499668384863
 20
19.6668790701904
 30
0
 41
1
 10
39.6791356037314
 20
20.2932605895174
 30
0
 41
1
 10
38.9083043689765
 20
20.9196421088444
 30
0
 41
1
 10
38.1374731342216
 20
21.5460236281714
 30
0
 41
1
  0
SPLINE
  5
194
100
AcDbEntity
  8
0
100
AcDbSpline
 70
12
 71
3
 72
8
 73
4
 40
0
 40
0
 40
0
 40
0
 40
1
 40
1
 40
1
 40
1
 10
37.1218947214889
 20
42.5815766937206
 30
0
 41
1
 10
37.1699380006213
 20
42.5127255779574
 30
0
 41
1
 10
37.2179812797537
 20
42.4438744621943
 30
0
 41
1
 10
37.2660245588861
 20
42.3750233464311
 30
0
 41
1
  0
SPLINE
  5
195
100
AcDbEntity
  8
0
100
AcDbSpline
 70
12
 71
3
 72
8
 73
4
 40
0
 40
0
 40
0
 40
0
 40
1
 40
1
 40
1
 40
1
 10
37.2660245588861
 20
42.3750233464311
 30
0
 41
1
 10
37.258590192026
 20
42.1899869174229
 30
0
 41
1
 10
37.2511558251659
 20
42.0049504884146
 30
0
 41
1
 10
37.2437214583058
 20
41.8199140594063
 30
0
 41
1
  0
SPLINE
  5
196
100
AcDbEntity
  8
0
100
AcDbSpline
 70
12
 71
3
 72
8
 73
4
 40
0
 40
0
 40
0
 40
0
 40
1
 40
1
 40
1
 40
1
 10
37.9957102144655
 20
27.6688902818852
 30
0
 41
1
 10
38.3858059291805
 20
26.9241588812019
 30
0
 41
1
 10
38.7759016438955
 20
26.1794274805186
 30
0
 41
1
 10
39.1659973586105
 20
25.4346960798353
 30
0
 41
1
  0
SPLINE
  5
197
100
AcDbEntity
  8
0
100
AcDbSpline
 70
12
 71
3
 72
8
 73
4
 40
0
 40
0
 40
0
 40
0
 40
1
 40
1
 40
1
 40
1
 10
39.1659973586105
 20
25.4346960798353
 30
0
 41
1
 10
39.6876771253871
 20
24.7754163617045
 30
0
 41
1
 10
40.2093568921637
 20
24.1161366435737
 30
0
 41
1
 10
40.7310366589403
 20
23.4568569254429
 30
0
 41
1
  0
SPLINE
  5
198
100
AcDbEntity
  8
0
100
AcDbSpline
 70
12
 71
3
 72
8
 73
4
 40
0
 40
0
 40
0
 40
0
 40
1
 40
1
 40
1
 40
1
 10
40.2942981162086
 20
15.1639132587953
 30
0
 41
1
 10
42.1101346641742
 20
14.6248635636088
 30
0
 41
1
 10
43.9259712121399
 20
14.0858138684224
 30
0
 41
1
 10
45.7418077601056
 20
13.546764173236
 30
0
 41
1
  0
SPLINE
  5
199
100
AcDbEntity
  8
0
100
AcDbSpline
 70
12
 71
3
 72
8
 73
4
 40
0
 40
0
 40
0
 40
0
 40
1
 40
1
 40
1
 40
1
 10
43.5583884371948
 20
17.9478799931783
 30
0
 41
1
 10
42.522247904292
 20
18.5208796855157
 30
0
 41
1
 10
41.4861073713891
 20
19.0938793778531
 30
0
 41
1
 10
40.4499668384863
 20
19.6668790701904
 30
0
 41
1
  0
SPLINE
  5
200
100
AcDbEntity
  8
0
100
AcDbSpline
 70
12
 71
3
 72
8
 73
4
 40
0
 40
0
 40
0
 40
0
 40
1
 40
1
 40
1
 40
1
 10
39.7474588207481
 20
36.3710734304073
 30
0
 41
1
 10
39.7378286871621
 20
37.4063898595587
 30
0
 41
1
 10
39.7281985535761
 20
38.4417062887101
 30
0
 41
1
 10
39.7185684199902
 20
39.4770227178616
 30
0
 41
1
  0
SPLINE
  5
201
100
AcDbEntity
  8
0
100
AcDbSpline
 70
12
 71
3
 72
8
 73
4
 40
0
 40
0
 40
0
 40
0
 40
1
 40
1
 40
1
 40
1
 10
40.0485549492837
 20
33.7182205151838
 30
0
 41
1
 10
39.9481895731051
 20
34.6025048202583
 30
0
 41
1
 10
39.8478241969266
 20
35.4867891253328
 30
0
 41
1
 10
39.7474588207481
 20
36.3710734304073
 30
0
 41
1
  0
SPLINE
  5
202
100
AcDbEntity
  8
0
100
AcDbSpline
 70
12
 71
3
 72
8
 73
4
 40
0
 40
0
 40
0
 40
0
 40
1
 40
1
 40
1
 40
1
 10
39.7185684199902
 20
39.4770227178616
 30
0
 41
1
 10
39.7945614143114
 20
39.5178650725584
 30
0
 41
1
 10
39.8705544086326
 20
39.5587074272552
 30
0
 41
1
 10
39.9465474029538
 20
39.599549781952
 30
0
 41
1
  0
SPLINE
  5
203
100
AcDbEntity
  8
0
100
AcDbSpline
 70
12
 71
3
 72
8
 73
4
 40
0
 40
0
 40
0
 40
0
 40
1
 40
1
 40
1
 40
1
 10
40.5927409051126
 20
31.407712729594
 30
0
 41
1
 10
40.411345586503
 20
32.1778819914573
 30
0
 41
1
 10
40.2299502678933
 20
32.9480512533206
 30
0
 41
1
 10
40.0485549492837
 20
33.7182205151838
 30
0
 41
1
  0
SPLINE
  5
204
100
AcDbEntity
  8
0
100
AcDbSpline
 70
12
 71
3
 72
8
 73
4
 40
0
 40
0
 40
0
 40
0
 40
1
 40
1
 40
1
 40
1
 10
40.7310366589403
 20
23.4568569254429
 30
0
 41
1
 10
41.4075692774317
 20
22.8613128174988
 30
0
 41
1
 10
42.0841018959231
 20
22.2657687095546
 30
0
 41
1
 10
42.7606345144146
 20
21.6702246016105
 30
0
 41
1
  0
SPLINE
  5
205
100
AcDbEntity
  8
0
100
AcDbSpline
 70
12
 71
3
 72
8
 73
4
 40
0
 40
0
 40
0
 40
0
 40
1
 40
1
 40
1
 40
1
 10
39.9465474029538
 20
39.599549781952
 30
0
 41
1
 10
40.0327804438941
 20
39.5969238015092
 30
0
 41
1
 10
40.1190134848343
 20
39.5942978210664
 30
0
 41
1
 10
40.2052465257746
 20
39.5916718406237
 30
0
 41
1
  0
SPLINE
  5
206
100
AcDbEntity
  8
0
100
AcDbSpline
 70
12
 71
3
 72
8
 73
4
 40
0
 40
0
 40
0
 40
0
 40
1
 40
1
 40
1
 40
1
 10
41.3694410310304
 20
29.3617678906135
 30
0
 41
1
 10
41.1105409890578
 20
30.043749503607
 30
0
 41
1
 10
40.8516409470852
 20
30.7257311166005
 30
0
 41
1
 10
40.5927409051126
 20
31.407712729594
 30
0
 41
1
  0
SPLINE
  5
207
100
AcDbEntity
  8
0
100
AcDbSpline
 70
12
 71
3
 72
8
 73
4
 40
0
 40
0
 40
0
 40
0
 40
1
 40
1
 40
1
 40
1
 10
40.2052465257746
 20
39.5916718406237
 30
0
 41
1
 10
40.278613539653
 20
39.5462811543802
 30
0
 41
1
 10
40.3519805535314
 20
39.5008904681368
 30
0
 41
1
 10
40.4253475674099
 20
39.4554997818934
 30
0
 41
1
  0
SPLINE
  5
208
100
AcDbEntity
  8
0
100
AcDbSpline
 70
12
 71
3
 72
8
 73
4
 40
0
 40
0
 40
0
 40
0
 40
1
 40
1
 40
1
 40
1
 10
40.4253475674099
 20
39.4554997818934
 30
0
 41
1
 10
40.8256207132283
 20
39.030082600477
 30
0
 41
1
 10
41.2258938590467
 20
38.6046654190606
 30
0
 41
1
 10
41.6261670048652
 20
38.1792482376442
 30
0
 41
1
  0
SPLINE
  5
209
100
AcDbEntity
  8
0
100
AcDbSpline
 70
12
 71
3
 72
8
 73
4
 40
0
 40
0
 40
0
 40
0
 40
1
 40
1
 40
1
 40
1
 10
42.3826375578638
 20
27.5236066498147
 30
0
 41
1
 10
42.0449053822527
 20
28.1363270634143
 30
0
 41
1
 10
41.7071732066415
 20
28.7490474770139
 30
0
 41
1
 10
41.3694410310304
 20
29.3617678906135
 30
0
 41
1
  0
SPLINE
  5
210
100
AcDbEntity
  8
0
100
AcDbSpline
 70
12
 71
3
 72
8
 73
4
 40
0
 40
0
 40
0
 40
0
 40
1
 40
1
 40
1
 40
1
 10
41.6261670048652
 20
38.1792482376442
 30
0
 41
1
 10
41.6909991200622
 20
37.867125519658
 30
0
 41
1
 10
41.7558312352593
 20
37.5550028016718
 30
0
 41
1
 10
41.8206633504564
 20
37.2428800836857
 30
0
 41
1
  0
SPLINE
  5
211
100
AcDbEntity
  8
0
100
AcDbSpline
 70
12
 71
3
 72
8
 73
4
 40
0
 40
0
 40
0
 40
0
 40
1
 40
1
 40
1
 40
1
 10
41.8206633504564
 20
37.2428800836857
 30
0
 41
1
 10
41.9107905754117
 20
36.5801879629829
 30
0
 41
1
 10
42.0009178003669
 20
35.9174958422802
 30
0
 41
1
 10
42.0910450253221
 20
35.2548037215775
 30
0
 41
1
  0
SPLINE
  5
212
100
AcDbEntity
  8
0
100
AcDbSpline
 70
12
 71
3
 72
8
 73
4
 40
0
 40
0
 40
0
 40
0
 40
1
 40
1
 40
1
 40
1
 10
43.6497772557099
 20
25.8503580325123
 30
0
 41
1
 10
43.2273973564279
 20
26.4081075716131
 30
0
 41
1
 10
42.8050174571458
 20
26.9658571107139
 30
0
 41
1
 10
42.3826375578638
 20
27.5236066498147
 30
0
 41
1
  0
SPLINE
  5
213
100
AcDbEntity
  8
0
100
AcDbSpline
 70
12
 71
3
 72
8
 73
4
 40
0
 40
0
 40
0
 40
0
 40
1
 40
1
 40
1
 40
1
 10
55.1085759354367
 20
9.95212833358789
 30
0
 41
1
 10
51.1671922541849
 20
10.4439837566026
 30
0
 41
1
 10
47.225808572933
 20
10.9358391796174
 30
0
 41
1
 10
43.2844248916811
 20
11.4276946026321
 30
0
 41
1
  0
SPLINE
  5
214
100
AcDbEntity
  8
0
100
AcDbSpline
 70
12
 71
3
 72
8
 73
4
 40
0
 40
0
 40
0
 40
0
 40
1
 40
1
 40
1
 40
1
 10
42.7606345144146
 20
21.6702246016105
 30
0
 41
1
 10
43.6328117436957
 20
21.1219825241764
 30
0
 41
1
 10
44.5049889729769
 20
20.5737404467422
 30
0
 41
1
 10
45.377166202258
 20
20.0254983693081
 30
0
 41
1
  0
SPLINE
  5
215
100
AcDbEntity
  8
0
100
AcDbSpline
 70
12
 71
3
 72
8
 73
4
 40
0
 40
0
 40
0
 40
0
 40
1
 40
1
 40
1
 40
1
 10
42.0910450253221
 20
35.2548037215775
 30
0
 41
1
 10
42.2267504955748
 20
34.6554975315748
 30
0
 41
1
 10
42.3624559658276
 20
34.0561913415722
 30
0
 41
1
 10
42.4981614360803
 20
33.4568851515696
 30
0
 41
1
  0
SPLINE
  5
216
100
AcDbEntity
  8
0
100
AcDbSpline
 70
12
 71
3
 72
8
 73
4
 40
0
 40
0
 40
0
 40
0
 40
1
 40
1
 40
1
 40
1
 10
42.4981614360803
 20
33.4568851515696
 30
0
 41
1
 10
42.6778512028968
 20
32.9100078637098
 30
0
 41
1
 10
42.8575409697133
 20
32.3631305758499
 30
0
 41
1
 10
43.0372307365298
 20
31.8162532879901
 30
0
 41
1
  0
SPLINE
  5
217
100
AcDbEntity
  8
0
100
AcDbSpline
 70
12
 71
3
 72
8
 73
4
 40
0
 40
0
 40
0
 40
0
 40
1
 40
1
 40
1
 40
1
 10
47.8326833798711
 20
16.3378880185915
 30
0
 41
1
 10
46.407918398979
 20
16.8745520101204
 30
0
 41
1
 10
44.9831534180869
 20
17.4112160016493
 30
0
 41
1
 10
43.5583884371948
 20
17.9478799931783
 30
0
 41
1
  0
SPLINE
  5
218
100
AcDbEntity
  8
0
100
AcDbSpline
 70
12
 71
3
 72
8
 73
4
 40
0
 40
0
 40
0
 40
0
 40
1
 40
1
 40
1
 40
1
 10
43.0372307365298
 20
31.8162532879901
 30
0
 41
1
 10
43.2608263187804
 20
31.3131456795679
 30
0
 41
1
 10
43.4844219010311
 20
30.8100380711457
 30
0
 41
1
 10
43.7080174832817
 20
30.3069304627235
 30
0
 41
1
  0
SPLINE
  5
219
100
AcDbEntity
  8
0
100
AcDbSpline
 70
12
 71
3
 72
8
 73
4
 40
0
 40
0
 40
0
 40
0
 40
1
 40
1
 40
1
 40
1
 10
45.2029284680556
 20
24.3086464248045
 30
0
 41
1
 10
44.6852113972737
 20
24.8225502940404
 30
0
 41
1
 10
44.1674943264918
 20
25.3364541632764
 30
0
 41
1
 10
43.6497772557099
 20
25.8503580325123
 30
0
 41
1
  0
SPLINE
  5
220
100
AcDbEntity
  8
0
100
AcDbSpline
 70
12
 71
3
 72
8
 73
4
 40
0
 40
0
 40
0
 40
0
 40
1
 40
1
 40
1
 40
1
 10
43.7080174832817
 20
30.3069304627235
 30
0
 41
1
 10
43.9768165170979
 20
29.8406199211709
 30
0
 41
1
 10
44.245615550914
 20
29.3743093796184
 30
0
 41
1
 10
44.5144145847302
 20
28.9079988380658
 30
0
 41
1
  0
SPLINE
  5
221
100
AcDbEntity
  8
0
100
AcDbSpline
 70
12
 71
3
 72
8
 73
4
 40
0
 40
0
 40
0
 40
0
 40
1
 40
1
 40
1
 40
1
 10
44.5144145847302
 20
28.9079988380658
 30
0
 41
1
 10
44.83108004514
 20
28.4727731174024
 30
0
 41
1
 10
45.1477455055498
 20
28.0375473967389
 30
0
 41
1
 10
45.4644109659596
 20
27.6023216760755
 30
0
 41
1
  0
SPLINE
  5
222
100
AcDbEntity
  8
0
100
AcDbSpline
 70
12
 71
3
 72
8
 73
4
 40
0
 40
0
 40
0
 40
0
 40
1
 40
1
 40
1
 40
1
 10
45.377166202258
 20
20.0254983693081
 30
0
 41
1
 10
46.5139168387
 20
19.5116122141628
 30
0
 41
1
 10
47.650667475142
 20
18.9977260590175
 30
0
 41
1
 10
48.787418111584
 20
18.4838399038722
 30
0
 41
1
  0
SPLINE
  5
223
100
AcDbEntity
  8
0
100
AcDbSpline
 70
12
 71
3
 72
8
 73
4
 40
0
 40
0
 40
0
 40
0
 40
1
 40
1
 40
1
 40
1
 10
45.7418077601056
 20
13.546764173236
 30
0
 41
1
 10
48.7277605428933
 20
13.0304333746165
 30
0
 41
1
 10
51.713713325681
 20
12.514102575997
 30
0
 41
1
 10
54.6996661084687
 20
11.9977717773775
 30
0
 41
1
  0
SPLINE
  5
224
100
AcDbEntity
  8
0
100
AcDbSpline
 70
12
 71
3
 72
8
 73
4
 40
0
 40
0
 40
0
 40
0
 40
1
 40
1
 40
1
 40
1
 10
47.0923419915461
 20
22.8717396362327
 30
0
 41
1
 10
46.4625374837159
 20
23.3507085657567
 30
0
 41
1
 10
45.8327329758857
 20
23.8296774952806
 30
0
 41
1
 10
45.2029284680556
 20
24.3086464248045
 30
0
 41
1
  0
SPLINE
  5
225
100
AcDbEntity
  8
0
100
AcDbSpline
 70
12
 71
3
 72
8
 73
4
 40
0
 40
0
 40
0
 40
0
 40
1
 40
1
 40
1
 40
1
 10
45.3320086071698
 20
34.000314682195
 30
0
 41
1
 10
45.2264162495432
 20
34.3222468427063
 30
0
 41
1
 10
45.1208238919167
 20
34.6441790032176
 30
0
 41
1
 10
45.0152315342902
 20
34.9661111637289
 30
0
 41
1
  0
SPLINE
  5
226
100
AcDbEntity
  8
0
100
AcDbSpline
 70
12
 71
3
 72
8
 73
4
 40
0
 40
0
 40
0
 40
0
 40
1
 40
1
 40
1
 40
1
 10
45.4644109659596
 20
27.6023216760755
 30
0
 41
1
 10
45.8330781198079
 20
27.1934246478059
 30
0
 41
1
 10
46.2017452736563
 20
26.7845276195364
 30
0
 41
1
 10
46.5704124275046
 20
26.3756305912668
 30
0
 41
1
  0
SPLINE
  5
227
100
AcDbEntity
  8
0
100
AcDbSpline
 70
12
 71
3
 72
8
 73
4
 40
0
 40
0
 40
0
 40
0
 40
1
 40
1
 40
1
 40
1
 10
45.6917903882831
 20
33.0792499848571
 30
0
 41
1
 10
45.571863127912
 20
33.3862715506364
 30
0
 41
1
 10
45.4519358675409
 20
33.6932931164157
 30
0
 41
1
 10
45.3320086071698
 20
34.000314682195
 30
0
 41
1
  0
SPLINE
  5
228
100
AcDbEntity
  8
0
100
AcDbSpline
 70
12
 71
3
 72
8
 73
4
 40
0
 40
0
 40
0
 40
0
 40
1
 40
1
 40
1
 40
1
 10
46.0949564819211
 20
32.1987380675017
 30
0
 41
1
 10
45.9605677840417
 20
32.4922420399535
 30
0
 41
1
 10
45.8261790861624
 20
32.7857460124053
 30
0
 41
1
 10
45.6917903882831
 20
33.0792499848571
 30
0
 41
1
  0
SPLINE
  5
229
100
AcDbEntity
  8
0
100
AcDbSpline
 70
12
 71
3
 72
8
 73
4
 40
0
 40
0
 40
0
 40
0
 40
1
 40
1
 40
1
 40
1
 10
46.5422972186598
 20
31.3550613715426
 30
0
 41
1
 10
46.3931836397469
 20
31.6362869368623
 30
0
 41
1
 10
46.244070060834
 20
31.917512502182
 30
0
 41
1
 10
46.0949564819211
 20
32.1987380675017
 30
0
 41
1
  0
SPLINE
  5
230
100
AcDbEntity
  8
0
100
AcDbSpline
 70
12
 71
3
 72
8
 73
4
 40
0
 40
0
 40
0
 40
0
 40
1
 40
1
 40
1
 40
1
 10
46.5704124275046
 20
26.3756305912668
 30
0
 41
1
 10
46.9969232771668
 20
25.9890407887682
 30
0
 41
1
 10
47.4234341268291
 20
25.6024509862697
 30
0
 41
1
 10
47.8499449764913
 20
25.2158611837711
 30
0
 41
1
  0
SPLINE
  5
231
100
AcDbEntity
  8
0
100
AcDbSpline
 70
12
 71
3
 72
8
 73
4
 40
0
 40
0
 40
0
 40
0
 40
1
 40
1
 40
1
 40
1
 10
47.0350141891539
 20
30.5448953605892
 30
0
 41
1
 10
46.8707751989892
 20
30.8149506975736
 30
0
 41
1
 10
46.7065362088245
 20
31.0850060345581
 30
0
 41
1
 10
46.5422972186598
 20
31.3550613715426
 30
0
 41
1
  0
SPLINE
  5
232
100
AcDbEntity
  8
0
100
AcDbSpline
 70
12
 71
3
 72
8
 73
4
 40
0
 40
0
 40
0
 40
0
 40
1
 40
1
 40
1
 40
1
 10
49.3933768934787
 20
21.5176621463834
 30
0
 41
1
 10
48.6263652595012
 20
21.9690213096665
 30
0
 41
1
 10
47.8593536255237
 20
22.4203804729496
 30
0
 41
1
 10
47.0923419915461
 20
22.8717396362327
 30
0
 41
1
  0
SPLINE
  5
233
100
AcDbEntity
  8
0
100
AcDbSpline
 70
12
 71
3
 72
8
 73
4
 40
0
 40
0
 40
0
 40
0
 40
1
 40
1
 40
1
 40
1
 10
47.5747316218315
 20
29.7652518066616
 30
0
 41
1
 10
47.394825810939
 20
30.0251329913041
 30
0
 41
1
 10
47.2149200000464
 20
30.2850141759466
 30
0
 41
1
 10
47.0350141891539
 20
30.5448953605892
 30
0
 41
1
  0
SPLINE
  5
234
100
AcDbEntity
  8
0
100
AcDbSpline
 70
12
 71
3
 72
8
 73
4
 40
0
 40
0
 40
0
 40
0
 40
1
 40
1
 40
1
 40
1
 10
54.0093171086468
 20
14.7984345610484
 30
0
 41
1
 10
51.9504391990549
 20
15.3115857135627
 30
0
 41
1
 10
49.891561289463
 20
15.8247368660771
 30
0
 41
1
 10
47.8326833798711
 20
16.3378880185915
 30
0
 41
1
  0
SPLINE
  5
235
100
AcDbEntity
  8
0
100
AcDbSpline
 70
12
 71
3
 72
8
 73
4
 40
0
 40
0
 40
0
 40
0
 40
1
 40
1
 40
1
 40
1
 10
48.1635187655718
 20
29.0134314814397
 30
0
 41
1
 10
47.967256384325
 20
29.2640382565137
 30
0
 41
1
 10
47.7709940030783
 20
29.5146450315876
 30
0
 41
1
 10
47.5747316218315
 20
29.7652518066616
 30
0
 41
1
  0
SPLINE
  5
236
100
AcDbEntity
  8
0
100
AcDbSpline
 70
12
 71
3
 72
8
 73
4
 40
0
 40
0
 40
0
 40
0
 40
1
 40
1
 40
1
 40
1
 10
47.8499449764913
 20
25.2158611837711
 30
0
 41
1
 10
48.3422420366877
 20
24.8481282799482
 30
0
 41
1
 10
48.8345390968841
 20
24.4803953761254
 30
0
 41
1
 10
49.3268361570805
 20
24.1126624723026
 30
0
 41
1
  0
SPLINE
  5
237
100
AcDbEntity
  8
0
100
AcDbSpline
 70
12
 71
3
 72
8
 73
4
 40
0
 40
0
 40
0
 40
0
 40
1
 40
1
 40
1
 40
1
 10
48.8039240045437
 20
28.2869844664679
 30
0
 41
1
 10
48.5904555915531
 20
28.5291334714585
 30
0
 41
1
 10
48.3769871785624
 20
28.7712824764491
 30
0
 41
1
 10
48.1635187655718
 20
29.0134314814397
 30
0
 41
1
  0
SPLINE
  5
238
100
AcDbEntity
  8
0
100
AcDbSpline
 70
12
 71
3
 72
8
 73
4
 40
0
 40
0
 40
0
 40
0
 40
1
 40
1
 40
1
 40
1
 10
48.787418111584
 20
18.4838399038722
 30
0
 41
1
 10
50.3092049975814
 20
17.9939403044815
 30
0
 41
1
 10
51.8309918835787
 20
17.5040407050908
 30
0
 41
1
 10
53.352778769576
 20
17.0141411057001
 30
0
 41
1
  0
SPLINE
  5
239
100
AcDbEntity
  8
0
100
AcDbSpline
 70
12
 71
3
 72
8
 73
4
 40
0
 40
0
 40
0
 40
0
 40
1
 40
1
 40
1
 40
1
 10
49.4990220411018
 20
27.5836766915384
 30
0
 41
1
 10
49.2673226955824
 20
27.8181126165149
 30
0
 41
1
 10
49.0356233500631
 20
28.0525485414914
 30
0
 41
1
 10
48.8039240045437
 20
28.2869844664679
 30
0
 41
1
  0
SPLINE
  5
240
100
AcDbEntity
  8
0
100
AcDbSpline
 70
12
 71
3
 72
8
 73
4
 40
0
 40
0
 40
0
 40
0
 40
1
 40
1
 40
1
 40
1
 10
52.2190519720795
 20
20.2279660652587
 30
0
 41
1
 10
51.2771602792126
 20
20.657864758967
 30
0
 41
1
 10
50.3352685863456
 20
21.0877634526752
 30
0
 41
1
 10
49.3933768934787
 20
21.5176621463834
 30
0
 41
1
  0
SPLINE
  5
241
100
AcDbEntity
  8
0
100
AcDbSpline
 70
12
 71
3
 72
8
 73
4
 40
0
 40
0
 40
0
 40
0
 40
1
 40
1
 40
1
 40
1
 10
49.3268361570805
 20
24.1126624723026
 30
0
 41
1
 10
49.895577488836
 20
23.7607859867674
 30
0
 41
1
 10
50.4643188205914
 20
23.4089095012322
 30
0
 41
1
 10
51.0330601523469
 20
23.057033015697
 30
0
 41
1
  0
SPLINE
  5
242
100
AcDbEntity
  8
0
100
AcDbSpline
 70
12
 71
3
 72
8
 73
4
 40
0
 40
0
 40
0
 40
0
 40
1
 40
1
 40
1
 40
1
 10
50.2524761865879
 20
26.9014616167304
 30
0
 41
1
 10
50.0013248047592
 20
27.1288666416664
 30
0
 41
1
 10
49.7501734229305
 20
27.3562716666024
 30
0
 41
1
 10
49.4990220411018
 20
27.5836766915384
 30
0
 41
1
  0
SPLINE
  5
243
100
AcDbEntity
  8
0
100
AcDbSpline
 70
12
 71
3
 72
8
 73
4
 40
0
 40
0
 40
0
 40
0
 40
1
 40
1
 40
1
 40
1
 10
51.0330601523469
 20
23.057033015697
 30
0
 41
1
 10
51.2918288466915
 20
22.8708541848079
 30
0
 41
1
 10
51.550597541036
 20
22.6846753539189
 30
0
 41
1
 10
51.8093662353806
 20
22.4984965230298
 30
0
 41
1
  0
SPLINE
  5
244
100
AcDbEntity
  8
0
100
AcDbSpline
 70
12
 71
3
 72
8
 73
4
 40
0
 40
0
 40
0
 40
0
 40
1
 40
1
 40
1
 40
1
 10
51.8093662353806
 20
22.4984965230298
 30
0
 41
1
 10
51.8451847797834
 20
22.4130549048865
 30
0
 41
1
 10
51.881002110699
 20
22.3276127741352
 30
0
 41
1
 10
51.9168218685889
 20
22.2421716685999
 30
0
 41
1
  0
SPLINE
  5
245
100
AcDbEntity
  8
0
100
AcDbSpline
 70
12
 71
3
 72
8
 73
4
 40
0
 40
0
 40
0
 40
0
 40
1
 40
1
 40
1
 40
1
 10
51.9168218685889
 20
22.2421716685999
 30
0
 41
1
 10
51.9526416264789
 20
22.1567305630646
 30
0
 41
1
 10
51.9884638113432
 20
22.0712904827454
 30
0
 41
1
 10
52.0242775017973
 20
21.98584681417
 30
0
 41
1
  0
SPLINE
  5
246
100
AcDbEntity
  8
0
100
AcDbSpline
 70
12
 71
3
 72
8
 73
4
 40
0
 40
0
 40
0
 40
0
 40
1
 40
1
 40
1
 40
1
 10
52.0242775017973
 20
21.98584681417
 30
0
 41
1
 10
52.0546356973533
 20
21.9134187687282
 30
0
 41
1
 10
52.0849877892964
 20
21.8409881449642
 30
0
 41
1
 10
52.1153644321075
 20
21.7685678921149
 30
0
 41
1
  0
SPLINE
  5
247
100
AcDbEntity
  8
0
100
AcDbSpline
 70
12
 71
3
 72
8
 73
4
 40
0
 40
0
 40
0
 40
0
 40
1
 40
1
 40
1
 40
1
 10
52.1153644321075
 20
21.7685678921149
 30
0
 41
1
 10
52.1457410749186
 20
21.6961476392655
 30
0
 41
1
 10
52.1761422685979
 20
21.6237377573308
 30
0
 41
1
 10
52.2064513624178
 20
21.5512889700598
 30
0
 41
1
  0
SPLINE
  5
248
100
AcDbEntity
  8
0
100
AcDbSpline
 70
12
 71
3
 72
8
 73
4
 40
0
 40
0
 40
0
 40
0
 40
1
 40
1
 40
1
 40
1
 10
52.2064513624178
 20
21.5512889700598
 30
0
 41
1
 10
52.2326305785454
 20
21.4887119602876
 30
0
 41
1
 10
52.2587410836619
 20
21.4261059252268
 30
0
 41
1
 10
52.2851269061067
 20
21.3636161912473
 30
0
 41
1
  0
SPLINE
  5
249
100
AcDbEntity
  8
0
100
AcDbSpline
 70
12
 71
3
 72
8
 73
4
 40
0
 40
0
 40
0
 40
0
 40
1
 40
1
 40
1
 40
1
 10
52.2851269061067
 20
21.3636161912473
 30
0
 41
1
 10
52.2983262752062
 20
21.3323560300204
 30
0
 41
1
 10
52.3115945410377
 20
21.3011249725353
 30
0
 41
1
 10
52.3247683171287
 20
21.2698535946472
 30
0
 41
1
  0
SPLINE
  5
250
100
AcDbEntity
  8
0
100
AcDbSpline
 70
12
 71
3
 72
8
 73
4
 40
0
 40
0
 40
0
 40
0
 40
1
 40
1
 40
1
 40
1
 10
52.3247683171287
 20
21.2698535946472
 30
0
 41
1
 10
52.3379293236005
 20
21.2386125287658
 30
0
 41
1
 10
52.3509960234249
 20
21.2073312206104
 30
0
 41
1
 10
52.3638024497956
 20
21.1759434124348
 30
0
 41
1
  0
SPLINE
  5
251
100
AcDbEntity
  8
0
100
AcDbSpline
 70
12
 71
3
 72
8
 73
4
 40
0
 40
0
 40
0
 40
0
 40
1
 40
1
 40
1
 40
1
 10
52.3638024497956
 20
21.1759434124348
 30
0
 41
1
 10
52.374022150838
 20
21.1508955179914
 30
0
 41
1
 10
52.384076103099
 20
21.1257798016155
 30
0
 41
1
 10
52.3943927013832
 20
21.1007716981178
 30
0
 41
1
  0
SPLINE
  5
252
100
AcDbEntity
  8
0
100
AcDbSpline
 70
12
 71
3
 72
8
 73
4
 40
0
 40
0
 40
0
 40
0
 40
1
 40
1
 40
1
 40
1
 10
52.3943927013832
 20
21.1007716981178
 30
0
 41
1
 10
52.3995601680641
 20
21.0882454236604
 30
0
 41
1
 10
52.4047935298507
 20
21.0757461481345
 30
0
 41
1
 10
52.4101452837835
 20
21.0632970156998
 30
0
 41
1
  0
SPLINE
  5
253
100
AcDbEntity
  8
0
100
AcDbSpline
 70
12
 71
3
 72
8
 73
4
 40
0
 40
0
 40
0
 40
0
 40
1
 40
1
 40
1
 40
1
 10
52.4101452837835
 20
21.0632970156998
 30
0
 41
1
 10
52.4155143649635
 20
21.0508075770032
 30
0
 41
1
 10
52.4210026061616
 20
21.0383686066178
 30
0
 41
1
 10
52.4266582306903
 20
21.0260071233183
 30
0
 41
1
  0
SPLINE
  5
254
100
AcDbEntity
  8
0
100
AcDbSpline
 70
12
 71
3
 72
8
 73
4
 40
0
 40
0
 40
0
 40
0
 40
1
 40
1
 40
1
 40
1
 10
52.4266582306903
 20
21.0260071233183
 30
0
 41
1
 10
52.4323279670315
 20
21.0136147958686
 30
0
 41
1
 10
52.4381659230491
 20
21.0013003426761
 30
0
 41
1
 10
52.4439475215366
 20
20.9889584484827
 30
0
 41
1
  0
SPLINE
  5
255
100
AcDbEntity
  8
0
100
AcDbSpline
 70
12
 71
3
 72
8
 73
4
 40
0
 40
0
 40
0
 40
0
 40
1
 40
1
 40
1
 40
1
 10
52.4439475215366
 20
20.9889584484827
 30
0
 41
1
 10
52.4497223014017
 20
20.9766311099032
 30
0
 41
1
 10
52.4554408565905
 20
20.9642763950106
 30
0
 41
1
 10
52.4608735063112
 20
20.951795367723
 30
0
 41
1
  0
SPLINE
  5
256
100
AcDbEntity
  8
0
100
AcDbSpline
 70
12
 71
3
 72
8
 73
4
 40
0
 40
0
 40
0
 40
0
 40
1
 40
1
 40
1
 40
1
 10
52.4608735063112
 20
20.951795367723
 30
0
 41
1
 10
52.4635779553442
 20
20.9455821377317
 30
0
 41
1
 10
52.4662115516361
 20
20.9393376051582
 30
0
 41
1
 10
52.4687433270985
 20
20.9330517176502
 30
0
 41
1
  0
SPLINE
  5
257
100
AcDbEntity
  8
0
100
AcDbSpline
 70
12
 71
3
 72
8
 73
4
 40
0
 40
0
 40
0
 40
0
 40
1
 40
1
 40
1
 40
1
 10
52.4687433270985
 20
20.9330517176502
 30
0
 41
1
 10
52.4712653205889
 20
20.9267901168044
 30
0
 41
1
 10
52.4736862785361
 20
20.9204874799711
 30
0
 41
1
 10
52.4759740031625
 20
20.9141364171684
 30
0
 41
1
  0
SPLINE
  5
258
100
AcDbEntity
  8
0
100
AcDbSpline
 70
12
 71
3
 72
8
 73
4
 40
0
 40
0
 40
0
 40
0
 40
1
 40
1
 40
1
 40
1
 10
52.4759740031625
 20
20.9141364171684
 30
0
 41
1
 10
52.4782537224497
 20
20.9078075783745
 30
0
 41
1
 10
52.4804011392202
 20
20.901430651928
 30
0
 41
1
 10
52.4823827617611
 20
20.8950017833175
 30
0
 41
1
  0
SPLINE
  5
259
100
AcDbEntity
  8
0
100
AcDbSpline
 70
12
 71
3
 72
8
 73
4
 40
0
 40
0
 40
0
 40
0
 40
1
 40
1
 40
1
 40
1
 10
52.4823827617611
 20
20.8950017833175
 30
0
 41
1
 10
52.4843605396186
 20
20.8885853878009
 30
0
 41
1
 10
52.4861731659603
 20
20.8821172514779
 30
0
 41
1
 10
52.4877868292479
 20
20.875600136788
 30
0
 41
1
  0
SPLINE
  5
260
100
AcDbEntity
  8
0
100
AcDbSpline
 70
12
 71
3
 72
8
 73
4
 40
0
 40
0
 40
0
 40
0
 40
1
 40
1
 40
1
 40
1
 10
52.4877868292479
 20
20.875600136788
 30
0
 41
1
 10
52.4890398177225
 20
20.8705396823197
 30
0
 41
1
 10
52.4901728450103
 20
20.8654496972278
 30
0
 41
1
 10
52.4912047588247
 20
20.8603396077102
 30
0
 41
1
  0
SPLINE
  5
261
100
AcDbEntity
  8
0
100
AcDbSpline
 70
12
 71
3
 72
8
 73
4
 40
0
 40
0
 40
0
 40
0
 40
1
 40
1
 40
1
 40
1
 10
52.4912047588247
 20
20.8603396077102
 30
0
 41
1
 10
52.4922390686487
 20
20.8552176530316
 30
0
 41
1
 10
52.4931717949017
 20
20.8500755004575
 30
0
 41
1
 10
52.4940226064919
 20
20.8449200498973
 30
0
 41
1
  0
SPLINE
  5
262
100
AcDbEntity
  8
0
100
AcDbSpline
 70
12
 71
3
 72
8
 73
4
 40
0
 40
0
 40
0
 40
0
 40
1
 40
1
 40
1
 40
1
 10
52.4940226064919
 20
20.8449200498973
 30
0
 41
1
 10
52.4948759817168
 20
20.8397490651195
 30
0
 41
1
 10
52.4956469478906
 20
20.8345647020969
 30
0
 41
1
 10
52.4963552822795
 20
20.8293719127077
 30
0
 41
1
  0
SPLINE
  5
263
100
AcDbEntity
  8
0
100
AcDbSpline
 70
12
 71
3
 72
8
 73
4
 40
0
 40
0
 40
0
 40
0
 40
1
 40
1
 40
1
 40
1
 10
52.4963552822795
 20
20.8293719127077
 30
0
 41
1
 10
52.4970657207313
 20
20.8241636984626
 30
0
 41
1
 10
52.4977131547581
 20
20.8189470077166
 30
0
 41
1
 10
52.4983176953133
 20
20.8137256491508
 30
0
 41
1
  0
SPLINE
  5
264
100
AcDbEntity
  8
0
100
AcDbSpline
 70
12
 71
3
 72
8
 73
4
 40
0
 40
0
 40
0
 40
0
 40
1
 40
1
 40
1
 40
1
 10
52.4983176953133
 20
20.8137256491508
 30
0
 41
1
 10
52.5007439434653
 20
20.7927703774796
 30
0
 41
1
 10
52.5024792986831
 20
20.7717399203874
 30
0
 41
1
 10
52.5047629028273
 20
20.7507683877982
 30
0
 41
1
  0
SPLINE
  5
265
100
AcDbEntity
  8
0
100
AcDbSpline
 70
12
 71
3
 72
8
 73
4
 40
0
 40
0
 40
0
 40
0
 40
1
 40
1
 40
1
 40
1
 10
52.5047629028273
 20
20.7507683877982
 30
0
 41
1
 10
52.5059016132801
 20
20.740311013463
 30
0
 41
1
 10
52.5071766447317
 20
20.7298682905877
 30
0
 41
1
 10
52.5085472839218
 20
20.7194386439549
 30
0
 41
1
  0
SPLINE
  5
266
100
AcDbEntity
  8
0
100
AcDbSpline
 70
12
 71
3
 72
8
 73
4
 40
0
 40
0
 40
0
 40
0
 40
1
 40
1
 40
1
 40
1
 10
52.5085472839218
 20
20.7194386439549
 30
0
 41
1
 10
52.5099149360261
 20
20.7090317270453
 30
0
 41
1
 10
52.5113777796
 20
20.6986378294453
 30
0
 41
1
 10
52.5128423727232
 20
20.6882442432031
 30
0
 41
1
  0
SPLINE
  5
267
100
AcDbEntity
  8
0
100
AcDbSpline
 70
12
 71
3
 72
8
 73
4
 40
0
 40
0
 40
0
 40
0
 40
1
 40
1
 40
1
 40
1
 10
52.5128423727232
 20
20.6882442432031
 30
0
 41
1
 10
52.5157697982711
 20
20.6674695656387
 30
0
 41
1
 10
52.5187042136062
 20
20.6466961320087
 30
0
 41
1
 10
52.5217389764067
 20
20.6259366388083
 30
0
 41
1
  0
SPLINE
  5
268
100
AcDbEntity
  8
0
100
AcDbSpline
 70
12
 71
3
 72
8
 73
4
 40
0
 40
0
 40
0
 40
0
 40
1
 40
1
 40
1
 40
1
 10
52.4237134211401
 20
20.3863989828491
 30
0
 41
1
 10
52.3554929381199
 20
20.333588010319
 30
0
 41
1
 10
52.2872724550997
 20
20.2807770377889
 30
0
 41
1
 10
52.2190519720795
 20
20.2279660652587
 30
0
 41
1
  0
SPLINE
  5
269
100
AcDbEntity
  8
0
100
AcDbSpline
 70
12
 71
3
 72
8
 73
4
 40
0
 40
0
 40
0
 40
0
 40
1
 40
1
 40
1
 40
1
 10
52.5217389764067
 20
20.6259366388083
 30
0
 41
1
 10
52.4890637913179
 20
20.5460907534886
 30
0
 41
1
 10
52.456388606229
 20
20.4662448681688
 30
0
 41
1
 10
52.4237134211401
 20
20.3863989828491
 30
0
 41
1
  0
SPLINE
  5
270
100
AcDbEntity
  8
0
100
AcDbSpline
 70
12
 71
3
 72
8
 73
4
 40
0
 40
0
 40
0
 40
0
 40
1
 40
1
 40
1
 40
1
 10
53.352778769576
 20
17.0141411057001
 30
0
 41
1
 10
53.524841788215
 20
16.9456716417941
 30
0
 41
1
 10
53.696904806854
 20
16.877202177888
 30
0
 41
1
 10
53.868967825493
 20
16.8087327139819
 30
0
 41
1
  0
SPLINE
  5
271
100
AcDbEntity
  8
0
100
AcDbSpline
 70
12
 71
3
 72
8
 73
4
 40
0
 40
0
 40
0
 40
0
 40
1
 40
1
 40
1
 40
1
 10
53.868967825493
 20
16.8087327139819
 30
0
 41
1
 10
53.9123254874754
 20
16.7368387228627
 30
0
 41
1
 10
53.9556831494577
 20
16.6649447317435
 30
0
 41
1
 10
53.9990408114401
 20
16.5930507406243
 30
0
 41
1
  0
SPLINE
  5
272
100
AcDbEntity
  8
0
100
AcDbSpline
 70
12
 71
3
 72
8
 73
4
 40
0
 40
0
 40
0
 40
0
 40
1
 40
1
 40
1
 40
1
 10
54.2299844924398
 20
14.9336869319619
 30
0
 41
1
 10
54.1564286978422
 20
14.888602808324
 30
0
 41
1
 10
54.0828729032445
 20
14.8435186846862
 30
0
 41
1
 10
54.0093171086468
 20
14.7984345610484
 30
0
 41
1
  0
SPLINE
  5
273
100
AcDbEntity
  8
0
100
AcDbSpline
 70
12
 71
3
 72
8
 73
4
 40
0
 40
0
 40
0
 40
0
 40
1
 40
1
 40
1
 40
1
 10
53.9990408114401
 20
16.5930507406243
 30
0
 41
1
 10
54.1149150642594
 20
16.2019946132828
 30
0
 41
1
 10
54.2307893170786
 20
15.8109384859412
 30
0
 41
1
 10
54.3466635698979
 20
15.4198823585997
 30
0
 41
1
  0
SPLINE
  5
274
100
AcDbEntity
  8
0
100
AcDbSpline
 70
12
 71
3
 72
8
 73
4
 40
0
 40
0
 40
0
 40
0
 40
1
 40
1
 40
1
 40
1
 10
54.3534618671345
 20
15.1611526129915
 30
0
 41
1
 10
54.3123027422363
 20
15.085330719315
 30
0
 41
1
 10
54.2711436173381
 20
15.0095088256384
 30
0
 41
1
 10
54.2299844924398
 20
14.9336869319619
 30
0
 41
1
  0
SPLINE
  5
275
100
AcDbEntity
  8
0
100
AcDbSpline
 70
12
 71
3
 72
8
 73
4
 40
0
 40
0
 40
0
 40
0
 40
1
 40
1
 40
1
 40
1
 10
54.3466635698979
 20
15.4198823585997
 30
0
 41
1
 10
54.3489296689768
 20
15.3336391100636
 30
0
 41
1
 10
54.3511957680556
 20
15.2473958615276
 30
0
 41
1
 10
54.3534618671345
 20
15.1611526129915
 30
0
 41
1
  0
SPLINE
  5
276
100
AcDbEntity
  8
0
100
AcDbSpline
 70
12
 71
3
 72
8
 73
4
 40
0
 40
0
 40
0
 40
0
 40
1
 40
1
 40
1
 40
1
 10
54.6996661084687
 20
11.9977717773775
 30
0
 41
1
 10
54.8477141886909
 20
11.9473572355739
 30
0
 41
1
 10
54.9957622689131
 20
11.8969426937702
 30
0
 41
1
 10
55.1438103491353
 20
11.8465281519666
 30
0
 41
1
  0
SPLINE
  5
277
100
AcDbEntity
  8
0
100
AcDbSpline
 70
12
 71
3
 72
8
 73
4
 40
0
 40
0
 40
0
 40
0
 40
1
 40
1
 40
1
 40
1
 10
55.3405956146353
 20
10.0668199486798
 30
0
 41
1
 10
55.2632557215691
 20
10.0285894103159
 30
0
 41
1
 10
55.1859158285029
 20
9.99035887195187
 30
0
 41
1
 10
55.1085759354367
 20
9.95212833358789
 30
0
 41
1
  0
SPLINE
  5
278
100
AcDbEntity
  8
0
100
AcDbSpline
 70
12
 71
3
 72
8
 73
4
 40
0
 40
0
 40
0
 40
0
 40
1
 40
1
 40
1
 40
1
 10
55.1438103491353
 20
11.8465281519666
 30
0
 41
1
 10
55.1936526941682
 20
11.757234936213
 30
0
 41
1
 10
55.2434950392011
 20
11.6679417204595
 30
0
 41
1
 10
55.293337384234
 20
11.578648504706
 30
0
 41
1
  0
SPLINE
  5
279
100
AcDbEntity
  8
0
100
AcDbSpline
 70
12
 71
3
 72
8
 73
4
 40
0
 40
0
 40
0
 40
0
 40
1
 40
1
 40
1
 40
1
 10
55.4841847434531
 20
10.2821556405498
 30
0
 41
1
 10
55.4363217005138
 20
10.2103770765931
 30
0
 41
1
 10
55.3884586575745
 20
10.1385985126365
 30
0
 41
1
 10
55.3405956146353
 20
10.0668199486798
 30
0
 41
1
  0
SPLINE
  5
280
100
AcDbEntity
  8
0
100
AcDbSpline
 70
12
 71
3
 72
8
 73
4
 40
0
 40
0
 40
0
 40
0
 40
1
 40
1
 40
1
 40
1
 10
55.293337384234
 20
11.578648504706
 30
0
 41
1
 10
55.3625144997499
 20
11.2325777979572
 30
0
 41
1
 10
55.4316916152658
 20
10.8865070912084
 30
0
 41
1
 10
55.5008687307817
 20
10.5404363844596
 30
0
 41
1
  0
SPLINE
  5
281
100
AcDbEntity
  8
0
100
AcDbSpline
 70
12
 71
3
 72
8
 73
4
 40
0
 40
0
 40
0
 40
0
 40
1
 40
1
 40
1
 40
1
 10
55.5233734839706
 20
7.2907473526044
 30
0
 41
1
 10
55.6088762507574
 20
7.27629668271702
 30
0
 41
1
 10
55.6943790175442
 20
7.26184601282964
 30
0
 41
1
 10
55.779881784331
 20
7.24739534294226
 30
0
 41
1
  0
SPLINE
  5
282
100
AcDbEntity
  8
0
100
AcDbSpline
 70
12
 71
3
 72
8
 73
4
 40
0
 40
0
 40
0
 40
0
 40
1
 40
1
 40
1
 40
1
 10
55.5008687307817
 20
10.5404363844596
 30
0
 41
1
 10
55.4953074016722
 20
10.4543428031563
 30
0
 41
1
 10
55.4897460725626
 20
10.3682492218531
 30
0
 41
1
 10
55.4841847434531
 20
10.2821556405498
 30
0
 41
1
  0
SPLINE
  5
283
100
AcDbEntity
  8
0
100
AcDbSpline
 70
12
 71
3
 72
8
 73
4
 40
0
 40
0
 40
0
 40
0
 40
1
 40
1
 40
1
 40
1
 10
55.9884002088807
 20
5.40630898115799
 30
0
 41
1
 10
55.9081091568245
 20
5.37474349236406
 30
0
 41
1
 10
55.8278181047683
 20
5.34317800357014
 30
0
 41
1
 10
55.7475270527122
 20
5.31161251477621
 30
0
 41
1
  0
SPLINE
  5
284
100
AcDbEntity
  8
0
100
AcDbSpline
 70
12
 71
3
 72
8
 73
4
 40
0
 40
0
 40
0
 40
0
 40
1
 40
1
 40
1
 40
1
 10
55.779881784331
 20
7.24739534294226
 30
0
 41
1
 10
55.8473638255375
 20
7.19364399656199
 30
0
 41
1
 10
55.914845866744
 20
7.13989265018173
 30
0
 41
1
 10
55.9823279079505
 20
7.08614130380147
 30
0
 41
1
  0
SPLINE
  5
285
100
AcDbEntity
  8
0
100
AcDbSpline
 70
12
 71
3
 72
8
 73
4
 40
0
 40
0
 40
0
 40
0
 40
1
 40
1
 40
1
 40
1
 10
56.1496542480214
 20
5.60875510477749
 30
0
 41
1
 10
56.0959029016412
 20
5.54127306357099
 30
0
 41
1
 10
56.0421515552609
 20
5.47379102236449
 30
0
 41
1
 10
55.9884002088807
 20
5.40630898115799
 30
0
 41
1
  0
SPLINE
  5
286
100
AcDbEntity
  8
0
100
AcDbSpline
 70
12
 71
3
 72
8
 73
4
 40
0
 40
0
 40
0
 40
0
 40
1
 40
1
 40
1
 40
1
 10
55.9823279079505
 20
7.08614130380147
 30
0
 41
1
 10
56.0138933967444
 20
7.0058502517453
 30
0
 41
1
 10
56.0454588855384
 20
6.92555919968912
 30
0
 41
1
 10
56.0770243743323
 20
6.84526814763295
 30
0
 41
1
  0
SPLINE
  5
287
100
AcDbEntity
  8
0
100
AcDbSpline
 70
12
 71
3
 72
8
 73
4
 40
0
 40
0
 40
0
 40
0
 40
1
 40
1
 40
1
 40
1
 10
56.0770243743323
 20
6.84526814763295
 30
0
 41
1
 10
56.1140433430784
 20
6.51841396852199
 30
0
 41
1
 10
56.1510623118244
 20
6.19155978941102
 30
0
 41
1
 10
56.1880812805705
 20
5.86470561030006
 30
0
 41
1
  0
SPLINE
  5
288
100
AcDbEntity
  8
0
100
AcDbSpline
 70
12
 71
3
 72
8
 73
4
 40
0
 40
0
 40
0
 40
0
 40
1
 40
1
 40
1
 40
1
 10
56.1880812805705
 20
5.86470561030006
 30
0
 41
1
 10
56.1752722697208
 20
5.77938877512587
 30
0
 41
1
 10
56.1624632588711
 20
5.69407193995168
 30
0
 41
1
 10
56.1496542480214
 20
5.60875510477749
 30
0
 41
1
  0
SPLINE
  5
289
100
AcDbEntity
  8
0
100
AcDbSpline
 70
12
 71
3
 72
8
 73
4
 40
0
 40
0
 40
0
 40
0
 40
1
 40
1
 40
1
 40
1
 10
57.421198248388
 20
3.00931748396927
 30
0
 41
1
 10
57.2547599925956
 20
3.00059482459545
 30
0
 41
1
 10
57.0883217368031
 20
2.99187216522162
 30
0
 41
1
 10
56.9218834810107
 20
2.9831495058478
 30
0
 41
1
  0
SPLINE
  5
290
100
AcDbEntity
  8
0
100
AcDbSpline
 70
12
 71
2
 72
6
 73
3
 40
0
 40
0
 40
0
 40
1
 40
1
 40
1
 10
14.9794430213186
 20
0.785039343644158
 30
0
 41
1
 10
14.5262003449412
 20
9.43342480431313
 30
0
 41
0.807007203691177
 10
6.8098574960932
 20
13.3650978628255
 30
0
 41
0.868347502412605
  0
SPLINE
  5
291
100
AcDbEntity
  8
0
100
AcDbSpline
 70
12
 71
2
 72
6
 73
3
 40
0
 40
0
 40
0
 40
1
 40
1
 40
1
 10
45.0152315342902
 20
34.9661111637289
 30
0
 41
1
 10
37.2117785007914
 20
45.0122518382697
 30
0
 41
0.915381262581661
 10
25.8774588331515
 20
50.7873725617206
 30
0
 41
0.87965632168945
  0
SPLINE
  5
292
100
AcDbEntity
  8
0
100
AcDbSpline
 70
12
 71
2
 72
6
 73
3
 40
0
 40
0
 40
0
 40
1
 40
1
 40
1
 10
26.1044537350239
 20
51.2328751408311
 30
0
 41
1
 10
55.6837679889411
 20
36.1614617498668
 30
0
 41
0.80700720369118
 10
57.4211982483882
 20
3.00931748396928
 30
0
 41
0.868347502412602
  0
SPLINE
  5
293
100
AcDbEntity
  8
0
100
AcDbSpline
 70
12
 71
2
 72
6
 73
3
 40
0
 40
0
 40
0
 40
1
 40
1
 40
1
 10
50.2524761865879
 20
26.9014616167304
 30
0
 41
1
 10
47.9752002299059
 20
31.1554593144719
 30
0
 41
0.966123634853891
 10
45.0152315342902
 20
34.9661111637289
 30
0
 41
0.940083628092326
  0
SPLINE
  5
294
100
AcDbEntity
  8
0
100
AcDbSpline
 70
12
 71
2
 72
6
 73
3
 40
0
 40
0
 40
0
 40
1
 40
1
 40
1
 10
56.9218834810107
 20
2.9831495058478
 30
0
 41
1
 10
56.2561159418611
 20
15.6865145115249
 30
0
 41
0.915381679422337
 10
50.2524736990056
 20
26.9014602850651
 30
0
 41
0.879656673660164
  0
SPLINE
  5
295
100
AcDbEntity
  8
0
100
AcDbSpline
 70
12
 71
3
 72
8
 73
4
 40
0
 40
0
 40
0
 40
0
 40
1
 40
1
 40
1
 40
1
 10
28.75
 20
49.7964607176052
 30
0
 41
1
 10
28.8333333333333
 20
49.9407982849026
 30
0
 41
1
 10
28.9166666666667
 20
50.0851358522
 30
0
 41
1
 10
29
 20
50.2294734194974
 30
0
 41
1
  0
SPLINE
  5
296
100
AcDbEntity
  8
0
100
AcDbSpline
 70
12
 71
3
 72
8
 73
4
 40
0
 40
0
 40
0
 40
0
 40
1
 40
1
 40
1
 40
1
 10
29
 20
50.2294734194974
 30
0
 41
1
 10
34.3333333333333
 20
59.4670777265314
 30
0
 41
1
 10
39.6666666666667
 20
68.7046820335654
 30
0
 41
1
 10
45
 20
77.9422863405994
 30
0
 41
1
  0
SPLINE
  5
297
100
AcDbEntity
  8
0
100
AcDbSpline
 70
12
 71
3
 72
8
 73
4
 40
0
 40
0
 40
0
 40
0
 40
1
 40
1
 40
1
 40
1
 10
32.4433362720996
 20
48.0773328246843
 30
0
 41
1
 10
32.63452841755
 20
48.3503835061139
 30
0
 41
1
 10
32.8257205630003
 20
48.6234341875436
 30
0
 41
1
 10
33.0169127084507
 20
48.8964848689733
 30
0
 41
1
  0
SPLINE
  5
298
100
AcDbEntity
  8
0
100
AcDbSpline
 70
12
 71
3
 72
8
 73
4
 40
0
 40
0
 40
0
 40
0
 40
1
 40
1
 40
1
 40
1
 10
33.0169127084507
 20
48.8964848689733
 30
0
 41
1
 10
32.9254973986213
 20
49.3674194209441
 30
0
 41
1
 10
32.834082088792
 20
49.8383539729148
 30
0
 41
1
 10
32.7426667789626
 20
50.3092885248856
 30
0
 41
1
  0
SPLINE
  5
299
100
AcDbEntity
  8
0
100
AcDbSpline
 70
12
 71
3
 72
8
 73
4
 40
0
 40
0
 40
0
 40
0
 40
1
 40
1
 40
1
 40
1
 10
32.7426667789626
 20
50.3092885248856
 30
0
 41
1
 10
35.5874529896955
 20
55.2350704451837
 30
0
 41
1
 10
38.4322392004284
 20
60.1608523654817
 30
0
 41
1
 10
41.2770254111612
 20
65.0866342857798
 30
0
 41
1
  0
SPLINE
  5
300
100
AcDbEntity
  8
0
100
AcDbSpline
 70
12
 71
3
 72
8
 73
4
 40
0
 40
0
 40
0
 40
0
 40
1
 40
1
 40
1
 40
1
 10
34.6552167970286
 20
47.7493319962712
 30
0
 41
1
 10
34.4640246515783
 20
47.4762813148415
 30
0
 41
1
 10
34.2728325061279
 20
47.2032306334119
 30
0
 41
1
 10
34.0816403606776
 20
46.9301799519822
 30
0
 41
1
  0
SPLINE
  5
301
100
AcDbEntity
  8
0
100
AcDbSpline
 70
12
 71
3
 72
8
 73
4
 40
0
 40
0
 40
0
 40
0
 40
1
 40
1
 40
1
 40
1
 10
34.166935044717
 20
51.6337719784867
 30
0
 41
1
 10
35.0559881933224
 20
51.0112502619641
 30
0
 41
1
 10
35.9450413419279
 20
50.3887285454416
 30
0
 41
1
 10
36.8340944905333
 20
49.766206828919
 30
0
 41
1
  0
SPLINE
  5
302
100
AcDbEntity
  8
0
100
AcDbSpline
 70
12
 71
3
 72
8
 73
4
 40
0
 40
0
 40
0
 40
0
 40
1
 40
1
 40
1
 40
1
 10
42.8543481219008
 20
64.0406836484121
 30
0
 41
1
 10
39.9585437628395
 20
59.9050464251036
 30
0
 41
1
 10
37.0627394037783
 20
55.7694092017952
 30
0
 41
1
 10
34.166935044717
 20
51.6337719784867
 30
0
 41
1
  0
SPLINE
  5
303
100
AcDbEntity
  8
0
100
AcDbSpline
 70
12
 71
3
 72
8
 73
4
 40
0
 40
0
 40
0
 40
0
 40
1
 40
1
 40
1
 40
1
 10
36.0766155992188
 20
47.9748324289369
 30
0
 41
1
 10
35.6028159984887
 20
47.8996656180483
 30
0
 41
1
 10
35.1290163977587
 20
47.8244988071597
 30
0
 41
1
 10
34.6552167970286
 20
47.7493319962712
 30
0
 41
1
  0
SPLINE
  5
304
100
AcDbEntity
  8
0
100
AcDbSpline
 70
12
 71
3
 72
8
 73
4
 40
0
 40
0
 40
0
 40
0
 40
1
 40
1
 40
1
 40
1
 10
47.0438558029557
 20
61.0486561738684
 30
0
 41
1
 10
43.3881090683768
 20
56.6907149255579
 30
0
 41
1
 10
39.7323623337978
 20
52.3327736772474
 30
0
 41
1
 10
36.0766155992188
 20
47.9748324289369
 30
0
 41
1
  0
SPLINE
  5
305
100
AcDbEntity
  8
0
100
AcDbSpline
 70
12
 71
3
 72
8
 73
4
 40
0
 40
0
 40
0
 40
0
 40
1
 40
1
 40
1
 40
1
 10
36.8340944905333
 20
49.766206828919
 30
0
 41
1
 10
39.7298988495945
 20
53.9018440522274
 30
0
 41
1
 10
42.6257032086558
 20
58.0374812755359
 30
0
 41
1
 10
45.521507567717
 20
62.1731184988443
 30
0
 41
1
  0
SPLINE
  5
306
100
AcDbEntity
  8
0
100
AcDbSpline
 70
12
 71
3
 72
8
 73
4
 40
0
 40
0
 40
0
 40
0
 40
1
 40
1
 40
1
 40
1
 10
40.2989903264388
 20
41.7132038888119
 30
0
 41
1
 10
40.5346925868343
 20
41.9489061492074
 30
0
 41
1
 10
40.7703948472298
 20
42.1846084096029
 30
0
 41
1
 10
41.0060971076254
 20
42.4203106699984
 30
0
 41
1
  0
SPLINE
  5
307
100
AcDbEntity
  8
0
100
AcDbSpline
 70
12
 71
3
 72
8
 73
4
 40
0
 40
0
 40
0
 40
0
 40
1
 40
1
 40
1
 40
1
 10
41.0060971076254
 20
42.4203106699984
 30
0
 41
1
 10
40.9978475285115
 20
42.8999647699033
 30
0
 41
1
 10
40.9895979493977
 20
43.3796188698082
 30
0
 41
1
 10
40.9813483702838
 20
43.8592729697131
 30
0
 41
1
  0
SPLINE
  5
308
100
AcDbEntity
  8
0
100
AcDbSpline
 70
12
 71
3
 72
8
 73
4
 40
0
 40
0
 40
0
 40
0
 40
1
 40
1
 40
1
 40
1
 10
40.9813483702838
 20
43.8592729697131
 30
0
 41
1
 10
44.6382689403203
 20
48.2162292531242
 30
0
 41
1
 10
48.2951895103567
 20
52.5731855365353
 30
0
 41
1
 10
51.9521100803931
 20
56.9301418199464
 30
0
 41
1
  0
SPLINE
  5
309
100
AcDbEntity
  8
0
100
AcDbSpline
 70
12
 71
3
 72
8
 73
4
 40
0
 40
0
 40
0
 40
0
 40
1
 40
1
 40
1
 40
1
 10
41.2770254111612
 20
65.0866342857798
 30
0
 41
1
 10
41.3758058220299
 20
65.1985660985562
 30
0
 41
1
 10
41.4745862328985
 20
65.3104979113327
 30
0
 41
1
 10
41.5733666437672
 20
65.4224297241091
 30
0
 41
1
  0
SPLINE
  5
310
100
AcDbEntity
  8
0
100
AcDbSpline
 70
12
 71
3
 72
8
 73
4
 40
0
 40
0
 40
0
 40
0
 40
1
 40
1
 40
1
 40
1
 10
41.5733666437672
 20
65.4224297241091
 30
0
 41
1
 10
41.6945775950183
 20
65.509574463363
 30
0
 41
1
 10
41.8157885462694
 20
65.5967192026168
 30
0
 41
1
 10
41.9369994975206
 20
65.6838639418707
 30
0
 41
1
  0
SPLINE
  5
311
100
AcDbEntity
  8
0
100
AcDbSpline
 70
12
 71
3
 72
8
 73
4
 40
0
 40
0
 40
0
 40
0
 40
1
 40
1
 40
1
 40
1
 10
42.4203106699985
 20
41.0060971076253
 30
0
 41
1
 10
42.1846084096029
 20
40.7703948472298
 30
0
 41
1
 10
41.9489061492074
 20
40.5346925868343
 30
0
 41
1
 10
41.7132038888119
 20
40.2989903264388
 30
0
 41
1
  0
SPLINE
  5
312
100
AcDbEntity
  8
0
100
AcDbSpline
 70
12
 71
3
 72
8
 73
4
 40
0
 40
0
 40
0
 40
0
 40
1
 40
1
 40
1
 40
1
 10
41.9369994975206
 20
65.6838639418707
 30
0
 41
1
 10
42.0745629659255
 20
65.741851806491
 30
0
 41
1
 10
42.2121264343305
 20
65.7998396711112
 30
0
 41
1
 10
42.3496899027355
 20
65.8578275357315
 30
0
 41
1
  0
SPLINE
  5
313
100
AcDbEntity
  8
0
100
AcDbSpline
 70
12
 71
3
 72
8
 73
4
 40
0
 40
0
 40
0
 40
0
 40
1
 40
1
 40
1
 40
1
 10
42.3496899027355
 20
65.8578275357315
 30
0
 41
1
 10
42.4967078815734
 20
65.8837507720499
 30
0
 41
1
 10
42.6437258604114
 20
65.9096740083683
 30
0
 41
1
 10
42.7907438392494
 20
65.9355972446866
 30
0
 41
1
  0
SPLINE
  5
314
100
AcDbEntity
  8
0
100
AcDbSpline
 70
12
 71
3
 72
8
 73
4
 40
0
 40
0
 40
0
 40
0
 40
1
 40
1
 40
1
 40
1
 10
43.8592729697131
 20
40.9813483702838
 30
0
 41
1
 10
43.3796188698082
 20
40.9895979493977
 30
0
 41
1
 10
42.8999647699033
 20
40.9978475285115
 30
0
 41
1
 10
42.4203106699985
 20
41.0060971076253
 30
0
 41
1
  0
SPLINE
  5
315
100
AcDbEntity
  8
0
100
AcDbSpline
 70
12
 71
3
 72
8
 73
4
 40
0
 40
0
 40
0
 40
0
 40
1
 40
1
 40
1
 40
1
 10
42.6139729388359
 20
44.9163129546987
 30
0
 41
1
 10
43.3814196107902
 20
44.1488662827445
 30
0
 41
1
 10
44.1488662827445
 20
43.3814196107902
 30
0
 41
1
 10
44.9163129546987
 20
42.6139729388359
 30
0
 41
1
  0
SPLINE
  5
316
100
AcDbEntity
  8
0
100
AcDbSpline
 70
12
 71
3
 72
8
 73
4
 40
0
 40
0
 40
0
 40
0
 40
1
 40
1
 40
1
 40
1
 10
53.3238422928232
 20
55.626182308686
 30
0
 41
1
 10
49.7538858414941
 20
52.0562258573569
 30
0
 41
1
 10
46.183929390165
 20
48.4862694060278
 30
0
 41
1
 10
42.6139729388359
 20
44.9163129546987
 30
0
 41
1
  0
SPLINE
  5
317
100
AcDbEntity
  8
0
100
AcDbSpline
 70
12
 71
3
 72
8
 73
4
 40
0
 40
0
 40
0
 40
0
 40
1
 40
1
 40
1
 40
1
 10
42.7907438392494
 20
65.9355972446866
 30
0
 41
1
 10
42.9398442331679
 20
65.9281559533881
 30
0
 41
1
 10
43.0889446270863
 20
65.9207146620896
 30
0
 41
1
 10
43.2380450210048
 20
65.913273370791
 30
0
 41
1
  0
SPLINE
  5
318
100
AcDbEntity
  8
0
100
AcDbSpline
 70
12
 71
3
 72
8
 73
4
 40
0
 40
0
 40
0
 40
0
 40
1
 40
1
 40
1
 40
1
 10
45.521507567717
 20
62.1731184988443
 30
0
 41
1
 10
44.6324544191116
 20
62.7956402153669
 30
0
 41
1
 10
43.7434012705062
 20
63.4181619318895
 30
0
 41
1
 10
42.8543481219008
 20
64.0406836484121
 30
0
 41
1
  0
SPLINE
  5
319
100
AcDbEntity
  8
0
100
AcDbSpline
 70
12
 71
3
 72
8
 73
4
 40
0
 40
0
 40
0
 40
0
 40
1
 40
1
 40
1
 40
1
 10
43.2380450210048
 20
65.913273370791
 30
0
 41
1
 10
43.3817513136636
 20
65.8728406892935
 30
0
 41
1
 10
43.5254576063224
 20
65.8324080077959
 30
0
 41
1
 10
43.6691638989812
 20
65.7919753262983
 30
0
 41
1
  0
SPLINE
  5
320
100
AcDbEntity
  8
0
100
AcDbSpline
 70
12
 71
3
 72
8
 73
4
 40
0
 40
0
 40
0
 40
0
 40
1
 40
1
 40
1
 40
1
 10
43.6691638989812
 20
65.7919753262983
 30
0
 41
1
 10
43.8002700568012
 20
65.7205787180841
 30
0
 41
1
 10
43.9313762146213
 20
65.6491821098699
 30
0
 41
1
 10
44.0624823724413
 20
65.5777855016557
 30
0
 41
1
  0
SPLINE
  5
321
100
AcDbEntity
  8
0
100
AcDbSpline
 70
12
 71
3
 72
8
 73
4
 40
0
 40
0
 40
0
 40
0
 40
1
 40
1
 40
1
 40
1
 10
56.9301418199464
 20
51.9521100803931
 30
0
 41
1
 10
52.5731855365353
 20
48.2951895103567
 30
0
 41
1
 10
48.2162292531242
 20
44.6382689403202
 30
0
 41
1
 10
43.8592729697131
 20
40.9813483702838
 30
0
 41
1
  0
SPLINE
  5
322
100
AcDbEntity
  8
0
100
AcDbSpline
 70
12
 71
3
 72
8
 73
4
 40
0
 40
0
 40
0
 40
0
 40
1
 40
1
 40
1
 40
1
 10
44.0624823724413
 20
65.5777855016557
 30
0
 41
1
 10
44.8925564439875
 20
64.9965613794866
 30
0
 41
1
 10
45.7226305155337
 20
64.4153372573175
 30
0
 41
1
 10
46.5527045870798
 20
63.8341131351485
 30
0
 41
1
  0
SPLINE
  5
323
100
AcDbEntity
  8
0
100
AcDbSpline
 70
12
 71
3
 72
8
 73
4
 40
0
 40
0
 40
0
 40
0
 40
1
 40
1
 40
1
 40
1
 10
44.9163129546987
 20
42.6139729388359
 30
0
 41
1
 10
48.4862694060278
 20
46.183929390165
 30
0
 41
1
 10
52.0562258573569
 20
49.7538858414941
 30
0
 41
1
 10
55.626182308686
 20
53.3238422928232
 30
0
 41
1
  0
SPLINE
  5
324
100
AcDbEntity
  8
0
100
AcDbSpline
 70
12
 71
3
 72
8
 73
4
 40
0
 40
0
 40
0
 40
0
 40
1
 40
1
 40
1
 40
1
 10
46.5527045870798
 20
63.8341131351485
 30
0
 41
1
 10
46.6646363998563
 20
63.7353327242799
 30
0
 41
1
 10
46.7765682126328
 20
63.6365523134113
 30
0
 41
1
 10
46.8885000254093
 20
63.5377719025427
 30
0
 41
1
  0
SPLINE
  5
325
100
AcDbEntity
  8
0
100
AcDbSpline
 70
12
 71
3
 72
8
 73
4
 40
0
 40
0
 40
0
 40
0
 40
1
 40
1
 40
1
 40
1
 10
46.8885000254093
 20
63.5377719025427
 30
0
 41
1
 10
46.9756447646632
 20
63.4165609512915
 30
0
 41
1
 10
47.062789503917
 20
63.2953500000404
 30
0
 41
1
 10
47.1499342431709
 20
63.1741390487893
 30
0
 41
1
  0
SPLINE
  5
326
100
AcDbEntity
  8
0
100
AcDbSpline
 70
12
 71
3
 72
8
 73
4
 40
0
 40
0
 40
0
 40
0
 40
1
 40
1
 40
1
 40
1
 10
46.9301799519822
 20
34.0816403606776
 30
0
 41
1
 10
47.2032306334119
 20
34.2728325061279
 30
0
 41
1
 10
47.4762813148415
 20
34.4640246515783
 30
0
 41
1
 10
47.7493319962712
 20
34.6552167970286
 30
0
 41
1
  0
SPLINE
  5
327
100
AcDbEntity
  8
0
100
AcDbSpline
 70
12
 71
3
 72
8
 73
4
 40
0
 40
0
 40
0
 40
0
 40
1
 40
1
 40
1
 40
1
 10
47.2580456275984
 20
61.4419746473285
 30
0
 41
1
 10
47.1866490193841
 20
61.3108684895085
 30
0
 41
1
 10
47.1152524111699
 20
61.1797623316884
 30
0
 41
1
 10
47.0438558029557
 20
61.0486561738684
 30
0
 41
1
  0
SPLINE
  5
328
100
AcDbEntity
  8
0
100
AcDbSpline
 70
12
 71
3
 72
8
 73
4
 40
0
 40
0
 40
0
 40
0
 40
1
 40
1
 40
1
 40
1
 10
47.1499342431709
 20
63.1741390487893
 30
0
 41
1
 10
47.2079221077912
 20
63.0365755803843
 30
0
 41
1
 10
47.2659099724114
 20
62.8990121119793
 30
0
 41
1
 10
47.3238978370317
 20
62.7614486435743
 30
0
 41
1
  0
SPLINE
  5
329
100
AcDbEntity
  8
0
100
AcDbSpline
 70
12
 71
3
 72
8
 73
4
 40
0
 40
0
 40
0
 40
0
 40
1
 40
1
 40
1
 40
1
 10
47.3793436720912
 20
61.873093525305
 30
0
 41
1
 10
47.3389109905936
 20
61.7293872326462
 30
0
 41
1
 10
47.298478309096
 20
61.5856809399873
 30
0
 41
1
 10
47.2580456275984
 20
61.4419746473285
 30
0
 41
1
  0
SPLINE
  5
330
100
AcDbEntity
  8
0
100
AcDbSpline
 70
12
 71
3
 72
8
 73
4
 40
0
 40
0
 40
0
 40
0
 40
1
 40
1
 40
1
 40
1
 10
47.3238978370317
 20
62.7614486435743
 30
0
 41
1
 10
47.34982107335
 20
62.6144306647363
 30
0
 41
1
 10
47.3757443096684
 20
62.4674126858983
 30
0
 41
1
 10
47.4016675459868
 20
62.3203947070603
 30
0
 41
1
  0
SPLINE
  5
331
100
AcDbEntity
  8
0
100
AcDbSpline
 70
12
 71
3
 72
8
 73
4
 40
0
 40
0
 40
0
 40
0
 40
1
 40
1
 40
1
 40
1
 10
47.4016675459868
 20
62.3203947070603
 30
0
 41
1
 10
47.3942262546883
 20
62.1712943131419
 30
0
 41
1
 10
47.3867849633897
 20
62.0221939192234
 30
0
 41
1
 10
47.3793436720912
 20
61.873093525305
 30
0
 41
1
  0
SPLINE
  5
332
100
AcDbEntity
  8
0
100
AcDbSpline
 70
12
 71
3
 72
8
 73
4
 40
0
 40
0
 40
0
 40
0
 40
1
 40
1
 40
1
 40
1
 10
47.7493319962712
 20
34.6552167970286
 30
0
 41
1
 10
47.8244988071597
 20
35.1290163977587
 30
0
 41
1
 10
47.8996656180483
 20
35.6028159984887
 30
0
 41
1
 10
47.9748324289369
 20
36.0766155992188
 30
0
 41
1
  0
SPLINE
  5
333
100
AcDbEntity
  8
0
100
AcDbSpline
 70
12
 71
3
 72
8
 73
4
 40
0
 40
0
 40
0
 40
0
 40
1
 40
1
 40
1
 40
1
 10
47.9748324289369
 20
36.0766155992188
 30
0
 41
1
 10
52.3327736772474
 20
39.7323623337978
 30
0
 41
1
 10
56.6907149255579
 20
43.3881090683767
 30
0
 41
1
 10
61.0486561738684
 20
47.0438558029557
 30
0
 41
1
  0
SPLINE
  5
334
100
AcDbEntity
  8
0
100
AcDbSpline
 70
12
 71
3
 72
8
 73
4
 40
0
 40
0
 40
0
 40
0
 40
1
 40
1
 40
1
 40
1
 10
48.8964848689733
 20
33.0169127084506
 30
0
 41
1
 10
48.6234341875436
 20
32.8257205630003
 30
0
 41
1
 10
48.350383506114
 20
32.63452841755
 30
0
 41
1
 10
48.0773328246843
 20
32.4433362720996
 30
0
 41
1
  0
SPLINE
  5
335
100
AcDbEntity
  8
0
100
AcDbSpline
 70
12
 71
3
 72
8
 73
4
 40
0
 40
0
 40
0
 40
0
 40
1
 40
1
 40
1
 40
1
 10
50.3092885248856
 20
32.7426667789626
 30
0
 41
1
 10
49.8383539729149
 20
32.8340820887919
 30
0
 41
1
 10
49.3674194209441
 20
32.9254973986213
 30
0
 41
1
 10
48.8964848689733
 20
33.0169127084506
 30
0
 41
1
  0
SPLINE
  5
336
100
AcDbEntity
  8
0
100
AcDbSpline
 70
12
 71
3
 72
8
 73
4
 40
0
 40
0
 40
0
 40
0
 40
1
 40
1
 40
1
 40
1
 10
49.766206828919
 20
36.8340944905333
 30
0
 41
1
 10
50.3887285454416
 20
35.9450413419279
 30
0
 41
1
 10
51.0112502619642
 20
35.0559881933224
 30
0
 41
1
 10
51.6337719784867
 20
34.166935044717
 30
0
 41
1
  0
SPLINE
  5
337
100
AcDbEntity
  8
0
100
AcDbSpline
 70
12
 71
3
 72
8
 73
4
 40
0
 40
0
 40
0
 40
0
 40
1
 40
1
 40
1
 40
1
 10
62.1731184988443
 20
45.521507567717
 30
0
 41
1
 10
58.0374812755359
 20
42.6257032086558
 30
0
 41
1
 10
53.9018440522274
 20
39.7298988495945
 30
0
 41
1
 10
49.766206828919
 20
36.8340944905333
 30
0
 41
1
  0
SPLINE
  5
338
100
AcDbEntity
  8
0
100
AcDbSpline
 70
12
 71
3
 72
8
 73
4
 40
0
 40
0
 40
0
 40
0
 40
1
 40
1
 40
1
 40
1
 10
65.0866342857798
 20
41.2770254111612
 30
0
 41
1
 10
60.1608523654817
 20
38.4322392004283
 30
0
 41
1
 10
55.2350704451837
 20
35.5874529896955
 30
0
 41
1
 10
50.3092885248856
 20
32.7426667789626
 30
0
 41
1
  0
SPLINE
  5
339
100
AcDbEntity
  8
0
100
AcDbSpline
 70
12
 71
3
 72
8
 73
4
 40
0
 40
0
 40
0
 40
0
 40
1
 40
1
 40
1
 40
1
 10
51.6337719784867
 20
34.166935044717
 30
0
 41
1
 10
55.7694092017952
 20
37.0627394037783
 30
0
 41
1
 10
59.9050464251036
 20
39.9585437628395
 30
0
 41
1
 10
64.0406836484121
 20
42.8543481219008
 30
0
 41
1
  0
SPLINE
  5
340
100
AcDbEntity
  8
0
100
AcDbSpline
 70
12
 71
3
 72
8
 73
4
 40
0
 40
0
 40
0
 40
0
 40
1
 40
1
 40
1
 40
1
 10
51.9521100803931
 20
56.9301418199464
 30
0
 41
1
 10
52.0688265501739
 20
57.0232200986408
 30
0
 41
1
 10
52.1855430199547
 20
57.1162983773352
 30
0
 41
1
 10
52.3022594897354
 20
57.2093766560297
 30
0
 41
1
  0
SPLINE
  5
341
100
AcDbEntity
  8
0
100
AcDbSpline
 70
12
 71
3
 72
8
 73
4
 40
0
 40
0
 40
0
 40
0
 40
1
 40
1
 40
1
 40
1
 10
52.1354198075015
 20
25.4145234363263
 30
0
 41
1
 10
52.4375224031804
 20
25.5553961902398
 30
0
 41
1
 10
52.7396249988593
 20
25.6962689441534
 30
0
 41
1
 10
53.0417275945382
 20
25.837141698067
 30
0
 41
1
  0
SPLINE
  5
342
100
AcDbEntity
  8
0
100
AcDbSpline
 70
12
 71
3
 72
8
 73
4
 40
0
 40
0
 40
0
 40
0
 40
1
 40
1
 40
1
 40
1
 10
52.3022594897354
 20
57.2093766560297
 30
0
 41
1
 10
52.4367614994422
 20
57.2741494100831
 30
0
 41
1
 10
52.571263509149
 20
57.3389221641365
 30
0
 41
1
 10
52.7057655188558
 20
57.4036949181899
 30
0
 41
1
  0
SPLINE
  5
343
100
AcDbEntity
  8
0
100
AcDbSpline
 70
12
 71
3
 72
8
 73
4
 40
0
 40
0
 40
0
 40
0
 40
1
 40
1
 40
1
 40
1
 10
52.7057655188558
 20
57.4036949181899
 30
0
 41
1
 10
52.8513085760903
 20
57.4369141712465
 30
0
 41
1
 10
52.9968516333249
 20
57.4701334243031
 30
0
 41
1
 10
53.1423946905595
 20
57.5033526773596
 30
0
 41
1
  0
SPLINE
  5
344
100
AcDbEntity
  8
0
100
AcDbSpline
 70
12
 71
3
 72
8
 73
4
 40
0
 40
0
 40
0
 40
0
 40
1
 40
1
 40
1
 40
1
 10
53.8869641180196
 20
24.0245261239937
 30
0
 41
1
 10
53.5848615223407
 20
23.8836533700801
 30
0
 41
1
 10
53.2827589266618
 20
23.7427806161665
 30
0
 41
1
 10
52.9806563309829
 20
23.601907862253
 30
0
 41
1
  0
SPLINE
  5
345
100
AcDbEntity
  8
0
100
AcDbSpline
 70
12
 71
3
 72
8
 73
4
 40
0
 40
0
 40
0
 40
0
 40
1
 40
1
 40
1
 40
1
 10
53.0417275945382
 20
25.837141698067
 30
0
 41
1
 10
53.1980268899165
 20
26.2906906385082
 30
0
 41
1
 10
53.3543261852949
 20
26.7442395789494
 30
0
 41
1
 10
53.5106254806732
 20
27.1977885193906
 30
0
 41
1
  0
SPLINE
  5
346
100
AcDbEntity
  8
0
100
AcDbSpline
 70
12
 71
3
 72
8
 73
4
 40
0
 40
0
 40
0
 40
0
 40
1
 40
1
 40
1
 40
1
 10
53.1423946905595
 20
57.5033526773596
 30
0
 41
1
 10
53.2916806586972
 20
57.5033526773597
 30
0
 41
1
 10
53.440966626835
 20
57.5033526773597
 30
0
 41
1
 10
53.5902525949727
 20
57.5033526773597
 30
0
 41
1
  0
SPLINE
  5
347
100
AcDbEntity
  8
0
100
AcDbSpline
 70
12
 71
3
 72
8
 73
4
 40
0
 40
0
 40
0
 40
0
 40
1
 40
1
 40
1
 40
1
 10
55.626182308686
 20
53.3238422928232
 30
0
 41
1
 10
54.8587356367318
 20
54.0912889647775
 30
0
 41
1
 10
54.0912889647775
 20
54.8587356367318
 30
0
 41
1
 10
53.3238422928232
 20
55.626182308686
 30
0
 41
1
  0
SPLINE
  5
348
100
AcDbEntity
  8
0
100
AcDbSpline
 70
12
 71
3
 72
8
 73
4
 40
0
 40
0
 40
0
 40
0
 40
1
 40
1
 40
1
 40
1
 10
53.5106254806732
 20
27.1977885193906
 30
0
 41
1
 10
58.4371735676526
 20
30.0412476905044
 30
0
 41
1
 10
63.363721654632
 20
32.8847068616181
 30
0
 41
1
 10
68.2902697416113
 20
35.7281660327319
 30
0
 41
1
  0
SPLINE
  5
349
100
AcDbEntity
  8
0
100
AcDbSpline
 70
12
 71
3
 72
8
 73
4
 40
0
 40
0
 40
0
 40
0
 40
1
 40
1
 40
1
 40
1
 10
53.5902525949727
 20
57.5033526773597
 30
0
 41
1
 10
53.7357956522073
 20
57.4701334243031
 30
0
 41
1
 10
53.8813387094419
 20
57.4369141712465
 30
0
 41
1
 10
54.0268817666765
 20
57.40369491819
 30
0
 41
1
  0
SPLINE
  5
350
100
AcDbEntity
  8
0
100
AcDbSpline
 70
12
 71
3
 72
8
 73
4
 40
0
 40
0
 40
0
 40
0
 40
1
 40
1
 40
1
 40
1
 10
55.2306818059579
 20
23.5091158261514
 30
0
 41
1
 10
54.7827759099784
 20
23.6809192587655
 30
0
 41
1
 10
54.334870013999
 20
23.8527226913796
 30
0
 41
1
 10
53.8869641180196
 20
24.0245261239937
 30
0
 41
1
  0
SPLINE
  5
351
100
AcDbEntity
  8
0
100
AcDbSpline
 70
12
 71
3
 72
8
 73
4
 40
0
 40
0
 40
0
 40
0
 40
1
 40
1
 40
1
 40
1
 10
54.0268817666765
 20
57.40369491819
 30
0
 41
1
 10
54.1613837763832
 20
57.3389221641366
 30
0
 41
1
 10
54.29588578609
 20
57.2741494100832
 30
0
 41
1
 10
54.4303877957968
 20
57.2093766560298
 30
0
 41
1
  0
SPLINE
  5
352
100
AcDbEntity
  8
0
100
AcDbSpline
 70
12
 71
3
 72
8
 73
4
 40
0
 40
0
 40
0
 40
0
 40
1
 40
1
 40
1
 40
1
 10
54.4303877957968
 20
57.2093766560298
 30
0
 41
1
 10
54.5471042655777
 20
57.1162983773354
 30
0
 41
1
 10
54.6638207353585
 20
57.0232200986409
 30
0
 41
1
 10
54.7805372051393
 20
56.9301418199464
 30
0
 41
1
  0
SPLINE
  5
353
100
AcDbEntity
  8
0
100
AcDbSpline
 70
12
 71
3
 72
8
 73
4
 40
0
 40
0
 40
0
 40
0
 40
1
 40
1
 40
1
 40
1
 10
54.7805372051393
 20
56.9301418199464
 30
0
 41
1
 10
55.4970720767417
 20
56.213606948344
 30
0
 41
1
 10
56.213606948344
 20
55.4970720767417
 30
0
 41
1
 10
56.9301418199464
 20
54.7805372051393
 30
0
 41
1
  0
SPLINE
  5
354
100
AcDbEntity
  8
0
100
AcDbSpline
 70
12
 71
3
 72
8
 73
4
 40
0
 40
0
 40
0
 40
0
 40
1
 40
1
 40
1
 40
1
 10
71.2655023042659
 20
29.3477592119939
 30
0
 41
1
 10
65.9205621381632
 20
27.4015447500464
 30
0
 41
1
 10
60.5756219720605
 20
25.4553302880989
 30
0
 41
1
 10
55.2306818059579
 20
23.5091158261514
 30
0
 41
1
  0
SPLINE
  5
355
100
AcDbEntity
  8
0
100
AcDbSpline
 70
12
 71
3
 72
8
 73
4
 40
0
 40
0
 40
0
 40
0
 40
1
 40
1
 40
1
 40
1
 10
55.4063197074211
 20
27.6326907042241
 30
0
 41
1
 10
55.8650014611667
 20
26.6490445090053
 30
0
 41
1
 10
56.3236832149122
 20
25.6653983137866
 30
0
 41
1
 10
56.7823649686577
 20
24.6817521185678
 30
0
 41
1
  0
SPLINE
  5
356
100
AcDbEntity
  8
0
100
AcDbSpline
 70
12
 71
3
 72
8
 73
4
 40
0
 40
0
 40
0
 40
0
 40
1
 40
1
 40
1
 40
1
 10
69.1332959603941
 20
34.0336848542972
 30
0
 41
1
 10
64.5576372094031
 20
31.9000201376061
 30
0
 41
1
 10
59.9819784584121
 20
29.7663554209151
 30
0
 41
1
 10
55.4063197074211
 20
27.6326907042241
 30
0
 41
1
  0
SPLINE
  5
357
100
AcDbEntity
  8
0
100
AcDbSpline
 70
12
 71
3
 72
8
 73
4
 40
0
 40
0
 40
0
 40
0
 40
1
 40
1
 40
1
 40
1
 10
55.7565513139653
 20
15.9751990777315
 30
0
 41
1
 10
56.078526589395
 20
16.0614720927657
 30
0
 41
1
 10
56.4005018648247
 20
16.1477451077999
 30
0
 41
1
 10
56.7224771402544
 20
16.2340181228341
 30
0
 41
1
  0
SPLINE
  5
358
100
AcDbEntity
  8
0
100
AcDbSpline
 70
12
 71
3
 72
8
 73
4
 40
0
 40
0
 40
0
 40
0
 40
1
 40
1
 40
1
 40
1
 10
57.2401152304594
 20
14.3021664702559
 30
0
 41
1
 10
56.9181399550297
 20
14.2158934552217
 30
0
 41
1
 10
56.5961646796
 20
14.1296204401876
 30
0
 41
1
 10
56.2741894041703
 20
14.0433474251534
 30
0
 41
1
  0
SPLINE
  5
359
100
AcDbEntity
  8
0
100
AcDbSpline
 70
12
 71
3
 72
8
 73
4
 40
0
 40
0
 40
0
 40
0
 40
1
 40
1
 40
1
 40
1
 10
56.7224771402544
 20
16.2340181228341
 30
0
 41
1
 10
56.9551598451237
 20
16.653535547938
 30
0
 41
1
 10
57.187842549993
 20
17.0730529730419
 30
0
 41
1
 10
57.4205252548623
 20
17.4925703981458
 30
0
 41
1
  0
SPLINE
  5
360
100
AcDbEntity
  8
0
100
AcDbSpline
 70
12
 71
3
 72
8
 73
4
 40
0
 40
0
 40
0
 40
0
 40
1
 40
1
 40
1
 40
1
 10
56.7823649686577
 20
24.6817521185678
 30
0
 41
1
 10
61.3580237196487
 20
26.8154168352589
 30
0
 41
1
 10
65.9336824706397
 20
28.9490815519499
 30
0
 41
1
 10
70.5093412216307
 20
31.0827462686409
 30
0
 41
1
  0
SPLINE
  5
361
100
AcDbEntity
  8
0
100
AcDbSpline
 70
12
 71
3
 72
8
 73
4
 40
0
 40
0
 40
0
 40
0
 40
1
 40
1
 40
1
 40
1
 10
57.2093766560299
 20
52.3022594897355
 30
0
 41
1
 10
57.1162983773354
 20
52.1855430199547
 30
0
 41
1
 10
57.0232200986409
 20
52.0688265501739
 30
0
 41
1
 10
56.9301418199464
 20
51.9521100803931
 30
0
 41
1
  0
SPLINE
  5
362
100
AcDbEntity
  8
0
100
AcDbSpline
 70
12
 71
3
 72
8
 73
4
 40
0
 40
0
 40
0
 40
0
 40
1
 40
1
 40
1
 40
1
 10
56.9301418199464
 20
54.7805372051393
 30
0
 41
1
 10
57.0232200986409
 20
54.6638207353586
 30
0
 41
1
 10
57.1162983773353
 20
54.5471042655778
 30
0
 41
1
 10
57.2093766560298
 20
54.4303877957971
 30
0
 41
1
  0
SPLINE
  5
363
100
AcDbEntity
  8
0
100
AcDbSpline
 70
12
 71
3
 72
8
 73
4
 40
0
 40
0
 40
0
 40
0
 40
1
 40
1
 40
1
 40
1
 10
57.40369491819
 20
52.7057655188559
 30
0
 41
1
 10
57.3389221641367
 20
52.5712635091491
 30
0
 41
1
 10
57.2741494100833
 20
52.4367614994423
 30
0
 41
1
 10
57.2093766560299
 20
52.3022594897355
 30
0
 41
1
  0
SPLINE
  5
364
100
AcDbEntity
  8
0
100
AcDbSpline
 70
12
 71
3
 72
8
 73
4
 40
0
 40
0
 40
0
 40
0
 40
1
 40
1
 40
1
 40
1
 10
57.2093766560298
 20
54.4303877957971
 30
0
 41
1
 10
57.2741494100832
 20
54.2958857860903
 30
0
 41
1
 10
57.3389221641366
 20
54.1613837763835
 30
0
 41
1
 10
57.40369491819
 20
54.0268817666767
 30
0
 41
1
  0
SPLINE
  5
365
100
AcDbEntity
  8
0
100
AcDbSpline
 70
12
 71
3
 72
8
 73
4
 40
0
 40
0
 40
0
 40
0
 40
1
 40
1
 40
1
 40
1
 10
58.4739187684296
 20
13.5612522851493
 30
0
 41
1
 10
58.0626509224395
 20
13.8082236801848
 30
0
 41
1
 10
57.6513830764495
 20
14.0551950752204
 30
0
 41
1
 10
57.2401152304594
 20
14.3021664702559
 30
0
 41
1
  0
SPLINE
  5
366
100
AcDbEntity
  8
0
100
AcDbSpline
 70
12
 71
3
 72
8
 73
4
 40
0
 40
0
 40
0
 40
0
 40
1
 40
1
 40
1
 40
1
 10
57.5033526773598
 20
53.1423946905597
 30
0
 41
1
 10
57.4701334243032
 20
52.9968516333251
 30
0
 41
1
 10
57.4369141712466
 20
52.8513085760905
 30
0
 41
1
 10
57.40369491819
 20
52.7057655188559
 30
0
 41
1
  0
SPLINE
  5
367
100
AcDbEntity
  8
0
100
AcDbSpline
 70
12
 71
3
 72
8
 73
4
 40
0
 40
0
 40
0
 40
0
 40
1
 40
1
 40
1
 40
1
 10
57.40369491819
 20
54.0268817666767
 30
0
 41
1
 10
57.4369141712466
 20
53.8813387094421
 30
0
 41
1
 10
57.4701334243032
 20
53.7357956522076
 30
0
 41
1
 10
57.5033526773598
 20
53.590252594973
 30
0
 41
1
  0
SPLINE
  5
368
100
AcDbEntity
  8
0
100
AcDbSpline
 70
12
 71
3
 72
8
 73
4
 40
0
 40
0
 40
0
 40
0
 40
1
 40
1
 40
1
 40
1
 10
57.4205252548623
 20
17.4925703981458
 30
0
 41
1
 10
62.7659895098413
 20
19.4373449377398
 30
0
 41
1
 10
68.1114537648203
 20
21.3821194773338
 30
0
 41
1
 10
73.4569180197992
 20
23.3268940169279
 30
0
 41
1
  0
SPLINE
  5
369
100
AcDbEntity
  8
0
100
AcDbSpline
 70
12
 71
3
 72
8
 73
4
 40
0
 40
0
 40
0
 40
0
 40
1
 40
1
 40
1
 40
1
 10
58
 20
0
 30
0
 41
1
 10
57.8333333333333
 20
0
 30
0
 41
1
 10
57.6666666666667
 20
0
 30
0
 41
1
 10
57.5
 20
0
 30
0
 41
1
  0
SPLINE
  5
370
100
AcDbEntity
  8
0
100
AcDbSpline
 70
12
 71
3
 72
8
 73
4
 40
0
 40
0
 40
0
 40
0
 40
1
 40
1
 40
1
 40
1
 10
57.5033526773598
 20
53.590252594973
 30
0
 41
1
 10
57.5033526773598
 20
53.4409666268352
 30
0
 41
1
 10
57.5033526773598
 20
53.2916806586975
 30
0
 41
1
 10
57.5033526773598
 20
53.1423946905597
 30
0
 41
1
  0
SPLINE
  5
371
100
AcDbEntity
  8
0
100
AcDbSpline
 70
12
 71
3
 72
8
 73
4
 40
0
 40
0
 40
0
 40
0
 40
1
 40
1
 40
1
 40
1
 10
57.6835482229305
 20
6.05047637900073
 30
0
 41
1
 10
58.0156131222945
 20
6.07952829324995
 30
0
 41
1
 10
58.3476780216584
 20
6.10858020749917
 30
0
 41
1
 10
58.6797429210223
 20
6.13763212174839
 30
0
 41
1
  0
SPLINE
  5
372
100
AcDbEntity
  8
0
100
AcDbSpline
 70
12
 71
3
 72
8
 73
4
 40
0
 40
0
 40
0
 40
0
 40
1
 40
1
 40
1
 40
1
 10
58.8540544065176
 20
4.1452427255649
 30
0
 41
1
 10
58.5219895071537
 20
4.11619081131568
 30
0
 41
1
 10
58.1899246077898
 20
4.08713889706646
 30
0
 41
1
 10
57.8578597084259
 20
4.05808698281724
 30
0
 41
1
  0
SPLINE
  5
373
100
AcDbEntity
  8
0
100
AcDbSpline
 70
12
 71
3
 72
8
 73
4
 40
0
 40
0
 40
0
 40
0
 40
1
 40
1
 40
1
 40
1
 10
90
 20
0
 30
0
 41
1
 10
79.3333333333333
 20
0
 30
0
 41
1
 10
68.6666666666667
 20
0
 30
0
 41
1
 10
58
 20
0
 30
0
 41
1
  0
SPLINE
  5
374
100
AcDbEntity
  8
0
100
AcDbSpline
 70
12
 71
3
 72
8
 73
4
 40
0
 40
0
 40
0
 40
0
 40
1
 40
1
 40
1
 40
1
 10
75.279004097321
 20
16.5267761998528
 30
0
 41
1
 10
69.6773089876905
 20
15.538268228285
 30
0
 41
1
 10
64.0756138780601
 20
14.5497602567171
 30
0
 41
1
 10
58.4739187684296
 20
13.5612522851493
 30
0
 41
1
  0
SPLINE
  5
375
100
AcDbEntity
  8
0
100
AcDbSpline
 70
12
 71
3
 72
8
 73
4
 40
0
 40
0
 40
0
 40
0
 40
1
 40
1
 40
1
 40
1
 10
58.6797429210223
 20
6.13763212174839
 30
0
 41
1
 10
58.9817390891383
 20
6.51037120683926
 30
0
 41
1
 10
59.2837352572542
 20
6.88311029193013
 30
0
 41
1
 10
59.5857314253702
 20
7.255849377021
 30
0
 41
1
  0
SPLINE
  5
376
100
AcDbEntity
  8
0
100
AcDbSpline
 70
12
 71
3
 72
8
 73
4
 40
0
 40
0
 40
0
 40
0
 40
1
 40
1
 40
1
 40
1
 10
59.9404552983532
 20
3.2013369557876
 30
0
 41
1
 10
59.5783216677413
 20
3.51597221238003
 30
0
 41
1
 10
59.2161880371295
 20
3.83060746897246
 30
0
 41
1
 10
58.8540544065176
 20
4.1452427255649
 30
0
 41
1
  0
SPLINE
  5
377
100
AcDbEntity
  8
0
100
AcDbSpline
 70
12
 71
3
 72
8
 73
4
 40
0
 40
0
 40
0
 40
0
 40
1
 40
1
 40
1
 40
1
 10
59.3629395985639
 20
17.5916815936832
 30
0
 41
1
 10
59.643844576549
 20
16.5433299437439
 30
0
 41
1
 10
59.9247495545341
 20
15.4949782938045
 30
0
 41
1
 10
60.2056545325191
 20
14.4466266438651
 30
0
 41
1
  0
SPLINE
  5
378
100
AcDbEntity
  8
0
100
AcDbSpline
 70
12
 71
3
 72
8
 73
4
 40
0
 40
0
 40
0
 40
0
 40
1
 40
1
 40
1
 40
1
 10
73.992893207323
 20
21.511765848455
 30
0
 41
1
 10
69.1162420044032
 20
20.2050710968644
 30
0
 41
1
 10
64.2395908014836
 20
18.8983763452738
 30
0
 41
1
 10
59.3629395985639
 20
17.5916815936832
 30
0
 41
1
  0
SPLINE
  5
379
100
AcDbEntity
  8
0
100
AcDbSpline
 70
12
 71
3
 72
8
 73
4
 40
0
 40
0
 40
0
 40
0
 40
1
 40
1
 40
1
 40
1
 10
59.5857314253702
 20
7.255849377021
 30
0
 41
1
 10
65.1876926218967
 20
8.24284829481314
 30
0
 41
1
 10
70.7896538184231
 20
9.22984721260529
 30
0
 41
1
 10
76.3916150149496
 20
10.2168461303974
 30
0
 41
1
  0
SPLINE
  5
380
100
AcDbEntity
  8
0
100
AcDbSpline
 70
12
 71
3
 72
8
 73
4
 40
0
 40
0
 40
0
 40
0
 40
1
 40
1
 40
1
 40
1
 10
77.0051914438931
 20
3.20363545583154
 30
0
 41
1
 10
71.3169460620465
 20
3.20286928915023
 30
0
 41
1
 10
65.6287006801998
 20
3.20210312246891
 30
0
 41
1
 10
59.9404552983532
 20
3.2013369557876
 30
0
 41
1
  0
SPLINE
  5
381
100
AcDbEntity
  8
0
100
AcDbSpline
 70
12
 71
3
 72
8
 73
4
 40
0
 40
0
 40
0
 40
0
 40
1
 40
1
 40
1
 40
1
 10
60.2056545325191
 20
14.4466266438651
 30
0
 41
1
 10
65.0823057354388
 20
15.7533213954557
 30
0
 41
1
 10
69.9589569383585
 20
17.0600161470463
 30
0
 41
1
 10
74.8356081412782
 20
18.3667108986369
 30
0
 41
1
  0
SPLINE
  5
382
100
AcDbEntity
  8
0
100
AcDbSpline
 70
12
 71
3
 72
8
 73
4
 40
0
 40
0
 40
0
 40
0
 40
1
 40
1
 40
1
 40
1
 10
61.0486561738684
 20
47.0438558029557
 30
0
 41
1
 10
61.1797623316884
 20
47.1152524111699
 30
0
 41
1
 10
61.3108684895084
 20
47.186649019384
 30
0
 41
1
 10
61.4419746473284
 20
47.2580456275982
 30
0
 41
1
  0
SPLINE
  5
383
100
AcDbEntity
  8
0
100
AcDbSpline
 70
12
 71
3
 72
8
 73
4
 40
0
 40
0
 40
0
 40
0
 40
1
 40
1
 40
1
 40
1
 10
61.4419746473284
 20
47.2580456275982
 30
0
 41
1
 10
61.5856809399872
 20
47.2984783090958
 30
0
 41
1
 10
61.729387232646
 20
47.3389109905934
 30
0
 41
1
 10
61.8730935253048
 20
47.379343672091
 30
0
 41
1
  0
SPLINE
  5
384
100
AcDbEntity
  8
0
100
AcDbSpline
 70
12
 71
3
 72
8
 73
4
 40
0
 40
0
 40
0
 40
0
 40
1
 40
1
 40
1
 40
1
 10
61.5158466091011
 20
7.01615813973874
 30
0
 41
1
 10
61.6104396557144
 20
5.93495466947063
 30
0
 41
1
 10
61.7050327023278
 20
4.85375119920251
 30
0
 41
1
 10
61.7996257489411
 20
3.77254772893439
 30
0
 41
1
  0
SPLINE
  5
385
100
AcDbEntity
  8
0
100
AcDbSpline
 70
12
 71
3
 72
8
 73
4
 40
0
 40
0
 40
0
 40
0
 40
1
 40
1
 40
1
 40
1
 10
76.6042538363579
 20
8.33622272278634
 30
0
 41
1
 10
71.5747847606056
 20
7.8962011951038
 30
0
 41
1
 10
66.5453156848534
 20
7.45617966742127
 30
0
 41
1
 10
61.5158466091011
 20
7.01615813973874
 30
0
 41
1
  0
SPLINE
  5
386
100
AcDbEntity
  8
0
100
AcDbSpline
 70
12
 71
3
 72
8
 73
4
 40
0
 40
0
 40
0
 40
0
 40
1
 40
1
 40
1
 40
1
 10
61.7996257489411
 20
3.77254772893439
 30
0
 41
1
 10
66.8290948246934
 20
4.21256925661693
 30
0
 41
1
 10
71.8585639004457
 20
4.65259078429946
 30
0
 41
1
 10
76.888032976198
 20
5.09261231198199
 30
0
 41
1
  0
SPLINE
  5
387
100
AcDbEntity
  8
0
100
AcDbSpline
 70
12
 71
3
 72
8
 73
4
 40
0
 40
0
 40
0
 40
0
 40
1
 40
1
 40
1
 40
1
 10
61.8730935253048
 20
47.379343672091
 30
0
 41
1
 10
62.0221939192232
 20
47.3867849633896
 30
0
 41
1
 10
62.1712943131416
 20
47.3942262546881
 30
0
 41
1
 10
62.3203947070601
 20
47.4016675459867
 30
0
 41
1
  0
SPLINE
  5
388
100
AcDbEntity
  8
0
100
AcDbSpline
 70
12
 71
3
 72
8
 73
4
 40
0
 40
0
 40
0
 40
0
 40
1
 40
1
 40
1
 40
1
 10
64.0406836484121
 20
42.8543481219008
 30
0
 41
1
 10
63.4181619318895
 20
43.7434012705062
 30
0
 41
1
 10
62.7956402153669
 20
44.6324544191116
 30
0
 41
1
 10
62.1731184988443
 20
45.521507567717
 30
0
 41
1
  0
SPLINE
  5
389
100
AcDbEntity
  8
0
100
AcDbSpline
 70
12
 71
3
 72
8
 73
4
 40
0
 40
0
 40
0
 40
0
 40
1
 40
1
 40
1
 40
1
 10
62.3203947070601
 20
47.4016675459867
 30
0
 41
1
 10
62.4674126858981
 20
47.3757443096683
 30
0
 41
1
 10
62.6144306647361
 20
47.34982107335
 30
0
 41
1
 10
62.7614486435741
 20
47.3238978370316
 30
0
 41
1
  0
SPLINE
  5
390
100
AcDbEntity
  8
0
100
AcDbSpline
 70
12
 71
3
 72
8
 73
4
 40
0
 40
0
 40
0
 40
0
 40
1
 40
1
 40
1
 40
1
 10
62.7614486435741
 20
47.3238978370316
 30
0
 41
1
 10
62.899012111979
 20
47.2659099724114
 30
0
 41
1
 10
63.036575580384
 20
47.2079221077911
 30
0
 41
1
 10
63.174139048789
 20
47.1499342431709
 30
0
 41
1
  0
SPLINE
  5
391
100
AcDbEntity
  8
0
100
AcDbSpline
 70
12
 71
3
 72
8
 73
4
 40
0
 40
0
 40
0
 40
0
 40
1
 40
1
 40
1
 40
1
 10
63.174139048789
 20
47.1499342431709
 30
0
 41
1
 10
63.2953500000401
 20
47.0627895039171
 30
0
 41
1
 10
63.4165609512913
 20
46.9756447646632
 30
0
 41
1
 10
63.5377719025424
 20
46.8885000254094
 30
0
 41
1
  0
SPLINE
  5
392
100
AcDbEntity
  8
0
100
AcDbSpline
 70
12
 71
3
 72
8
 73
4
 40
0
 40
0
 40
0
 40
0
 40
1
 40
1
 40
1
 40
1
 10
63.5377719025424
 20
46.8885000254094
 30
0
 41
1
 10
63.6365523134111
 20
46.7765682126329
 30
0
 41
1
 10
63.7353327242798
 20
46.6646363998563
 30
0
 41
1
 10
63.8341131351485
 20
46.5527045870798
 30
0
 41
1
  0
SPLINE
  5
393
100
AcDbEntity
  8
0
100
AcDbSpline
 70
12
 71
3
 72
8
 73
4
 40
0
 40
0
 40
0
 40
0
 40
1
 40
1
 40
1
 40
1
 10
63.8341131351485
 20
46.5527045870798
 30
0
 41
1
 10
64.4153372573175
 20
45.7226305155336
 30
0
 41
1
 10
64.9965613794866
 20
44.8925564439875
 30
0
 41
1
 10
65.5777855016557
 20
44.0624823724413
 30
0
 41
1
  0
SPLINE
  5
394
100
AcDbEntity
  8
0
100
AcDbSpline
 70
12
 71
3
 72
8
 73
4
 40
0
 40
0
 40
0
 40
0
 40
1
 40
1
 40
1
 40
1
 10
65.4224297241093
 20
41.5733666437673
 30
0
 41
1
 10
65.3104979113328
 20
41.4745862328986
 30
0
 41
1
 10
65.1985660985563
 20
41.3758058220299
 30
0
 41
1
 10
65.0866342857798
 20
41.2770254111612
 30
0
 41
1
  0
SPLINE
  5
395
100
AcDbEntity
  8
0
100
AcDbSpline
 70
12
 71
3
 72
8
 73
4
 40
0
 40
0
 40
0
 40
0
 40
1
 40
1
 40
1
 40
1
 10
65.6838639418709
 20
41.9369994975207
 30
0
 41
1
 10
65.5967192026171
 20
41.8157885462696
 30
0
 41
1
 10
65.5095744633632
 20
41.6945775950184
 30
0
 41
1
 10
65.4224297241093
 20
41.5733666437673
 30
0
 41
1
  0
SPLINE
  5
396
100
AcDbEntity
  8
0
100
AcDbSpline
 70
12
 71
3
 72
8
 73
4
 40
0
 40
0
 40
0
 40
0
 40
1
 40
1
 40
1
 40
1
 10
65.5777855016557
 20
44.0624823724413
 30
0
 41
1
 10
65.6491821098699
 20
43.9313762146213
 30
0
 41
1
 10
65.7205787180841
 20
43.8002700568014
 30
0
 41
1
 10
65.7919753262983
 20
43.6691638989815
 30
0
 41
1
  0
SPLINE
  5
397
100
AcDbEntity
  8
0
100
AcDbSpline
 70
12
 71
3
 72
8
 73
4
 40
0
 40
0
 40
0
 40
0
 40
1
 40
1
 40
1
 40
1
 10
65.8578275357317
 20
42.3496899027357
 30
0
 41
1
 10
65.7998396711114
 20
42.2121264343307
 30
0
 41
1
 10
65.7418518064912
 20
42.0745629659257
 30
0
 41
1
 10
65.6838639418709
 20
41.9369994975207
 30
0
 41
1
  0
SPLINE
  5
398
100
AcDbEntity
  8
0
100
AcDbSpline
 70
12
 71
3
 72
8
 73
4
 40
0
 40
0
 40
0
 40
0
 40
1
 40
1
 40
1
 40
1
 10
65.7919753262983
 20
43.6691638989815
 30
0
 41
1
 10
65.8324080077959
 20
43.5254576063226
 30
0
 41
1
 10
65.8728406892935
 20
43.3817513136638
 30
0
 41
1
 10
65.9132733707911
 20
43.238045021005
 30
0
 41
1
  0
SPLINE
  5
399
100
AcDbEntity
  8
0
100
AcDbSpline
 70
12
 71
3
 72
8
 73
4
 40
0
 40
0
 40
0
 40
0
 40
1
 40
1
 40
1
 40
1
 10
65.9355972446868
 20
42.7907438392497
 30
0
 41
1
 10
65.9096740083684
 20
42.6437258604117
 30
0
 41
1
 10
65.88375077205
 20
42.4967078815737
 30
0
 41
1
 10
65.8578275357317
 20
42.3496899027357
 30
0
 41
1
  0
SPLINE
  5
400
100
AcDbEntity
  8
0
100
AcDbSpline
 70
12
 71
3
 72
8
 73
4
 40
0
 40
0
 40
0
 40
0
 40
1
 40
1
 40
1
 40
1
 10
65.9132733707911
 20
43.238045021005
 30
0
 41
1
 10
65.9207146620897
 20
43.0889446270866
 30
0
 41
1
 10
65.9281559533882
 20
42.9398442331681
 30
0
 41
1
 10
65.9355972446868
 20
42.7907438392497
 30
0
 41
1
  0
SPLINE
  5
401
100
AcDbEntity
  8
0
100
AcDbSpline
 70
12
 71
3
 72
8
 73
4
 40
0
 40
0
 40
0
 40
0
 40
1
 40
1
 40
1
 40
1
 10
68.2902697416113
 20
35.7281660327319
 30
0
 41
1
 10
68.4317819932081
 20
35.7757116206536
 30
0
 41
1
 10
68.5732942448048
 20
35.8232572085753
 30
0
 41
1
 10
68.7148064964016
 20
35.8708027964971
 30
0
 41
1
  0
SPLINE
  5
402
100
AcDbEntity
  8
0
100
AcDbSpline
 70
12
 71
3
 72
8
 73
4
 40
0
 40
0
 40
0
 40
0
 40
1
 40
1
 40
1
 40
1
 10
68.7148064964016
 20
35.8708027964971
 30
0
 41
1
 10
68.8633506290288
 20
35.8856668788715
 30
0
 41
1
 10
69.0118947616561
 20
35.900530961246
 30
0
 41
1
 10
69.1604388942834
 20
35.9153950436204
 30
0
 41
1
  0
SPLINE
  5
403
100
AcDbEntity
  8
0
100
AcDbSpline
 70
12
 71
3
 72
8
 73
4
 40
0
 40
0
 40
0
 40
0
 40
1
 40
1
 40
1
 40
1
 10
70.5093412216307
 20
31.0827462686409
 30
0
 41
1
 10
70.0506594678851
 20
32.0663924638597
 30
0
 41
1
 10
69.5919777141396
 20
33.0500386590784
 30
0
 41
1
 10
69.1332959603941
 20
34.0336848542972
 30
0
 41
1
  0
SPLINE
  5
404
100
AcDbEntity
  8
0
100
AcDbSpline
 70
12
 71
3
 72
8
 73
4
 40
0
 40
0
 40
0
 40
0
 40
1
 40
1
 40
1
 40
1
 10
69.1604388942834
 20
35.9153950436204
 30
0
 41
1
 10
69.3085662848649
 20
35.8968322732903
 30
0
 41
1
 10
69.4566936754465
 20
35.8782695029602
 30
0
 41
1
 10
69.604821066028
 20
35.8597067326301
 30
0
 41
1
  0
SPLINE
  5
405
100
AcDbEntity
  8
0
100
AcDbSpline
 70
12
 71
3
 72
8
 73
4
 40
0
 40
0
 40
0
 40
0
 40
1
 40
1
 40
1
 40
1
 10
69.604821066028
 20
35.8597067326301
 30
0
 41
1
 10
69.7451039886739
 20
35.8086479244111
 30
0
 41
1
 10
69.8853869113199
 20
35.7575891161921
 30
0
 41
1
 10
70.0256698339658
 20
35.7065303079732
 30
0
 41
1
  0
SPLINE
  5
406
100
AcDbEntity
  8
0
100
AcDbSpline
 70
12
 71
3
 72
8
 73
4
 40
0
 40
0
 40
0
 40
0
 40
1
 40
1
 40
1
 40
1
 10
70.0256698339658
 20
35.7065303079732
 30
0
 41
1
 10
70.1510739171642
 20
35.6255357637124
 30
0
 41
1
 10
70.2764780003625
 20
35.5445412194517
 30
0
 41
1
 10
70.4018820835609
 20
35.463546675191
 30
0
 41
1
  0
SPLINE
  5
407
100
AcDbEntity
  8
0
100
AcDbSpline
 70
12
 71
3
 72
8
 73
4
 40
0
 40
0
 40
0
 40
0
 40
1
 40
1
 40
1
 40
1
 10
70.4018820835609
 20
35.463546675191
 30
0
 41
1
 10
70.5061190429383
 20
35.3566777995416
 30
0
 41
1
 10
70.6103560023157
 20
35.2498089238921
 30
0
 41
1
 10
70.7145929616932
 20
35.1429400482427
 30
0
 41
1
  0
SPLINE
  5
408
100
AcDbEntity
  8
0
100
AcDbSpline
 70
12
 71
3
 72
8
 73
4
 40
0
 40
0
 40
0
 40
0
 40
1
 40
1
 40
1
 40
1
 10
70.7145929616932
 20
35.1429400482427
 30
0
 41
1
 10
70.7924359208508
 20
35.0155556928751
 30
0
 41
1
 10
70.8702788800084
 20
34.8881713375076
 30
0
 41
1
 10
70.948121839166
 20
34.76078698214
 30
0
 41
1
  0
SPLINE
  5
409
100
AcDbEntity
  8
0
100
AcDbSpline
 70
12
 71
3
 72
8
 73
4
 40
0
 40
0
 40
0
 40
0
 40
1
 40
1
 40
1
 40
1
 10
70.948121839166
 20
34.76078698214
 30
0
 41
1
 10
71.3763750110633
 20
33.8423950912762
 30
0
 41
1
 10
71.8046281829605
 20
32.9240032004124
 30
0
 41
1
 10
72.2328813548578
 20
32.0056113095486
 30
0
 41
1
  0
SPLINE
  5
410
100
AcDbEntity
  8
0
100
AcDbSpline
 70
12
 71
3
 72
8
 73
4
 40
0
 40
0
 40
0
 40
0
 40
1
 40
1
 40
1
 40
1
 10
71.6476553703686
 20
29.5812880894667
 30
0
 41
1
 10
71.520271015001
 20
29.5034451303091
 30
0
 41
1
 10
71.3928866596334
 20
29.4256021711515
 30
0
 41
1
 10
71.2655023042659
 20
29.3477592119939
 30
0
 41
1
  0
SPLINE
  5
411
100
AcDbEntity
  8
0
100
AcDbSpline
 70
12
 71
3
 72
8
 73
4
 40
0
 40
0
 40
0
 40
0
 40
1
 40
1
 40
1
 40
1
 10
71.9682619973169
 20
29.893998967599
 30
0
 41
1
 10
71.8613931216675
 20
29.7897620082216
 30
0
 41
1
 10
71.754524246018
 20
29.6855250488442
 30
0
 41
1
 10
71.6476553703686
 20
29.5812880894667
 30
0
 41
1
  0
SPLINE
  5
412
100
AcDbEntity
  8
0
100
AcDbSpline
 70
12
 71
3
 72
8
 73
4
 40
0
 40
0
 40
0
 40
0
 40
1
 40
1
 40
1
 40
1
 10
72.2112456300991
 20
30.2702112171941
 30
0
 41
1
 10
72.1302510858384
 20
30.1448071339957
 30
0
 41
1
 10
72.0492565415777
 20
30.0194030507974
 30
0
 41
1
 10
71.9682619973169
 20
29.893998967599
 30
0
 41
1
  0
SPLINE
  5
413
100
AcDbEntity
  8
0
100
AcDbSpline
 70
12
 71
3
 72
8
 73
4
 40
0
 40
0
 40
0
 40
0
 40
1
 40
1
 40
1
 40
1
 10
72.364422054756
 20
30.6910599851319
 30
0
 41
1
 10
72.3133632465371
 20
30.550777062486
 30
0
 41
1
 10
72.2623044383181
 20
30.41049413984
 30
0
 41
1
 10
72.2112456300991
 20
30.2702112171941
 30
0
 41
1
  0
SPLINE
  5
414
100
AcDbEntity
  8
0
100
AcDbSpline
 70
12
 71
3
 72
8
 73
4
 40
0
 40
0
 40
0
 40
0
 40
1
 40
1
 40
1
 40
1
 10
72.2328813548578
 20
32.0056113095486
 30
0
 41
1
 10
72.2804269427795
 20
31.8640990579519
 30
0
 41
1
 10
72.3279725307013
 20
31.7225868063551
 30
0
 41
1
 10
72.3755181186231
 20
31.5810745547584
 30
0
 41
1
  0
SPLINE
  5
415
100
AcDbEntity
  8
0
100
AcDbSpline
 70
12
 71
3
 72
8
 73
4
 40
0
 40
0
 40
0
 40
0
 40
1
 40
1
 40
1
 40
1
 10
72.4201103657464
 20
31.1354421568766
 30
0
 41
1
 10
72.4015475954163
 20
30.987314766295
 30
0
 41
1
 10
72.3829848250862
 20
30.8391873757135
 30
0
 41
1
 10
72.364422054756
 20
30.6910599851319
 30
0
 41
1
  0
SPLINE
  5
416
100
AcDbEntity
  8
0
100
AcDbSpline
 70
12
 71
3
 72
8
 73
4
 40
0
 40
0
 40
0
 40
0
 40
1
 40
1
 40
1
 40
1
 10
72.3755181186231
 20
31.5810745547584
 30
0
 41
1
 10
72.3903822009975
 20
31.4325304221311
 30
0
 41
1
 10
72.405246283372
 20
31.2839862895038
 30
0
 41
1
 10
72.4201103657464
 20
31.1354421568766
 30
0
 41
1
  0
SPLINE
  5
417
100
AcDbEntity
  8
0
100
AcDbSpline
 70
12
 71
3
 72
8
 73
4
 40
0
 40
0
 40
0
 40
0
 40
1
 40
1
 40
1
 40
1
 10
73.4569180197992
 20
23.3268940169279
 30
0
 41
1
 10
73.6045365870166
 20
23.3491439359274
 30
0
 41
1
 10
73.752155154234
 20
23.3713938549269
 30
0
 41
1
 10
73.8997737214514
 20
23.3936437739264
 30
0
 41
1
  0
SPLINE
  5
418
100
AcDbEntity
  8
0
100
AcDbSpline
 70
12
 71
3
 72
8
 73
4
 40
0
 40
0
 40
0
 40
0
 40
1
 40
1
 40
1
 40
1
 10
73.8997737214514
 20
23.3936437739264
 30
0
 41
1
 10
74.0486422557443
 20
23.3824876195564
 30
0
 41
1
 10
74.1975107900371
 20
23.3713314651863
 30
0
 41
1
 10
74.3463793243299
 20
23.3601753108162
 30
0
 41
1
  0
SPLINE
  5
419
100
AcDbEntity
  8
0
100
AcDbSpline
 70
12
 71
3
 72
8
 73
4
 40
0
 40
0
 40
0
 40
0
 40
1
 40
1
 40
1
 40
1
 10
74.8356081412782
 20
18.3667108986369
 30
0
 41
1
 10
74.5547031632931
 20
19.4150625485763
 30
0
 41
1
 10
74.273798185308
 20
20.4634141985157
 30
0
 41
1
 10
73.992893207323
 20
21.511765848455
 30
0
 41
1
  0
SPLINE
  5
420
100
AcDbEntity
  8
0
100
AcDbSpline
 70
12
 71
3
 72
8
 73
4
 40
0
 40
0
 40
0
 40
0
 40
1
 40
1
 40
1
 40
1
 10
74.3463793243299
 20
23.3601753108162
 30
0
 41
1
 10
74.4890329357678
 20
23.3161724992407
 30
0
 41
1
 10
74.6316865472057
 20
23.2721696876652
 30
0
 41
1
 10
74.7743401586436
 20
23.2281668760896
 30
0
 41
1
  0
SPLINE
  5
421
100
AcDbEntity
  8
0
100
AcDbSpline
 70
12
 71
3
 72
8
 73
4
 40
0
 40
0
 40
0
 40
0
 40
1
 40
1
 40
1
 40
1
 10
74.7743401586436
 20
23.2281668760896
 30
0
 41
1
 10
74.9036255994794
 20
23.1535238920208
 30
0
 41
1
 10
75.0329110403153
 20
23.0788809079519
 30
0
 41
1
 10
75.1621964811512
 20
23.004237923883
 30
0
 41
1
  0
SPLINE
  5
422
100
AcDbEntity
  8
0
100
AcDbSpline
 70
12
 71
3
 72
8
 73
4
 40
0
 40
0
 40
0
 40
0
 40
1
 40
1
 40
1
 40
1
 10
75.1621964811512
 20
23.004237923883
 30
0
 41
1
 10
75.2716308395325
 20
22.902697678224
 30
0
 41
1
 10
75.3810651979138
 20
22.801157432565
 30
0
 41
1
 10
75.4904995562951
 20
22.699617186906
 30
0
 41
1
  0
SPLINE
  5
423
100
AcDbEntity
  8
0
100
AcDbSpline
 70
12
 71
3
 72
8
 73
4
 40
0
 40
0
 40
0
 40
0
 40
1
 40
1
 40
1
 40
1
 10
75.6959032636621
 20
16.6903970654218
 30
0
 41
1
 10
75.5569368748817
 20
16.6358567768988
 30
0
 41
1
 10
75.4179704861014
 20
16.5813164883758
 30
0
 41
1
 10
75.279004097321
 20
16.5267761998528
 30
0
 41
1
  0
SPLINE
  5
424
100
AcDbEntity
  8
0
100
AcDbSpline
 70
12
 71
3
 72
8
 73
4
 40
0
 40
0
 40
0
 40
0
 40
1
 40
1
 40
1
 40
1
 10
75.4904995562951
 20
22.699617186906
 30
0
 41
1
 10
75.5745953365345
 20
22.5762713315693
 30
0
 41
1
 10
75.658691116774
 20
22.4529254762326
 30
0
 41
1
 10
75.7427868970134
 20
22.3295796208959
 30
0
 41
1
  0
SPLINE
  5
425
100
AcDbEntity
  8
0
100
AcDbSpline
 70
12
 71
3
 72
8
 73
4
 40
0
 40
0
 40
0
 40
0
 40
1
 40
1
 40
1
 40
1
 10
76.0659408296722
 20
16.9426844061401
 30
0
 41
1
 10
75.9425949743355
 20
16.8585886259007
 30
0
 41
1
 10
75.8192491189988
 20
16.7744928456612
 30
0
 41
1
 10
75.6959032636621
 20
16.6903970654218
 30
0
 41
1
  0
SPLINE
  5
426
100
AcDbEntity
  8
0
100
AcDbSpline
 70
12
 71
3
 72
8
 73
4
 40
0
 40
0
 40
0
 40
0
 40
1
 40
1
 40
1
 40
1
 10
75.7427868970134
 20
22.3295796208959
 30
0
 41
1
 10
75.7973271855364
 20
22.1906132321155
 30
0
 41
1
 10
75.8518674740594
 20
22.0516468433351
 30
0
 41
1
 10
75.9064077625824
 20
21.9126804545548
 30
0
 41
1
  0
SPLINE
  5
427
100
AcDbEntity
  8
0
100
AcDbSpline
 70
12
 71
3
 72
8
 73
4
 40
0
 40
0
 40
0
 40
0
 40
1
 40
1
 40
1
 40
1
 10
75.9064077625824
 20
21.9126804545548
 30
0
 41
1
 10
76.1686777282863
 20
20.9338756172485
 30
0
 41
1
 10
76.4309476939902
 20
19.9550707799423
 30
0
 41
1
 10
76.6932176596941
 20
18.976265942636
 30
0
 41
1
  0
SPLINE
  5
428
100
AcDbEntity
  8
0
100
AcDbSpline
 70
12
 71
3
 72
8
 73
4
 40
0
 40
0
 40
0
 40
0
 40
1
 40
1
 40
1
 40
1
 10
76.3705615666493
 20
17.2709874812841
 30
0
 41
1
 10
76.2690213209903
 20
17.1615531229028
 30
0
 41
1
 10
76.1674810753313
 20
17.0521187645215
 30
0
 41
1
 10
76.0659408296722
 20
16.9426844061401
 30
0
 41
1
  0
SPLINE
  5
429
100
AcDbEntity
  8
0
100
AcDbSpline
 70
12
 71
3
 72
8
 73
4
 40
0
 40
0
 40
0
 40
0
 40
1
 40
1
 40
1
 40
1
 10
76.594490518856
 20
17.6588438037916
 30
0
 41
1
 10
76.5198475347871
 20
17.5295583629558
 30
0
 41
1
 10
76.4452045507182
 20
17.4002729221199
 30
0
 41
1
 10
76.3705615666493
 20
17.2709874812841
 30
0
 41
1
  0
SPLINE
  5
430
100
AcDbEntity
  8
0
100
AcDbSpline
 70
12
 71
3
 72
8
 73
4
 40
0
 40
0
 40
0
 40
0
 40
1
 40
1
 40
1
 40
1
 10
76.3916150149496
 20
10.2168461303974
 30
0
 41
1
 10
76.5408545823214
 20
10.2131243279449
 30
0
 41
1
 10
76.6900941496931
 20
10.2094025254925
 30
0
 41
1
 10
76.8393337170649
 20
10.20568072304
 30
0
 41
1
  0
SPLINE
  5
431
100
AcDbEntity
  8
0
100
AcDbSpline
 70
12
 71
3
 72
8
 73
4
 40
0
 40
0
 40
0
 40
0
 40
1
 40
1
 40
1
 40
1
 10
76.7264989535826
 20
18.0868046381053
 30
0
 41
1
 10
76.6824961420071
 20
17.9441510266674
 30
0
 41
1
 10
76.6384933304315
 20
17.8014974152295
 30
0
 41
1
 10
76.594490518856
 20
17.6588438037916
 30
0
 41
1
  0
SPLINE
  5
432
100
AcDbEntity
  8
0
100
AcDbSpline
 70
12
 71
3
 72
8
 73
4
 40
0
 40
0
 40
0
 40
0
 40
1
 40
1
 40
1
 40
1
 10
76.888032976198
 20
5.09261231198199
 30
0
 41
1
 10
76.7934399295846
 20
6.1738157822501
 30
0
 41
1
 10
76.6988468829713
 20
7.25501925251822
 30
0
 41
1
 10
76.6042538363579
 20
8.33622272278634
 30
0
 41
1
  0
SPLINE
  5
433
100
AcDbEntity
  8
0
100
AcDbSpline
 70
12
 71
3
 72
8
 73
4
 40
0
 40
0
 40
0
 40
0
 40
1
 40
1
 40
1
 40
1
 10
76.6932176596941
 20
18.976265942636
 30
0
 41
1
 10
76.7154675786937
 20
18.8286473754186
 30
0
 41
1
 10
76.7377174976932
 20
18.6810288082012
 30
0
 41
1
 10
76.7599674166928
 20
18.5334102409839
 30
0
 41
1
  0
SPLINE
  5
434
100
AcDbEntity
  8
0
100
AcDbSpline
 70
12
 71
3
 72
8
 73
4
 40
0
 40
0
 40
0
 40
0
 40
1
 40
1
 40
1
 40
1
 10
76.7599674166928
 20
18.5334102409839
 30
0
 41
1
 10
76.7488112623227
 20
18.384541706691
 30
0
 41
1
 10
76.7376551079527
 20
18.2356731723982
 30
0
 41
1
 10
76.7264989535826
 20
18.0868046381053
 30
0
 41
1
  0
SPLINE
  5
435
100
AcDbEntity
  8
0
100
AcDbSpline
 70
12
 71
3
 72
8
 73
4
 40
0
 40
0
 40
0
 40
0
 40
1
 40
1
 40
1
 40
1
 10
76.8393337170649
 20
10.20568072304
 30
0
 41
1
 10
76.9840033579399
 20
10.1688433060306
 30
0
 41
1
 10
77.1286729988149
 20
10.1320058890213
 30
0
 41
1
 10
77.2733426396899
 20
10.095168472012
 30
0
 41
1
  0
SPLINE
  5
436
100
AcDbEntity
  8
0
100
AcDbSpline
 70
12
 71
3
 72
8
 73
4
 40
0
 40
0
 40
0
 40
0
 40
1
 40
1
 40
1
 40
1
 10
77.4441694402645
 20
3.29237677229241
 30
0
 41
1
 10
77.297843441474
 20
3.26279633347212
 30
0
 41
1
 10
77.1515174426836
 20
3.23321589465183
 30
0
 41
1
 10
77.0051914438931
 20
3.20363545583154
 30
0
 41
1
  0
SPLINE
  5
437
100
AcDbEntity
  8
0
100
AcDbSpline
 70
12
 71
3
 72
8
 73
4
 40
0
 40
0
 40
0
 40
0
 40
1
 40
1
 40
1
 40
1
 10
77.2733426396899
 20
10.095168472012
 30
0
 41
1
 10
77.4061880141868
 20
10.0270626223542
 30
0
 41
1
 10
77.5390333886837
 20
9.95895677269652
 30
0
 41
1
 10
77.6718787631806
 20
9.89085092303881
 30
0
 41
1
  0
SPLINE
  5
438
100
AcDbEntity
  8
0
100
AcDbSpline
 70
12
 71
3
 72
8
 73
4
 40
0
 40
0
 40
0
 40
0
 40
1
 40
1
 40
1
 40
1
 10
77.8523945411413
 20
3.47657495241271
 30
0
 41
1
 10
77.7163195075157
 20
3.41517555903928
 30
0
 41
1
 10
77.5802444738901
 20
3.35377616566585
 30
0
 41
1
 10
77.4441694402645
 20
3.29237677229241
 30
0
 41
1
  0
SPLINE
  5
439
100
AcDbEntity
  8
0
100
AcDbSpline
 70
12
 71
3
 72
8
 73
4
 40
0
 40
0
 40
0
 40
0
 40
1
 40
1
 40
1
 40
1
 10
77.6718787631806
 20
9.89085092303881
 30
0
 41
1
 10
77.7862384495082
 20
9.79489175241982
 30
0
 41
1
 10
77.9005981358358
 20
9.69893258180082
 30
0
 41
1
 10
78.0149578221634
 20
9.60297341118183
 30
0
 41
1
  0
SPLINE
  5
440
100
AcDbEntity
  8
0
100
AcDbSpline
 70
12
 71
3
 72
8
 73
4
 40
0
 40
0
 40
0
 40
0
 40
1
 40
1
 40
1
 40
1
 10
78.2093966353658
 20
3.74699353029658
 30
0
 41
1
 10
78.0903959372909
 20
3.65685400433529
 30
0
 41
1
 10
77.9713952392161
 20
3.566714478374
 30
0
 41
1
 10
77.8523945411413
 20
3.47657495241271
 30
0
 41
1
  0
SPLINE
  5
441
100
AcDbEntity
  8
0
100
AcDbSpline
 70
12
 71
3
 72
8
 73
4
 40
0
 40
0
 40
0
 40
0
 40
1
 40
1
 40
1
 40
1
 10
78.0149578221634
 20
9.60297341118183
 30
0
 41
1
 10
78.1050973481246
 20
9.48397271310699
 30
0
 41
1
 10
78.1952368740859
 20
9.36497201503215
 30
0
 41
1
 10
78.2853764000472
 20
9.24597131695732
 30
0
 41
1
  0
SPLINE
  5
442
100
AcDbEntity
  8
0
100
AcDbSpline
 70
12
 71
3
 72
8
 73
4
 40
0
 40
0
 40
0
 40
0
 40
1
 40
1
 40
1
 40
1
 10
78.4972741472228
 20
4.09007258927929
 30
0
 41
1
 10
78.4013149766038
 20
3.97571290295172
 30
0
 41
1
 10
78.3053558059848
 20
3.86135321662415
 30
0
 41
1
 10
78.2093966353658
 20
3.74699353029658
 30
0
 41
1
  0
SPLINE
  5
443
100
AcDbEntity
  8
0
100
AcDbSpline
 70
12
 71
3
 72
8
 73
4
 40
0
 40
0
 40
0
 40
0
 40
1
 40
1
 40
1
 40
1
 10
78.2853764000472
 20
9.24597131695732
 30
0
 41
1
 10
78.3467757934206
 20
9.10989628333175
 30
0
 41
1
 10
78.4081751867941
 20
8.97382124970618
 30
0
 41
1
 10
78.4695745801675
 20
8.83774621608062
 30
0
 41
1
  0
SPLINE
  5
444
100
AcDbEntity
  8
0
100
AcDbSpline
 70
12
 71
3
 72
8
 73
4
 40
0
 40
0
 40
0
 40
0
 40
1
 40
1
 40
1
 40
1
 10
78.4695745801675
 20
8.83774621608062
 30
0
 41
1
 10
78.4991550189878
 20
8.69142021729016
 30
0
 41
1
 10
78.5287354578081
 20
8.54509421849971
 30
0
 41
1
 10
78.5583158966284
 20
8.39876821970926
 30
0
 41
1
  0
SPLINE
  5
445
100
AcDbEntity
  8
0
100
AcDbSpline
 70
12
 71
3
 72
8
 73
4
 40
0
 40
0
 40
0
 40
0
 40
1
 40
1
 40
1
 40
1
 10
78.701591696196
 20
4.48860871277005
 30
0
 41
1
 10
78.6334858465383
 20
4.35576333827313
 30
0
 41
1
 10
78.5653799968805
 20
4.22291796377621
 30
0
 41
1
 10
78.4972741472228
 20
4.09007258927929
 30
0
 41
1
  0
SPLINE
  5
446
100
AcDbEntity
  8
0
100
AcDbSpline
 70
12
 71
3
 72
8
 73
4
 40
0
 40
0
 40
0
 40
0
 40
1
 40
1
 40
1
 40
1
 10
78.5583158966284
 20
8.39876821970926
 30
0
 41
1
 10
78.646633715946
 20
7.38929092564296
 30
0
 41
1
 10
78.7349515352637
 20
6.37981363157665
 30
0
 41
1
 10
78.8232693545813
 20
5.37033633751035
 30
0
 41
1
  0
SPLINE
  5
447
100
AcDbEntity
  8
0
100
AcDbSpline
 70
12
 71
3
 72
8
 73
4
 40
0
 40
0
 40
0
 40
0
 40
1
 40
1
 40
1
 40
1
 10
78.812103947224
 20
4.92261763539511
 30
0
 41
1
 10
78.7752665302147
 20
4.77794799452009
 30
0
 41
1
 10
78.7384291132053
 20
4.63327835364507
 30
0
 41
1
 10
78.701591696196
 20
4.48860871277005
 30
0
 41
1
  0
SPLINE
  5
448
100
AcDbEntity
  8
0
100
AcDbSpline
 70
12
 71
3
 72
8
 73
4
 40
0
 40
0
 40
0
 40
0
 40
1
 40
1
 40
1
 40
1
 10
78.8232693545813
 20
5.37033633751035
 30
0
 41
1
 10
78.8195475521289
 20
5.2210967701386
 30
0
 41
1
 10
78.8158257496764
 20
5.07185720276685
 30
0
 41
1
 10
78.812103947224
 20
4.92261763539511
 30
0
 41
1
  0
SPLINE
  5
449
100
AcDbEntity
  8
0
100
AcDbSpline
 70
12
 71
2
 72
6
 73
3
 40
0
 40
0
 40
0
 40
1
 40
1
 40
1
 10
57.5
 20
0
 30
0
 41
1
 10
57.5000000000002
 20
33.1976404784036
 30
0
 41
0.807007203691175
 10
28.75
 20
49.7964607176051
 30
0
 41
0.868347502412605
  0
SPLINE
  5
450
100
AcDbEntity
  8
0
100
AcDbSpline
 70
12
 71
2
 72
6
 73
3
 40
0
 40
0
 40
0
 40
1
 40
1
 40
1
 10
32.4433362720996
 20
48.0773328246843
 30
0
 41
1
 10
30.7593590348588
 20
49.2137070071205
 30
0
 41
0.985699062504906
 10
29
 20
50.2294734194974
 30
0
 41
0.972794653164797
  0
SPLINE
  5
451
100
AcDbEntity
  8
0
100
AcDbSpline
 70
12
 71
2
 72
6
 73
3
 40
0
 40
0
 40
0
 40
1
 40
1
 40
1
 10
34.0816403606776
 20
46.9301799519822
 30
0
 41
1
 10
33.2723790354836
 20
47.517881799094
 30
0
 41
0.992907981127421
 10
32.4433362720996
 20
48.0773328246843
 30
0
 41
0.986159409821793
  0
SPLINE
  5
452
100
AcDbEntity
  8
0
100
AcDbSpline
 70
12
 71
2
 72
6
 73
3
 40
0
 40
0
 40
0
 40
1
 40
1
 40
1
 10
40.2989903264388
 20
41.7132038888119
 30
0
 41
1
 10
37.3732718403791
 20
44.5397309827718
 30
0
 41
0.971767731478423
 10
34.0816403606776
 20
46.9301799519821
 30
0
 41
0.948978135812868
  0
SPLINE
  5
453
100
AcDbEntity
  8
0
100
AcDbSpline
 70
12
 71
2
 72
6
 73
3
 40
0
 40
0
 40
0
 40
1
 40
1
 40
1
 10
41.7132038888119
 20
40.2989903264388
 30
0
 41
1
 10
41.0182904163103
 20
41.0182904163103
 30
0
 41
0.992907981127434
 10
40.2989903264388
 20
41.7132038888119
 30
0
 41
0.986159409821818
  0
SPLINE
  5
454
100
AcDbEntity
  8
0
100
AcDbSpline
 70
12
 71
2
 72
6
 73
3
 40
0
 40
0
 40
0
 40
1
 40
1
 40
1
 10
46.9301799519822
 20
34.0816403606776
 30
0
 41
1
 10
44.5397309827718
 20
37.3732718403791
 30
0
 41
0.971767731478422
 10
41.7132038888119
 20
40.2989903264388
 30
0
 41
0.948978135812867
  0
SPLINE
  5
455
100
AcDbEntity
  8
0
100
AcDbSpline
 70
12
 71
2
 72
6
 73
3
 40
0
 40
0
 40
0
 40
1
 40
1
 40
1
 10
45
 20
77.9422863405994
 30
0
 41
1
 10
89.9999999999998
 20
51.9615242270662
 30
0
 41
0.807007203691179
 10
89.9999999999999
 20
0
 30
0
 41
0.868347502412603
  0
SPLINE
  5
456
100
AcDbEntity
  8
0
100
AcDbSpline
 70
12
 71
2
 72
6
 73
3
 40
0
 40
0
 40
0
 40
1
 40
1
 40
1
 10
48.0773328246843
 20
32.4433362720996
 30
0
 41
1
 10
47.517881799094
 20
33.2723790354836
 30
0
 41
0.992907981127412
 10
46.9301799519822
 20
34.0816403606776
 30
0
 41
0.986159409821777
  0
SPLINE
  5
457
100
AcDbEntity
  8
0
100
AcDbSpline
 70
12
 71
2
 72
6
 73
3
 40
0
 40
0
 40
0
 40
1
 40
1
 40
1
 10
52.1354198075015
 20
25.4145234363263
 30
0
 41
1
 10
50.3528729374444
 20
29.0712447449046
 30
0
 41
0.971767731478417
 10
48.0773328246843
 20
32.4433362720996
 30
0
 41
0.948978135812859
  0
SPLINE
  5
458
100
AcDbEntity
  8
0
100
AcDbSpline
 70
12
 71
2
 72
6
 73
3
 40
0
 40
0
 40
0
 40
1
 40
1
 40
1
 10
52.9806563309829
 20
23.601907862253
 30
0
 41
1
 10
52.5736663886206
 20
24.5155032542998
 30
0
 41
0.992907981127417
 10
52.1354198075015
 20
25.4145234363262
 30
0
 41
0.986159409821786
  0
SPLINE
  5
459
100
AcDbEntity
  8
0
100
AcDbSpline
 70
12
 71
2
 72
6
 73
3
 40
0
 40
0
 40
0
 40
1
 40
1
 40
1
 10
55.7565513139653
 20
15.9751990777315
 30
0
 41
1
 10
54.6360683276958
 20
19.8859025886157
 30
0
 41
0.971767731478428
 10
52.9806563309829
 20
23.601907862253
 30
0
 41
0.948978135812875
  0
SPLINE
  5
460
100
AcDbEntity
  8
0
100
AcDbSpline
 70
12
 71
2
 72
6
 73
3
 40
0
 40
0
 40
0
 40
1
 40
1
 40
1
 10
56.2741894041703
 20
14.0433474251534
 30
0
 41
1
 10
56.0320267284877
 20
15.0137363121774
 30
0
 41
0.992907981127422
 10
55.7565513139653
 20
15.9751990777315
 30
0
 41
0.986159409821795
  0
SPLINE
  5
461
100
AcDbEntity
  8
0
100
AcDbSpline
 70
12
 71
2
 72
6
 73
3
 40
0
 40
0
 40
0
 40
1
 40
1
 40
1
 10
57.6835482229305
 20
6.05047637900073
 30
0
 41
1
 10
57.2591744289948
 20
10.096337344924
 30
0
 41
0.971767731478413
 10
56.2741894041703
 20
14.0433474251534
 30
0
 41
0.948978135812852
  0
SPLINE
  5
462
100
AcDbEntity
  8
0
100
AcDbSpline
 70
12
 71
2
 72
6
 73
3
 40
0
 40
0
 40
0
 40
1
 40
1
 40
1
 10
57.8578597084259
 20
4.05808698281724
 30
0
 41
1
 10
57.7878822897834
 20
5.05578458952656
 30
0
 41
0.992907981127427
 10
57.6835482229305
 20
6.05047637900072
 30
0
 41
0.986159409821805
  0
SPLINE
  5
463
100
AcDbEntity
  8
0
100
AcDbSpline
 70
12
 71
2
 72
6
 73
3
 40
0
 40
0
 40
0
 40
1
 40
1
 40
1
 10
58
 20
0
 30
0
 41
1
 10
58
 20
2.0315328247539
 30
0
 41
0.985699062504906
 10
57.8578597084258
 20
4.05808698281723
 30
0
 41
0.972794653164798
  0
ENDSEC
  0
SECTION
  2
OBJECTS
  0
DICTIONARY
  5
19
100
AcDbDictionary
  3
ACAD_GROUP
350
1A
  3
ACAD_MLINESTYLE
350
1B
  0
DICTIONARY
  5
1A
102
{ACAD_REACTORS
330
19
102
}
100
AcDbDictionary
  0
DICTIONARY
  5
1B
102
{ACAD_REACTORS
330
19
102
}
100
AcDbDictionary
  3
STANDARD
350
1C
  0
MLINESTYLE
  5
1C
102
{ACAD_REACTORS
330
1B
102
}
100
AcDbMlineStyle
  2
STANDARD
 70
         0
  3

 62
         0
 51
90.0
 52
90.0
 71
         2
 49
0.5
 62
       256
  6
BYLAYER
 49
-0.5
 62
       256
  6
BYLAYER
  0
ENDSEC
  0
EOF
